<svg width="642" height="74" viewBox="0 0 642 74" fill="none" xmlns="http://www.w3.org/2000/svg">
<g opacity="0.3">
<path d="M440.997 37.0187C440.994 37.3693 440.854 37.7046 440.607 37.9525C440.361 38.2004 440.027 38.3411 439.679 38.3444L211.345 38.3444C211.016 38.3123 210.71 38.1581 210.488 37.9118C210.266 37.6656 210.143 37.345 210.143 37.0124C210.143 36.6799 210.266 36.3593 210.488 36.113C210.71 35.8668 211.016 35.7126 211.345 35.6805L439.679 35.6805C440.029 35.6838 440.365 35.8263 440.612 36.0769C440.858 36.3275 440.997 36.6659 440.997 37.0187Z" fill="url(#paint0_linear_2252_3660)"/>
<path d="M496.641 0V74L435.948 36.9938L496.641 0ZM494.005 69.2976V4.72739L441.059 37.0188L494.005 69.2976Z" fill="url(#paint1_linear_2252_3660)"/>
<path d="M532.266 0V74L471.573 36.9938L532.266 0ZM529.617 69.2976V4.72739L476.671 37.0188L529.617 69.2976Z" fill="url(#paint2_linear_2252_3660)"/>
<path d="M642 37.0187C641.997 37.3693 641.857 37.7046 641.61 37.9525C641.364 38.2004 641.03 38.3411 640.682 38.3444L530.935 38.3444C530.606 38.3123 530.301 38.1581 530.079 37.9118C529.856 37.6656 529.733 37.345 529.733 37.0124C529.733 36.6799 529.856 36.3593 530.079 36.113C530.301 35.8668 530.606 35.7126 530.935 35.6805L640.682 35.6805C641.033 35.6838 641.368 35.8263 641.615 36.0769C641.861 36.3275 642 36.6659 642 37.0187Z" fill="url(#paint3_linear_2252_3660)"/>
<path d="M642 37.0185C642 37.1987 641.964 37.377 641.893 37.5425C641.822 37.7081 641.719 37.8575 641.589 37.9816C641.34 38.2313 641.002 38.3715 640.65 38.3715C640.298 38.3715 639.961 38.2313 639.712 37.9816L617.566 14.5822C617.325 14.3251 617.196 13.9824 617.206 13.6294C617.217 13.2764 617.366 12.9421 617.622 12.7C617.877 12.4578 618.218 12.3277 618.569 12.3383C618.92 12.3489 619.252 12.4992 619.493 12.7563L641.639 36.1431C641.858 36.3828 641.986 36.693 642 37.0185Z" fill="url(#paint4_linear_2252_3660)"/>
<path d="M620.886 37.0185C620.887 37.1987 620.85 37.377 620.78 37.5425C620.709 37.7081 620.606 37.8575 620.476 37.9816C620.227 38.2313 619.889 38.3715 619.537 38.3715C619.185 38.3715 618.848 38.2313 618.598 37.9816L596.453 14.5822C596.333 14.4557 596.24 14.3069 596.178 14.1442C596.116 13.9815 596.087 13.8081 596.091 13.6339C596.096 13.4597 596.134 13.2881 596.205 13.1289C596.276 12.9698 596.377 12.8261 596.502 12.7062C596.628 12.5863 596.776 12.4925 596.938 12.4302C597.1 12.3678 597.272 12.3381 597.445 12.3427C597.618 12.3474 597.789 12.3863 597.947 12.4572C598.105 12.5282 598.248 12.6298 598.368 12.7563L620.526 36.1431C620.745 36.3828 620.873 36.693 620.886 37.0185Z" fill="url(#paint5_linear_2252_3660)"/>
<path d="M620.364 37.2688C620.368 37.4376 620.339 37.6055 620.277 37.7624C620.215 37.9193 620.122 38.062 620.003 38.1818L597.858 61.5811C597.741 61.7208 597.597 61.8349 597.435 61.9165C597.273 61.9981 597.095 62.0455 596.914 62.0557C596.733 62.066 596.552 62.0389 596.382 61.9761C596.211 61.9133 596.055 61.8162 595.924 61.6906C595.792 61.5651 595.688 61.4138 595.616 61.2461C595.545 61.0784 595.508 60.8977 595.509 60.7153C595.51 60.5329 595.547 60.3525 595.62 60.1852C595.692 60.018 595.798 59.8674 595.93 59.7427L618.089 36.3434C618.271 36.1497 618.507 36.0158 618.766 35.959C619.024 35.9023 619.294 35.9254 619.54 36.0254C619.786 36.1253 619.996 36.2974 620.143 36.5192C620.29 36.741 620.367 37.0023 620.364 37.2688Z" fill="url(#paint6_linear_2252_3660)"/>
<path d="M641.49 37.2687C641.493 37.4383 641.461 37.6068 641.397 37.7637C641.333 37.9207 641.237 38.0628 641.117 38.1816L618.971 61.581C618.851 61.7074 618.708 61.8089 618.549 61.8795C618.39 61.9502 618.218 61.9886 618.045 61.9927C617.871 61.9967 617.698 61.9663 617.536 61.9032C617.374 61.8401 617.226 61.7455 617.1 61.6248C616.974 61.504 616.873 61.3596 616.803 61.1997C616.733 61.0397 616.695 60.8675 616.69 60.6927C616.686 60.5179 616.717 60.3441 616.779 60.181C616.842 60.018 616.936 59.869 617.056 59.7425L639.202 36.3432C639.452 36.0935 639.789 35.9533 640.141 35.9533C640.493 35.9533 640.83 36.0935 641.08 36.3432C641.333 36.5849 641.481 36.9177 641.49 37.2687Z" fill="url(#paint7_linear_2252_3660)"/>
<path d="M41.1084 36.7562C41.1084 36.581 41.1429 36.4076 41.21 36.2459C41.277 36.0843 41.3752 35.9376 41.499 35.8143C41.6227 35.6911 41.7694 35.5937 41.9308 35.5278C42.0921 35.4619 42.2648 35.4288 42.439 35.4305L356.273 35.4305C356.602 35.4626 356.907 35.6168 357.129 35.863C357.351 36.1092 357.475 36.4299 357.475 36.7624C357.475 37.0949 357.351 37.4156 357.129 37.6618C356.907 37.908 356.602 38.0622 356.273 38.0943L42.439 38.0943C42.0861 38.0943 41.7477 37.9534 41.4982 37.7024C41.2487 37.4514 41.1084 37.1111 41.1084 36.7562Z" fill="url(#paint8_linear_2252_3660)"/>
<path d="M1.14441e-05 36.0559C1.14441e-05 49.0619 9.98143 59.6052 22.2946 59.6052C34.6078 59.6052 44.5898 49.0619 44.5898 36.0559C44.5898 23.0499 34.6078 12.5063 22.2946 12.5063C9.98143 12.5063 1.14441e-05 23.0499 1.14441e-05 36.0559Z" fill="url(#paint9_linear_2252_3660)"/>
<path d="M53.1197 36.7561C53.1197 45.6248 59.9282 52.8142 68.327 52.8142C76.7258 52.8142 83.5344 45.6248 83.5344 36.7561C83.5344 27.8874 76.7258 20.698 68.327 20.698C59.9282 20.698 53.1197 27.8874 53.1197 36.7561Z" fill="url(#paint10_linear_2252_3660)"/>
</g>
<defs>
<linearGradient id="paint0_linear_2252_3660" x1="210.143" y1="38.3444" x2="210.151" y2="35.0778" gradientUnits="userSpaceOnUse">
<stop stop-color="#E69E2F"/>
<stop offset="1" stop-color="#EAAD4E"/>
</linearGradient>
<linearGradient id="paint1_linear_2252_3660" x1="435.948" y1="74" x2="459.211" y2="-10.3258" gradientUnits="userSpaceOnUse">
<stop stop-color="#E69E2F"/>
<stop offset="1" stop-color="#EAAD4E"/>
</linearGradient>
<linearGradient id="paint2_linear_2252_3660" x1="471.573" y1="74" x2="494.836" y2="-10.3258" gradientUnits="userSpaceOnUse">
<stop stop-color="#E69E2F"/>
<stop offset="1" stop-color="#EAAD4E"/>
</linearGradient>
<linearGradient id="paint3_linear_2252_3660" x1="529.733" y1="38.3444" x2="529.751" y2="35.0779" gradientUnits="userSpaceOnUse">
<stop stop-color="#E69E2F"/>
<stop offset="1" stop-color="#EAAD4E"/>
</linearGradient>
<linearGradient id="paint4_linear_2252_3660" x1="617.206" y1="38.3715" x2="624.385" y2="8.15288" gradientUnits="userSpaceOnUse">
<stop stop-color="#E69E2F"/>
<stop offset="1" stop-color="#EAAD4E"/>
</linearGradient>
<linearGradient id="paint5_linear_2252_3660" x1="596.091" y1="38.3715" x2="603.267" y2="8.15737" gradientUnits="userSpaceOnUse">
<stop stop-color="#E69E2F"/>
<stop offset="1" stop-color="#EAAD4E"/>
</linearGradient>
<linearGradient id="paint6_linear_2252_3660" x1="595.509" y1="62.0579" x2="602.722" y2="31.7324" gradientUnits="userSpaceOnUse">
<stop stop-color="#E69E2F"/>
<stop offset="1" stop-color="#EAAD4E"/>
</linearGradient>
<linearGradient id="paint7_linear_2252_3660" x1="616.69" y1="61.993" x2="623.871" y2="31.7674" gradientUnits="userSpaceOnUse">
<stop stop-color="#E69E2F"/>
<stop offset="1" stop-color="#EAAD4E"/>
</linearGradient>
<linearGradient id="paint8_linear_2252_3660" x1="357.475" y1="35.4304" x2="357.468" y2="38.6971" gradientUnits="userSpaceOnUse">
<stop stop-color="#E69E2F"/>
<stop offset="1" stop-color="#EAAD4E"/>
</linearGradient>
<linearGradient id="paint9_linear_2252_3660" x1="44.5898" y1="12.5063" x2="31.5325" y2="67.1413" gradientUnits="userSpaceOnUse">
<stop stop-color="#E69E2F"/>
<stop offset="1" stop-color="#EAAD4E"/>
</linearGradient>
<linearGradient id="paint10_linear_2252_3660" x1="83.5344" y1="20.698" x2="74.6332" y2="57.9542" gradientUnits="userSpaceOnUse">
<stop stop-color="#E69E2F"/>
<stop offset="1" stop-color="#EAAD4E"/>
</linearGradient>
</defs>
</svg>
