<svg width="217" height="262" viewBox="0 0 217 262" fill="none" xmlns="http://www.w3.org/2000/svg">
<ellipse cx="194.257" cy="191.257" rx="35.8271" ry="35.8271" transform="rotate(-40.3816 194.257 191.257)" fill="#1C1C1C"/>
<g opacity="0.3">
<path fill-rule="evenodd" clip-rule="evenodd" d="M237.332 226.393L253.39 229.855C253.666 229.494 254.044 229.223 254.469 229.08C254.894 228.937 255.345 228.93 255.754 229.059C255.89 229.099 256.019 229.159 256.136 229.236L272.925 216.796C267.094 219.301 261.109 221.364 255.025 222.968C249.182 224.511 243.269 225.656 237.328 226.397L237.332 226.393ZM206.736 230.405C207.129 230.532 207.463 230.781 207.692 231.117L222.515 227.215C221.544 227.143 220.523 227.025 219.34 226.868C210.651 225.716 203.623 224.503 197.598 223.374L205.2 230.525C205.693 230.288 206.245 230.243 206.74 230.401L206.736 230.405ZM211.249 256.927L196.51 277.371L196.64 277.621C212.871 276.064 228.697 270.15 242.406 260.518C242.332 260.144 242.371 259.748 242.518 259.379C242.586 259.207 242.675 259.043 242.783 258.891L235.941 248.118C235.575 248.199 235.201 248.184 234.857 248.075C234.529 247.969 234.241 247.778 234.021 247.521L213.812 254.971C213.792 255.165 213.745 255.356 213.673 255.541C213.488 256.014 213.139 256.416 212.692 256.672C212.245 256.927 211.732 257.018 211.249 256.927ZM255.05 233.015L245.977 257.891C259.543 247.428 270.578 233.282 277.21 216.397L277.706 215.079L256.998 230.429C257.075 230.813 257.038 231.22 256.892 231.6C256.744 231.979 256.491 232.315 256.164 232.566C255.837 232.818 255.45 232.974 255.05 233.015ZM236.382 244.201C236.631 244.281 236.858 244.411 237.049 244.583C237.241 244.754 237.394 244.964 237.499 245.201C237.605 245.437 237.66 245.696 237.663 245.961C237.666 246.226 237.616 246.494 237.516 246.748C237.45 246.92 237.362 247.084 237.253 247.236L244.098 258.013L244.356 257.966L253.615 232.592C253.245 232.283 253.012 231.841 252.961 231.35L232.478 226.928C232.35 227.095 232.199 227.244 232.03 227.37L235.943 244.118C236.093 244.128 236.24 244.156 236.382 244.201ZM230.439 227.799L213.629 253.458L233.588 246.099C233.614 245.804 233.705 245.514 233.855 245.248C234.005 244.983 234.21 244.75 234.455 244.565L230.547 227.813L230.439 227.799ZM207.186 233.892L212.067 252.905L212.214 252.922L229.085 227.176L228.377 227.225L207.991 232.591C207.966 232.715 207.931 232.838 207.886 232.958C207.74 233.321 207.496 233.644 207.182 233.888L207.186 233.892ZM197.623 240.679L210.357 252.523L205.697 234.373C205.534 234.361 205.375 234.331 205.222 234.283C204.72 234.121 204.318 233.762 204.104 233.285C203.891 232.808 203.884 232.252 204.085 231.739L204.107 231.676L195.873 223.937C195.387 224.167 194.845 224.212 194.356 224.061L188.614 230.5L195.155 238.123C195.524 237.987 195.916 237.954 196.286 238.029C196.656 238.103 196.99 238.281 197.249 238.543C197.508 238.805 197.682 239.139 197.752 239.509C197.821 239.878 197.782 240.267 197.64 240.631L197.623 240.679ZM195.361 242.032L183.17 261.6C183.364 261.861 183.485 262.171 183.524 262.503C183.562 262.834 183.517 263.176 183.391 263.497L183.267 263.755L194.182 276.635C194.541 276.505 194.922 276.473 195.283 276.543L210.023 256.097C209.861 255.841 209.764 255.548 209.739 255.238C209.714 254.929 209.761 254.613 209.878 254.315L209.902 254.265L196.528 241.826C196.159 242.005 195.753 242.075 195.361 242.028L195.361 242.032ZM181.331 240.284L182.16 260.413L194.069 241.304C193.873 241.043 193.75 240.733 193.71 240.401C193.67 240.069 193.716 239.727 193.842 239.404L193.957 239.153L187.55 231.686L182.349 237.521C182.46 237.755 182.523 238.013 182.532 238.278C182.541 238.544 182.497 238.813 182.402 239.069C182.307 239.326 182.164 239.565 181.98 239.773C181.796 239.981 181.575 240.154 181.329 240.282L181.331 240.284ZM136.441 193.896L121.57 187.402C121.61 186.963 121.508 186.534 121.277 186.178C121.047 185.822 120.701 185.558 120.291 185.425C120.158 185.382 120.019 185.355 119.877 185.343L115.514 166.092C118.29 171.368 121.492 176.39 125.093 181.113C128.551 185.652 132.34 189.924 136.434 193.897L136.441 193.896ZM157.375 214.504C156.982 214.374 156.548 214.374 156.135 214.503L147.357 203.005C148.164 203.502 149.035 203.996 150.06 204.548C157.599 208.624 163.9 211.703 169.362 214.274L158.483 215.472C158.266 215.007 157.867 214.659 157.372 214.502L157.375 214.504ZM135.412 232.501L132.607 256.79L132.334 256.903C120.826 246.415 112.666 232.779 108.737 217.468C109.055 217.218 109.301 216.889 109.446 216.518C109.511 216.345 109.555 216.167 109.576 215.986L122.389 211.547C122.609 211.814 122.9 212.013 123.234 212.125C123.568 212.237 123.932 212.256 124.29 212.183L134.777 229.519C134.655 229.678 134.557 229.853 134.485 230.038C134.3 230.512 134.292 231.025 134.461 231.479C134.63 231.933 134.966 232.297 135.405 232.503L135.412 232.501ZM118.071 188.898L107.789 213.387C104.438 196.972 106.063 179.58 112.464 163.341L112.988 162.03L118.371 185.776C118.039 186.029 117.782 186.369 117.632 186.752C117.484 187.129 117.446 187.533 117.524 187.914C117.602 188.295 117.792 188.637 118.071 188.898ZM124.769 208.259C124.52 208.178 124.254 208.148 123.985 208.171C123.717 208.193 123.452 208.268 123.205 208.391C122.959 208.514 122.735 208.682 122.548 208.886C122.36 209.09 122.212 209.326 122.113 209.58C122.046 209.751 122.001 209.928 121.978 210.108L109.168 214.551L108.996 214.367L119.49 189.39C119.994 189.363 120.483 189.151 120.864 188.795L139.828 197.084C139.812 197.284 139.825 197.483 139.865 197.676L125.166 208.428C125.041 208.357 124.908 208.301 124.769 208.259ZM140.801 198.933L135.978 228.449L125.62 211.321C125.743 211.162 125.841 210.987 125.911 210.802C126.059 210.422 126.096 210.016 126.015 209.632L140.711 198.875L140.801 198.933ZM154.601 216.956L137.575 228.916L137.448 228.843L142.292 199.226L142.814 199.668L154.889 215.486C154.819 215.594 154.761 215.709 154.716 215.829C154.572 216.193 154.531 216.582 154.597 216.953L154.601 216.956ZM157.293 227.692L139.165 229.599L155.421 218.177C155.554 218.263 155.698 218.331 155.85 218.381C156.353 218.542 156.915 218.494 157.413 218.246C157.91 217.998 158.303 217.571 158.506 217.059L158.528 216.996L170.311 215.701C170.525 216.158 170.914 216.503 171.398 216.664L171.367 224.944L160.983 227.114C160.792 226.799 160.51 226.551 160.171 226.398C159.832 226.245 159.45 226.193 159.067 226.249C158.684 226.304 158.317 226.465 158.007 226.712C157.698 226.959 157.458 227.283 157.315 227.647L157.293 227.692ZM158.105 230.037L153.937 252.189C153.605 252.28 153.294 252.451 153.034 252.685C152.774 252.919 152.571 253.209 152.445 253.53L152.361 253.804L134.92 257.549C134.731 257.243 134.458 257 134.13 256.848L136.934 232.559C137.238 232.455 137.518 232.283 137.753 232.058C137.988 231.833 138.171 231.56 138.287 231.262L138.306 231.209L157.345 229.207C157.504 229.556 157.768 229.844 158.102 230.034L158.105 230.037ZM170.202 236.697L155.542 251.836L159.614 230.203C159.947 230.112 160.259 229.94 160.519 229.705C160.78 229.469 160.982 229.176 161.107 228.854L161.194 228.599L171.364 226.468L171.341 233.977C171.091 234.093 170.863 234.256 170.67 234.457C170.477 234.657 170.323 234.89 170.218 235.143C170.112 235.396 170.056 235.663 170.053 235.93C170.051 236.197 170.101 236.458 170.202 236.697ZM164.465 267.301L179.464 262.721C179.489 262.568 179.53 262.417 179.587 262.27C179.782 261.769 180.161 261.349 180.643 261.099L179.794 240.454L179.723 240.432C179.575 240.387 179.434 240.324 179.305 240.242L173.443 244.405L171.795 237.82C171.636 237.811 171.482 237.782 171.334 237.733L171.266 237.709L156.229 253.237C156.43 253.706 156.431 254.249 156.234 254.749C156.175 254.895 156.102 255.035 156.016 255.167L164.465 267.301ZM161.876 273.901C171.74 277.091 182.236 278.443 192.863 277.892L192.972 277.665L182.054 264.781C181.644 264.928 181.208 264.949 180.806 264.839C180.404 264.729 180.056 264.495 179.81 264.168L163.764 269.07L154.731 256.093C154.312 256.204 153.879 256.185 153.491 256.039C153.103 255.892 152.78 255.626 152.566 255.277L135.127 259.029L135.056 259.27C142.914 265.773 151.996 270.727 161.867 273.893L161.876 273.901ZM183.382 219.07C185.782 219.504 188.286 219.993 190.976 220.518L193.469 221.002C193.715 220.664 194.051 220.399 194.435 220.241C194.819 220.083 195.234 220.038 195.626 220.113C196.018 220.188 196.37 220.379 196.637 220.662C196.904 220.945 197.074 221.306 197.126 221.701C203.317 222.87 210.575 224.14 219.658 225.346C221.357 225.57 222.706 225.708 224.056 225.764C225.444 225.815 226.838 225.794 228.234 225.702L228.863 225.54C228.886 225.415 228.922 225.291 228.97 225.171C229.139 224.746 229.44 224.377 229.827 224.123C230.215 223.868 230.666 223.741 231.113 223.761C231.559 223.782 231.975 223.948 232.297 224.235C232.618 224.523 232.828 224.915 232.892 225.35C240.223 224.676 247.529 223.384 254.731 221.49C262.45 219.458 270.001 216.669 277.268 213.167C277.267 212.912 277.316 212.656 277.413 212.413C277.551 212.061 277.779 211.746 278.075 211.502C278.37 211.257 278.721 211.092 279.09 211.025C279.458 210.957 279.831 210.99 280.168 211.118C280.505 211.247 280.794 211.468 281.003 211.756C281.211 212.044 281.333 212.39 281.354 212.755C281.375 213.12 281.295 213.492 281.122 213.83C280.949 214.168 280.69 214.46 280.373 214.674C280.056 214.888 279.692 215.017 279.321 215.046L278.626 216.854C272.103 233.571 260.899 248.373 246.411 259.412C246.495 259.8 246.461 260.213 246.313 260.599C246.111 261.112 245.718 261.539 245.22 261.786C244.722 262.034 244.16 262.082 243.657 261.92C243.51 261.877 243.372 261.814 243.245 261.733C229.288 271.538 213.176 277.556 196.652 279.134L196.649 279.144C196.497 279.532 196.235 279.875 195.895 280.127C195.556 280.379 195.156 280.53 194.746 280.559C194.337 280.588 193.937 280.495 193.599 280.291C193.261 280.087 193 279.783 192.85 279.416C182.033 279.981 171.348 278.606 161.307 275.358C151.26 272.132 142.015 267.088 134.016 260.468C133.644 260.665 133.23 260.752 132.827 260.716C132.423 260.68 132.049 260.524 131.752 260.268C131.455 260.011 131.249 259.666 131.16 259.277C131.072 258.888 131.106 258.472 131.257 258.085L131.26 258.075C119.543 247.399 111.236 233.517 107.238 217.929C107.083 217.918 106.933 217.888 106.789 217.84C106.444 217.729 106.144 217.525 105.92 217.25C105.696 216.974 105.556 216.637 105.516 216.275C105.476 215.914 105.536 215.54 105.692 215.195C105.847 214.851 106.091 214.547 106.397 214.318C102.848 197.468 104.464 179.577 111.042 162.878L111.765 161.083C111.497 160.848 111.305 160.54 111.208 160.192C111.111 159.845 111.113 159.47 111.215 159.109C111.316 158.748 111.513 158.414 111.783 158.142C112.054 157.87 112.389 157.672 112.752 157.567C113.115 157.463 113.492 157.457 113.843 157.549C114.194 157.642 114.506 157.83 114.746 158.093C114.985 158.356 115.143 158.685 115.202 159.043C115.261 159.402 115.22 159.777 115.082 160.128C114.984 160.373 114.842 160.6 114.664 160.8C117.859 167.672 121.771 174.152 126.343 180.142C130.609 185.736 135.378 190.919 140.599 195.636C140.952 195.333 141.388 195.147 141.838 195.108C142.289 195.068 142.729 195.176 143.09 195.416C143.451 195.656 143.713 196.014 143.836 196.435C143.958 196.855 143.934 197.314 143.767 197.741C143.721 197.862 143.664 197.978 143.596 198.089L143.968 198.575C144.989 199.444 146.058 200.256 147.171 201.01C148.256 201.744 149.397 202.405 150.873 203.2C158.754 207.459 165.268 210.628 170.892 213.26C171.206 212.981 171.59 212.796 171.995 212.728C172.399 212.66 172.806 212.713 173.163 212.879C173.52 213.045 173.81 213.317 173.997 213.661C174.185 214.004 174.26 214.403 174.214 214.806L176.485 215.854C178.936 216.985 181.219 218.038 183.382 219.073L183.382 219.07ZM181.947 222.726L187.643 229.359L193.237 223.083C193.15 222.9 193.093 222.702 193.071 222.497L190.577 222.014C187.822 221.469 185.263 220.976 182.806 220.536C180.598 219.473 178.264 218.396 175.755 217.232L173.479 216.181C173.32 216.326 173.14 216.446 172.947 216.537L172.912 224.603L181.947 222.726ZM179.775 228.263L180.983 236.493L181.229 236.551L186.581 230.551L181.295 224.392L172.901 226.146L172.873 233.863L173.118 233.959L179.775 228.263ZM174.43 241.901L178.48 239.022C178.407 238.648 178.446 238.253 178.59 237.884C178.758 237.451 179.066 237.077 179.463 236.824L178.639 231.173L174.068 235.082C174.193 235.508 174.17 235.973 174.002 236.407C173.857 236.775 173.611 237.101 173.294 237.347L174.43 241.901Z" fill="url(#paint0_linear_2293_4437)"/>
<path fill-rule="evenodd" clip-rule="evenodd" d="M224.212 111.512C185.635 99.0874 142.402 117.307 121.354 152.768C120.964 152.246 120.528 151.762 120.051 151.319C141.708 115.415 185.675 97.0348 224.924 109.674C264.173 122.314 285.486 161.709 277.287 201.946C276.61 202.018 275.935 202.145 275.27 202.325C283.631 162.775 262.781 123.929 224.211 111.506L224.212 111.512ZM222.775 115.179C185.114 103.048 142.804 121.539 123.286 156.946C123.096 156.133 122.818 155.348 122.458 154.605C142.815 119.336 185.462 101.1 223.489 113.346C261.517 125.592 281.895 164.124 273.125 203.114C272.333 203.487 271.575 203.938 270.863 204.459C280.368 165.837 260.429 127.308 222.772 115.18L222.775 115.179ZM221.339 118.852C184.236 106.898 142.391 126.17 124.763 162.209C124.396 161.531 124.031 160.846 123.684 160.163C142.119 124.059 184.457 104.913 222.05 117.021C259.643 129.129 279.148 168.176 268.312 206.722C267.562 207.056 266.804 207.379 266.051 207.7C277.467 169.672 258.432 130.801 221.333 118.849L221.339 118.852ZM219.903 122.524C183.833 110.912 143.034 130.373 127.058 166.187C126.66 165.536 126.274 164.882 125.893 164.224C142.697 128.287 184.025 108.909 220.621 120.686C257.218 132.464 275.769 171.134 263.786 208.617C263.027 208.911 262.273 209.202 261.523 209.478C274.052 172.556 255.957 134.136 219.897 122.516L219.903 122.524ZM218.463 126.2C183.492 114.935 143.825 134.544 129.519 170.034C129.096 169.404 128.68 168.769 128.269 168.128C143.416 132.465 183.655 112.925 219.187 124.366C254.72 135.807 272.319 173.974 259.239 210.298C258.475 210.559 257.704 210.812 256.941 211.058C270.54 175.343 253.428 137.451 218.45 126.188L218.463 126.2ZM217.032 129.868C183.829 119.18 146.141 137.967 132.854 171.849C132.607 172.481 132.369 173.112 132.142 173.74C131.691 173.134 131.246 172.522 130.808 171.906L131.055 171.267C144.74 136.379 183.555 117.026 217.749 128.041C251.943 139.055 268.577 176.264 254.891 211.147L254.644 211.771C253.872 212.001 253.102 212.224 252.327 212.442C252.591 211.819 252.842 211.2 253.093 210.573C266.365 176.676 250.216 140.553 217.019 129.857L217.032 129.868ZM215.592 133.545C184.377 123.496 148.945 141.161 136.456 173.009C135.894 174.442 135.387 175.881 134.935 177.325C134.457 176.734 133.988 176.145 133.523 175.55C133.874 174.506 134.249 173.467 134.659 172.425C147.549 139.567 184.107 121.337 216.319 131.708C248.531 142.079 264.195 177.129 251.301 209.992C250.9 211.026 250.472 212.046 250.018 213.054C249.24 213.259 248.462 213.444 247.68 213.624C248.336 212.246 248.945 210.846 249.507 209.413C261.976 177.547 246.792 143.58 215.572 133.527L215.592 133.545ZM214.161 137.213C184.93 127.805 151.753 144.349 140.057 174.169C139.205 176.34 138.48 178.551 137.887 180.788C137.381 180.222 136.884 179.647 136.395 179.073C136.925 177.239 137.545 175.411 138.255 173.589C150.351 142.754 184.658 125.65 214.88 135.384C245.102 145.118 259.802 178.002 247.71 208.836C246.992 210.659 246.203 212.428 245.343 214.144C244.554 214.316 243.773 214.479 242.987 214.626C244.08 212.552 245.056 210.426 245.909 208.258C257.585 178.413 243.369 146.607 214.139 137.19L214.161 137.213ZM212.721 140.889C185.482 132.114 154.555 147.535 143.656 175.33C142.526 178.205 141.639 181.152 141.006 184.139C140.472 183.589 139.947 183.038 139.425 182.477C140.053 179.86 140.865 177.276 141.854 174.746C153.149 145.944 185.207 129.957 213.442 139.051C241.677 148.146 255.415 178.865 244.111 207.683C243.121 210.208 241.955 212.674 240.622 215.06C239.832 215.193 239.035 215.318 238.238 215.443C239.825 212.766 241.189 209.976 242.316 207.104C253.195 179.283 239.942 149.638 212.696 140.863L212.721 140.889ZM225.675 107.87C185.629 94.9726 140.794 113.639 118.596 150.192C118.072 149.853 117.519 149.558 116.943 149.309C139.629 111.948 185.456 92.8508 226.394 106.029C267.332 119.208 289.578 160.235 281.156 202.193C280.538 202.054 279.906 201.966 279.266 201.93C287.466 160.867 265.696 120.74 225.65 107.844L225.675 107.87Z" fill="url(#paint1_linear_2293_4437)"/>
</g>
<defs>
<linearGradient id="paint0_linear_2293_4437" x1="73.2675" y1="191.009" x2="226.122" y2="106.495" gradientUnits="userSpaceOnUse">
<stop stop-color="#E69E2F"/>
<stop offset="1" stop-color="#EAAD4E"/>
</linearGradient>
<linearGradient id="paint1_linear_2293_4437" x1="110.444" y1="148.327" x2="245.057" y2="72.6414" gradientUnits="userSpaceOnUse">
<stop stop-color="#E69E2F"/>
<stop offset="1" stop-color="#EAAD4E"/>
</linearGradient>
</defs>
</svg>
