<svg width="565" height="636" viewBox="0 0 565 636" fill="none" xmlns="http://www.w3.org/2000/svg">
<circle cx="442.621" cy="442.621" r="125.6" transform="rotate(-40.3816 442.621 442.621)" fill="#1C1C1C"/>
<g opacity="0.3">
<path fill-rule="evenodd" clip-rule="evenodd" d="M595.049 572.54L651.482 586.623C652.398 585.393 653.682 584.487 655.147 584.037C656.612 583.586 658.181 583.615 659.624 584.12C660.105 584.276 660.561 584.501 660.978 584.786L717.936 543.179C697.923 551.259 677.318 557.774 656.306 562.663C636.13 567.369 615.658 570.673 595.036 572.551L595.049 572.54ZM488.876 582.911C490.261 583.407 491.458 584.321 492.299 585.527L543.487 573.63C540.093 573.261 536.517 572.722 532.372 572.03C501.927 566.936 477.269 561.834 456.117 557.143L483.534 583.149C485.222 582.375 487.142 582.285 488.888 582.9L488.876 582.911ZM507.987 676.492L459.196 746.424L459.682 747.315C516.079 743.816 570.508 724.985 617.087 692.857C616.782 691.535 616.867 690.151 617.333 688.873C617.546 688.28 617.835 687.716 618.193 687.197L592.966 648.578C591.699 648.819 590.393 648.721 589.179 648.295C588.023 647.884 586.995 647.181 586.194 646.253L516.676 669.942C516.63 670.617 516.491 671.284 516.264 671.923C515.676 673.561 514.51 674.929 512.986 675.771C511.461 676.612 509.683 676.869 507.987 676.492ZM657.674 597.909L629.202 684.073C675.176 649.011 711.853 600.723 732.827 542.297L734.39 537.734L664.137 589.074C664.454 590.431 664.377 591.853 663.915 593.171C663.449 594.482 662.61 595.629 661.501 596.471C660.392 597.313 659.062 597.813 657.674 597.909ZM594.003 634.891C594.881 635.203 595.689 635.686 596.379 636.311C597.069 636.935 597.629 637.691 598.027 638.533C598.424 639.375 598.652 640.288 598.696 641.22C598.74 642.151 598.599 643.083 598.283 643.962C598.075 644.558 597.786 645.123 597.426 645.642L622.667 684.276L623.561 684.14L652.616 596.254C651.285 595.126 650.418 593.546 650.179 591.816L578.191 573.83C577.767 574.4 577.26 574.904 576.688 575.324L592.46 634.545C592.986 634.601 593.504 634.718 594.003 634.891ZM571.192 576.639L515.843 664.61L584.504 641.213C584.556 640.181 584.837 639.172 585.325 638.26C585.814 637.348 586.498 636.554 587.329 635.936L571.572 576.701L571.192 576.639ZM490.887 595.199L510.326 662.482L510.841 662.559L566.391 574.289L563.929 574.376L493.529 590.731C493.456 591.164 493.349 591.591 493.211 592.007C492.746 593.264 491.935 594.364 490.874 595.183L490.887 595.199ZM458.406 617.851L504.316 660.935L485.755 596.707C485.187 596.645 484.628 596.52 484.089 596.333C482.316 595.703 480.869 594.395 480.065 592.696C479.26 590.997 479.165 589.046 479.799 587.271L479.868 587.052L450.174 558.91C448.509 559.66 446.623 559.75 444.9 559.161L425.696 581.055L449.476 608.584C450.744 608.153 452.105 608.086 453.406 608.391C454.706 608.697 455.893 609.363 456.83 610.312C457.767 611.261 458.417 612.456 458.705 613.76C458.993 615.064 458.908 616.424 458.459 617.684L458.406 617.851ZM450.691 622.323L410.671 689.488C411.381 690.429 411.845 691.532 412.021 692.698C412.198 693.865 412.082 695.058 411.683 696.171L411.286 697.061L450.984 743.56C452.22 743.146 453.545 743.081 454.813 743.371L503.605 673.433C503.009 672.516 502.632 671.474 502.506 670.387C502.379 669.299 502.504 668.197 502.873 667.164L502.949 666.993L454.735 621.741C453.471 622.325 452.063 622.522 450.69 622.308L450.691 622.323ZM401.546 614.493L407 685.204L446.094 619.612C445.378 618.674 444.908 617.57 444.727 616.402C444.546 615.233 444.66 614.037 445.059 612.922L445.43 612.053L422.139 585.086L404.745 604.925C405.163 605.761 405.412 606.671 405.478 607.604C405.543 608.537 405.424 609.475 405.126 610.363C404.829 611.251 404.359 612.073 403.743 612.78C403.128 613.488 402.38 614.068 401.541 614.487L401.546 614.493ZM239.114 446.345L186.434 421.768C186.519 420.234 186.106 418.716 185.258 417.438C184.409 416.161 183.17 415.192 181.724 414.677C181.252 414.512 180.764 414.4 180.267 414.341L162.604 346.282C172.954 365.127 184.761 383.131 197.917 400.131C210.553 416.473 224.31 431.916 239.089 446.349L239.114 446.345ZM314.734 521.165C313.346 520.663 311.834 520.609 310.41 521.013L278.338 479.618C281.214 481.46 284.315 483.299 287.958 485.357C314.766 500.568 337.127 512.128 356.502 521.808L318.719 524.695C317.903 523.038 316.469 521.768 314.723 521.158L314.734 521.165ZM240.439 581.641L233.752 666.502L232.812 666.865C191.35 628.685 161.163 579.864 145.515 525.681C146.591 524.844 147.406 523.717 147.863 522.434C148.07 521.837 148.2 521.215 148.25 520.586L192.362 506.561C193.164 507.525 194.206 508.26 195.384 508.692C196.562 509.124 197.834 509.238 199.072 509.022L237.846 571.102C237.441 571.647 237.121 572.249 236.896 572.889C236.311 574.53 236.346 576.326 236.994 577.939C237.642 579.552 238.859 580.87 240.415 581.645L240.439 581.641ZM174.425 426.594L141.687 511.251C127.915 453.264 131.366 392.456 151.62 336.265L153.28 331.731L175.072 415.676C173.947 416.526 173.095 417.685 172.62 419.01C172.15 420.316 172.071 421.728 172.392 423.075C172.712 424.422 173.419 425.644 174.425 426.594ZM200.243 495.316C199.365 495.002 198.433 494.865 197.5 494.912C196.568 494.959 195.653 495.189 194.808 495.59C193.963 495.991 193.205 496.554 192.578 497.247C191.95 497.94 191.465 498.749 191.15 499.629C190.938 500.221 190.803 500.838 190.746 501.464L146.645 515.501L146.023 514.836L179.434 428.49C181.187 428.457 182.868 427.772 184.148 426.57L251.332 457.938C251.301 458.638 251.37 459.338 251.537 460.018L201.65 495.959C201.206 495.695 200.734 495.479 200.243 495.316ZM254.957 464.542L241.897 567.496L203.601 506.16C204.008 505.618 204.328 505.016 204.548 504.376C205.018 503.061 205.093 501.639 204.764 500.285L254.637 464.328L254.957 464.542ZM305.371 529.433L247.525 569.325L247.075 569.056L260.196 465.751L262.071 467.362L306.19 524.31C305.959 524.681 305.771 525.078 305.631 525.492C305.176 526.752 305.082 528.113 305.36 529.42L305.371 529.433ZM316.125 567.417L253.156 571.914L308.387 533.815C308.861 534.131 309.372 534.389 309.91 534.581C311.683 535.208 313.636 535.105 315.34 534.296C317.044 533.487 318.36 532.037 319 530.265L319.069 530.046L359.992 526.93C360.796 528.559 362.196 529.815 363.904 530.439L364.849 559.479L328.919 565.837C328.211 564.708 327.198 563.804 325.997 563.226C324.796 562.648 323.455 562.42 322.128 562.568C320.801 562.717 319.54 563.236 318.492 564.066C317.443 564.896 316.648 566.003 316.198 567.261L316.125 567.417ZM319.255 575.742L307.54 652.942C306.394 653.222 305.334 653.782 304.456 654.572C303.578 655.361 302.909 656.355 302.509 657.464L302.253 658.417L241.913 669.443C241.217 668.347 240.233 667.463 239.069 666.888L245.755 582.027C246.802 581.698 247.758 581.13 248.548 580.369C249.338 579.607 249.941 578.673 250.309 577.64L250.369 577.457L316.499 572.736C317.099 573.983 318.054 575.023 319.244 575.729L319.255 575.742ZM362.286 600.566L313.095 651.899L324.537 576.505C325.689 576.225 326.752 575.662 327.632 574.867C328.511 574.072 329.178 573.07 329.571 571.953L329.842 571.071L365.035 564.825L365.911 591.161C365.053 591.54 364.278 592.085 363.631 592.764C362.984 593.442 362.478 594.242 362.141 595.117C361.804 595.991 361.643 596.923 361.668 597.858C361.693 598.793 361.903 599.714 362.286 600.566ZM346.174 707.226L397.893 692.972C397.961 692.439 398.086 691.914 398.265 691.406C398.881 689.672 400.148 688.243 401.797 687.424L396.209 614.904L395.959 614.819C395.435 614.645 394.937 614.403 394.477 614.101L374.567 627.995L367.98 604.698C367.428 604.649 366.885 604.527 366.364 604.337L366.124 604.244L315.668 656.894C316.426 658.566 316.5 660.47 315.875 662.201C315.689 662.703 315.453 663.186 315.169 663.641L346.174 707.226ZM337.987 730.062C372.787 742.447 409.56 748.459 446.544 747.812L446.896 747.026L407.185 700.511C405.776 700.98 404.258 700.999 402.841 700.565C401.425 700.131 400.181 699.266 399.283 698.09L343.956 713.347L310.807 666.732C309.362 667.071 307.849 666.952 306.477 666.392C305.106 665.832 303.945 664.859 303.156 663.607L242.822 674.66L242.606 675.496C270.834 699.26 303.133 717.733 337.956 730.033L337.987 730.062ZM405.998 540.326C414.422 542.141 423.216 544.157 432.662 546.325L441.416 548.325C442.231 547.17 443.37 546.281 444.689 545.772C446.009 545.263 447.448 545.157 448.824 545.467C450.2 545.778 451.452 546.49 452.419 547.514C453.387 548.538 454.027 549.828 454.258 551.219C475.992 556.067 501.464 561.4 533.289 566.729C539.241 567.719 543.961 568.369 548.678 568.728C553.522 569.073 558.381 569.168 563.236 569.014L565.411 568.524C565.476 568.087 565.584 567.657 565.735 567.242C566.27 565.771 567.274 564.515 568.592 563.667C569.91 562.82 571.469 562.429 573.028 562.555C574.587 562.681 576.059 563.316 577.217 564.362C578.375 565.408 579.154 566.808 579.435 568.345C604.911 566.866 630.223 563.219 655.095 557.443C681.752 551.248 707.725 542.38 732.618 530.974C732.582 530.08 732.722 529.187 733.03 528.346C733.464 527.129 734.221 526.052 735.22 525.23C736.218 524.408 737.421 523.872 738.698 523.68C739.976 523.487 741.28 523.646 742.472 524.138C743.663 524.631 744.697 525.439 745.462 526.475C746.227 527.512 746.694 528.738 746.814 530.023C746.934 531.307 746.702 532.601 746.142 533.766C745.582 534.931 744.716 535.923 743.637 536.636C742.558 537.349 741.307 537.756 740.016 537.813L737.822 544.073C717.207 601.922 680.023 652.489 630.911 689.461C631.253 690.833 631.187 692.276 630.72 693.614C630.08 695.387 628.763 696.838 627.058 697.646C625.353 698.455 623.4 698.556 621.626 697.927C621.109 697.758 620.617 697.52 620.164 697.219C572.747 729.928 517.331 749.088 459.916 752.626L459.907 752.661C459.426 754.004 458.554 755.173 457.403 756.017C456.252 756.86 454.875 757.34 453.451 757.393C452.026 757.446 450.621 757.071 449.416 756.315C448.211 755.56 447.263 754.459 446.694 753.155C409.047 753.829 371.614 747.714 336.19 735.106C300.744 722.574 267.868 703.764 239.132 679.573C237.862 680.221 236.429 680.474 235.017 680.3C233.605 680.126 232.279 679.533 231.211 678.597C230.143 677.661 229.381 676.426 229.024 675.05C228.667 673.675 228.731 672.222 229.209 670.88L229.218 670.845C187.001 631.982 156.268 582.28 140.344 527.117C139.805 527.058 139.276 526.935 138.767 526.75C137.553 526.321 136.48 525.569 135.663 524.575C134.846 523.581 134.316 522.383 134.13 521.109C133.944 519.834 134.108 518.532 134.605 517.341C135.103 516.151 135.914 515.116 136.953 514.349C122.435 454.812 125.791 392.252 146.603 334.469L148.895 328.259C147.932 327.403 147.221 326.3 146.839 325.069C146.457 323.837 146.417 322.524 146.725 321.269C147.032 320.014 147.675 318.866 148.585 317.946C149.494 317.026 150.636 316.37 151.888 316.047C153.14 315.725 154.454 315.749 155.691 316.116C156.928 316.484 158.04 317.181 158.908 318.133C159.776 319.085 160.368 320.256 160.62 321.521C160.872 322.785 160.775 324.096 160.339 325.313C160.028 326.158 159.564 326.939 158.969 327.616C170.982 352.11 185.45 375.315 202.152 396.878C217.74 417.016 235.03 435.776 253.833 452.953C255.027 451.932 256.523 451.334 258.089 451.249C259.655 451.164 261.203 451.598 262.492 452.483C263.782 453.368 264.742 454.655 265.223 456.145C265.703 457.634 265.678 459.242 265.15 460.72C265.005 461.137 264.819 461.539 264.596 461.921L265.957 463.67C269.628 466.839 273.459 469.819 277.434 472.599C281.311 475.304 285.375 477.761 290.622 480.726C318.643 496.619 341.763 508.523 361.707 518.436C362.767 517.497 364.082 516.894 365.484 516.705C366.886 516.516 368.311 516.749 369.576 517.375C370.842 518.001 371.89 518.991 372.587 520.217C373.283 521.444 373.597 522.853 373.487 524.262L381.54 528.211C390.229 532.477 398.325 536.445 405.997 540.338L405.998 540.326ZM401.461 552.977L422.164 576.935L440.874 555.595C440.544 554.944 440.323 554.243 440.219 553.521L431.463 551.523C421.787 549.28 412.8 547.241 404.177 545.4C396.34 541.405 388.066 537.345 379.169 532.958L371.099 528.995C370.562 529.485 369.951 529.885 369.288 530.181L370.194 558.47L401.461 552.977ZM394.592 572.139L399.849 601.153L400.716 601.389L418.614 580.987L399.397 558.745L370.354 563.883L371.238 590.946L372.105 591.314L394.592 572.139ZM377.69 619.331L391.445 609.721C391.144 608.401 391.227 607.02 391.685 605.743C392.216 604.244 393.242 602.97 394.594 602.13L390.999 582.208L375.559 595.368C376.049 596.877 376.027 598.507 375.498 600.006C375.039 601.28 374.224 602.396 373.149 603.22L377.69 619.331Z" fill="url(#paint0_linear_2244_10093)"/>
<path fill-rule="evenodd" clip-rule="evenodd" d="M540.536 165C404.536 116.784 256.209 175.431 187.378 297.197C185.953 295.322 184.372 293.57 182.652 291.96C253.548 168.714 404.413 109.594 542.783 158.645C681.153 207.697 760.43 348.374 736.977 488.436C734.626 488.607 732.292 488.969 729.998 489.52C754.099 351.885 676.508 213.189 540.531 164.981L540.536 165ZM535.993 177.684C403.224 130.605 258.147 190.313 194.64 312.077C193.874 309.202 192.808 306.418 191.458 303.769C257.906 182.593 404.187 123.818 538.251 171.342C672.315 218.867 748.224 356.407 722.625 492.027C719.91 493.24 717.326 494.729 714.913 496.469C743.118 362.225 668.742 224.752 535.984 177.686L535.993 177.684ZM531.458 190.384C400.652 143.995 257.298 206.499 200.458 330.705C199.093 328.285 197.733 325.838 196.438 323.402C256.081 199.066 401.172 137.065 533.703 184.053C666.234 231.041 739.165 370.279 706.311 504.094C703.741 505.175 701.141 506.215 698.556 507.247C733.498 375.32 662.227 236.754 531.438 190.373L531.458 190.384ZM526.923 203.083C399.761 158.017 260.073 221.309 208.959 344.929C207.491 342.596 206.063 340.257 204.65 337.905C258.632 213.958 400.173 151.019 529.191 196.727C658.21 242.436 727.767 380.239 690.782 510.189C688.175 511.13 685.585 512.057 683.007 512.934C721.966 385.018 654.028 248.148 526.899 203.054L526.923 203.083ZM522.372 215.797C399.082 172.08 263.359 236.028 218.024 358.712C216.472 356.451 214.939 354.173 213.427 351.878C261.668 228.69 399.397 165.053 524.663 209.455C649.928 253.856 716.11 389.777 675.154 515.535C672.524 516.357 669.869 517.15 667.24 517.921C710.083 394.362 645.636 259.463 522.325 215.754L522.372 215.797ZM517.853 228.483C400.797 187.001 271.866 248.307 229.876 365.477C229.094 367.663 228.348 369.843 227.638 372.017C225.988 369.839 224.36 367.642 222.754 365.427L223.532 363.218C266.78 242.569 399.57 179.419 520.118 222.162C640.666 264.906 703.361 397.354 660.109 517.985L659.329 520.14C656.669 520.855 654.014 521.544 651.34 522.215C652.182 520.062 652.976 517.922 653.772 515.753C695.707 398.531 634.841 269.949 517.806 228.44L517.853 228.483ZM513.302 241.196C403.257 202.197 282.042 259.841 242.577 369.978C240.799 374.934 239.216 379.916 237.826 384.922C236.083 382.796 234.373 380.674 232.677 378.53C233.77 374.915 234.942 371.315 236.239 367.713C276.976 254.086 402.042 194.597 515.602 234.846C629.162 275.094 688.201 399.858 647.452 513.502C646.186 517.076 644.826 520.602 643.371 524.08C640.688 524.703 637.999 525.261 635.297 525.796C637.409 521.043 639.353 516.212 641.128 511.253C680.524 401.054 623.294 280.146 513.229 241.13L513.302 241.196ZM508.783 253.882C405.73 217.369 292.231 271.358 255.271 374.479C252.578 381.988 250.334 389.649 248.55 397.421C246.714 395.374 244.911 393.299 243.134 391.229C244.748 384.863 246.676 378.53 248.918 372.228C287.142 265.595 404.509 209.781 511.054 247.556C617.6 285.331 673.006 402.386 634.792 509.016C632.524 515.318 630.001 521.425 627.221 527.337C624.494 527.844 621.794 528.322 619.071 528.742C622.617 521.604 625.747 514.268 628.444 506.771C665.331 403.558 611.753 290.343 508.703 253.801L508.783 253.882ZM504.232 266.595C408.203 232.542 302.401 282.864 267.959 378.985C264.387 388.925 261.672 399.149 259.844 409.546C257.915 407.551 256.014 405.558 254.126 403.527C255.981 394.428 258.48 385.469 261.604 376.719C297.297 277.119 406.97 224.947 506.512 260.24C606.053 295.534 657.829 404.882 622.105 504.537C618.977 513.271 615.229 521.772 610.888 529.976C608.152 530.347 605.391 530.689 602.63 531.031C607.82 521.838 612.218 512.223 615.778 502.291C650.146 406.078 600.196 300.554 504.141 266.501L504.232 266.595ZM545.17 152.41C403.991 102.359 250.14 162.378 177.439 287.833C175.571 286.583 173.608 285.481 171.567 284.537C245.865 156.308 403.118 94.9 547.441 146.045C691.765 197.19 774.497 343.699 750.491 489.77C748.319 489.208 746.105 488.823 743.87 488.62C767.221 345.66 686.26 202.364 545.079 152.316L545.17 152.41Z" fill="url(#paint1_linear_2244_10093)"/>
</g>
<defs>
<linearGradient id="paint0_linear_2244_10093" x1="18.4667" y1="428.578" x2="531.073" y2="133.863" gradientUnits="userSpaceOnUse">
<stop stop-color="#E69E2F"/>
<stop offset="1" stop-color="#EAAD4E"/>
</linearGradient>
<linearGradient id="paint1_linear_2244_10093" x1="148.797" y1="280.312" x2="599.875" y2="16.9552" gradientUnits="userSpaceOnUse">
<stop stop-color="#E69E2F"/>
<stop offset="1" stop-color="#EAAD4E"/>
</linearGradient>
</defs>
</svg>
