<svg width="373" height="337" viewBox="0 0 373 337" fill="none" xmlns="http://www.w3.org/2000/svg">
<g opacity="0.15">
<path d="M171.566 123.478C169.819 123.481 168.11 122.965 166.656 121.996C165.201 121.027 164.067 119.648 163.397 118.034C162.727 116.421 162.551 114.644 162.891 112.93C163.231 111.216 164.073 109.642 165.308 108.406C166.544 107.17 168.118 106.329 169.832 105.989C171.546 105.649 173.323 105.825 174.937 106.495C176.551 107.165 177.929 108.299 178.898 109.753C179.867 111.208 180.383 112.917 180.38 114.664C180.38 117.002 179.451 119.243 177.798 120.896C176.146 122.549 173.904 123.478 171.566 123.478ZM171.566 109.3C170.505 109.297 169.466 109.609 168.582 110.197C167.698 110.784 167.008 111.621 166.6 112.601C166.191 113.581 166.083 114.66 166.288 115.701C166.494 116.743 167.003 117.7 167.753 118.452C168.502 119.203 169.458 119.716 170.499 119.924C171.54 120.132 172.619 120.027 173.6 119.621C174.581 119.216 175.42 118.528 176.01 117.646C176.6 116.763 176.915 115.726 176.915 114.664C176.911 113.245 176.347 111.885 175.345 110.881C174.343 109.876 172.985 109.308 171.566 109.3Z" fill="#EAAD4E"/>
<path d="M102.562 79.5317C100.669 79.5317 98.8182 78.9703 97.2439 77.9183C95.6695 76.8664 94.4425 75.3713 93.7179 73.622C92.9933 71.8727 92.8037 69.9478 93.1731 68.0908C93.5425 66.2337 94.4542 64.528 95.7931 63.1891C97.1319 61.8503 98.8378 60.9385 100.695 60.5691C102.552 60.1997 104.477 60.3893 106.226 61.1138C107.975 61.8384 109.47 63.0655 110.522 64.6398C111.574 66.2141 112.136 68.065 112.136 69.9584C112.136 72.4974 111.127 74.9324 109.332 76.7278C107.536 78.5231 105.101 79.5317 102.562 79.5317ZM102.562 63.865C101.36 63.865 100.185 64.2215 99.1855 64.8893C98.1859 65.5572 97.4069 66.5065 96.9469 67.6172C96.4868 68.7278 96.3665 69.95 96.601 71.1291C96.8356 72.3081 97.4144 73.3912 98.2644 74.2412C99.1145 75.0913 100.198 75.6702 101.377 75.9047C102.556 76.1392 103.778 76.0189 104.889 75.5588C105.999 75.0988 106.949 74.3197 107.616 73.3202C108.284 72.3206 108.641 71.1454 108.641 69.9432C108.649 69.1399 108.497 68.343 108.196 67.5985C107.894 66.854 107.447 66.1768 106.882 65.6059C106.317 65.035 105.644 64.5818 104.903 64.2726C104.161 63.9633 103.366 63.8041 102.562 63.8042V63.865Z" fill="#EAAD4E"/>
<path d="M200.225 70.5203C198.848 70.5233 197.501 70.1177 196.355 69.3548C195.208 68.5919 194.314 67.506 193.785 66.2345C193.255 64.9631 193.115 63.5632 193.382 62.2122C193.649 60.8612 194.311 59.6197 195.283 58.6448C196.256 57.67 197.496 57.0056 198.847 56.7359C200.197 56.4661 201.597 56.603 202.87 57.1293C204.142 57.6556 205.23 58.5477 205.996 59.6925C206.761 60.8373 207.17 62.1835 207.17 63.5606C207.166 65.4026 206.433 67.1682 205.132 68.472C203.831 69.7759 202.067 70.5123 200.225 70.5203ZM200.225 60.0656C199.533 60.0626 198.856 60.265 198.279 60.6472C197.703 61.0294 197.252 61.5742 196.985 62.2126C196.719 62.8509 196.647 63.5542 196.78 64.2331C196.913 64.9121 197.245 65.5362 197.733 66.0265C198.221 66.5168 198.844 66.8513 199.523 66.9873C200.201 67.1234 200.904 67.0551 201.544 66.791C202.184 66.527 202.73 66.079 203.115 65.5039C203.5 64.9289 203.705 64.2525 203.705 63.5606C203.705 62.6363 203.339 61.7497 202.687 61.0947C202.035 60.4396 201.15 60.0696 200.225 60.0656Z" fill="#EAAD4E"/>
<path d="M242.059 326.736C240.316 326.736 238.612 326.219 237.162 325.25C235.713 324.282 234.583 322.905 233.916 321.295C233.249 319.684 233.075 317.912 233.415 316.203C233.755 314.493 234.594 312.923 235.827 311.69C237.059 310.457 238.63 309.618 240.34 309.278C242.049 308.938 243.821 309.112 245.432 309.779C247.042 310.447 248.419 311.576 249.387 313.026C250.356 314.475 250.873 316.179 250.873 317.922C250.869 320.258 249.939 322.498 248.287 324.15C246.635 325.802 244.395 326.732 242.059 326.736ZM242.059 312.573C241.001 312.573 239.967 312.887 239.087 313.475C238.208 314.062 237.522 314.898 237.117 315.875C236.712 316.853 236.607 317.928 236.813 318.966C237.019 320.003 237.529 320.956 238.277 321.704C239.025 322.452 239.978 322.962 241.015 323.168C242.053 323.375 243.129 323.269 244.106 322.864C245.083 322.459 245.919 321.773 246.506 320.894C247.094 320.014 247.408 318.98 247.408 317.922C247.404 316.505 246.839 315.147 245.837 314.144C244.835 313.142 243.476 312.577 242.059 312.573Z" fill="#EAAD4E"/>
<path d="M346.104 186.509C343.769 186.509 341.486 185.817 339.544 184.52C337.603 183.222 336.089 181.378 335.196 179.221C334.302 177.063 334.068 174.689 334.524 172.399C334.979 170.109 336.104 168.005 337.755 166.354C339.407 164.702 341.51 163.578 343.801 163.122C346.091 162.667 348.465 162.9 350.622 163.794C352.78 164.688 354.624 166.201 355.921 168.143C357.219 170.084 357.911 172.367 357.911 174.702C357.907 177.833 356.662 180.833 354.448 183.047C352.235 185.26 349.234 186.505 346.104 186.509ZM346.104 166.36C344.454 166.36 342.841 166.849 341.469 167.766C340.097 168.683 339.028 169.985 338.397 171.51C337.765 173.034 337.6 174.712 337.922 176.33C338.244 177.948 339.038 179.435 340.205 180.601C341.372 181.768 342.858 182.563 344.477 182.885C346.095 183.206 347.772 183.041 349.297 182.41C350.821 181.778 352.124 180.709 353.041 179.337C353.957 177.965 354.447 176.352 354.447 174.702C354.442 172.491 353.562 170.371 351.999 168.808C350.435 167.244 348.315 166.364 346.104 166.36Z" fill="#EAAD4E"/>
<path d="M281.218 133.917C279.029 133.92 276.888 133.274 275.067 132.059C273.245 130.845 271.825 129.117 270.986 127.095C270.147 125.073 269.926 122.848 270.353 120.7C270.779 118.553 271.833 116.58 273.381 115.032C274.929 113.484 276.901 112.43 279.049 112.004C281.196 111.578 283.422 111.798 285.444 112.637C287.466 113.476 289.193 114.897 290.408 116.718C291.622 118.54 292.269 120.681 292.266 122.87C292.258 125.797 291.091 128.603 289.021 130.673C286.951 132.743 284.146 133.909 281.218 133.917ZM281.218 115.272C279.716 115.272 278.247 115.718 276.997 116.553C275.748 117.387 274.774 118.574 274.199 119.962C273.624 121.351 273.473 122.878 273.767 124.352C274.06 125.826 274.783 127.18 275.846 128.242C276.908 129.305 278.262 130.029 279.736 130.322C281.21 130.615 282.738 130.465 284.126 129.889C285.514 129.314 286.701 128.341 287.536 127.091C288.371 125.842 288.816 124.373 288.816 122.87C288.816 120.855 288.016 118.922 286.591 117.497C285.166 116.073 283.233 115.272 281.218 115.272Z" fill="#EAAD4E"/>
<path d="M105.556 215.229C102.48 215.232 99.4726 214.323 96.9139 212.616C94.3551 210.909 92.3603 208.481 91.1818 205.64C90.0034 202.799 89.6942 199.672 90.2936 196.655C90.8929 193.638 92.3738 190.867 94.5487 188.692C96.7237 186.517 99.4949 185.036 102.512 184.437C105.529 183.837 108.656 184.147 111.497 185.325C114.338 186.504 116.766 188.498 118.472 191.057C120.179 193.616 121.089 196.623 121.086 199.699C121.082 203.817 119.445 207.765 116.533 210.676C113.621 213.588 109.674 215.225 105.556 215.229ZM105.556 187.619C103.166 187.616 100.829 188.322 98.8403 189.647C96.8517 190.973 95.3009 192.859 94.3842 195.066C93.4675 197.273 93.2261 199.702 93.6905 202.047C94.1549 204.391 95.3043 206.545 96.9932 208.236C98.6821 209.927 100.835 211.079 103.178 211.547C105.522 212.014 107.952 211.776 110.16 210.862C112.369 209.948 114.256 208.399 115.584 206.412C116.913 204.426 117.621 202.089 117.621 199.699C117.602 196.504 116.325 193.445 114.067 191.184C111.809 188.923 108.751 187.643 105.556 187.619Z" fill="#EAAD4E"/>
<path d="M51.0946 93.2078C49.4944 93.2108 47.9294 92.7388 46.5977 91.8517C45.2659 90.9645 44.2274 89.7021 43.6136 88.2243C42.9999 86.7465 42.8385 85.1199 43.15 83.5503C43.4614 81.9807 44.2316 80.5389 45.3631 79.4074C46.4946 78.2759 47.9364 77.5056 49.506 77.1941C51.0756 76.8827 52.7023 77.0441 54.1801 77.6578C55.6579 78.2716 56.9203 79.3101 57.8075 80.6419C58.6946 81.9736 59.1665 83.5387 59.1635 85.1389C59.1635 87.2789 58.3134 89.3312 56.8002 90.8445C55.287 92.3577 53.2346 93.2078 51.0946 93.2078ZM51.0946 80.5194C50.193 80.5194 49.3116 80.7867 48.562 81.2876C47.8123 81.7886 47.228 82.5006 46.883 83.3335C46.5379 84.1665 46.4476 85.0831 46.6235 85.9674C46.7994 86.8517 47.2336 87.6641 47.8712 88.3016C48.5087 88.9391 49.3209 89.3733 50.2052 89.5492C51.0896 89.7251 52.0062 89.6348 52.8392 89.2898C53.6722 88.9447 54.3842 88.3604 54.8851 87.6108C55.386 86.8611 55.6533 85.9797 55.6533 85.0781C55.6373 83.8796 55.15 82.7357 54.2968 81.8938C53.4436 81.052 52.2932 80.5801 51.0946 80.5802V80.5194Z" fill="#EAAD4E"/>
<path d="M215.573 238.159C213.091 238.159 210.664 237.423 208.6 236.044C206.536 234.665 204.927 232.704 203.977 230.411C203.027 228.117 202.778 225.594 203.263 223.159C203.747 220.724 204.942 218.488 206.698 216.732C208.453 214.977 210.69 213.781 213.124 213.297C215.559 212.813 218.083 213.061 220.376 214.011C222.67 214.961 224.63 216.57 226.009 218.634C227.389 220.698 228.125 223.125 228.125 225.608C228.121 228.935 226.797 232.125 224.444 234.478C222.091 236.831 218.901 238.155 215.573 238.159ZM215.573 216.536C213.77 216.536 212.007 217.07 210.508 218.072C209.008 219.074 207.84 220.498 207.15 222.164C206.46 223.83 206.279 225.663 206.631 227.432C206.983 229.2 207.851 230.825 209.126 232.1C210.401 233.375 212.026 234.244 213.794 234.595C215.563 234.947 217.396 234.767 219.062 234.077C220.728 233.386 222.152 232.218 223.154 230.719C224.156 229.219 224.691 227.456 224.691 225.653C224.691 223.235 223.73 220.916 222.02 219.206C220.31 217.496 217.991 216.536 215.573 216.536Z" fill="#EAAD4E"/>
<path d="M346.104 258.491C344.95 258.491 343.822 258.149 342.862 257.508C341.903 256.867 341.155 255.955 340.713 254.889C340.271 253.823 340.156 252.65 340.381 251.518C340.606 250.386 341.162 249.346 341.978 248.53C342.794 247.714 343.834 247.158 344.966 246.933C346.097 246.708 347.271 246.824 348.337 247.265C349.403 247.707 350.315 248.455 350.956 249.414C351.597 250.374 351.939 251.502 351.939 252.656C351.935 254.203 351.319 255.684 350.226 256.778C349.132 257.871 347.65 258.487 346.104 258.491ZM346.104 250.286C345.635 250.286 345.177 250.425 344.787 250.685C344.397 250.946 344.093 251.316 343.914 251.749C343.735 252.182 343.688 252.659 343.779 253.119C343.87 253.578 344.096 254.001 344.428 254.332C344.759 254.664 345.182 254.89 345.642 254.981C346.101 255.073 346.578 255.026 347.011 254.846C347.444 254.667 347.815 254.363 348.075 253.973C348.336 253.583 348.474 253.125 348.474 252.656C348.474 252.028 348.225 251.425 347.78 250.98C347.336 250.535 346.733 250.286 346.104 250.286Z" fill="#EAAD4E"/>
<path d="M144.001 139.144C143.066 139.147 142.151 138.873 141.372 138.355C140.593 137.838 139.984 137.101 139.624 136.237C139.264 135.374 139.169 134.423 139.349 133.506C139.53 132.588 139.979 131.745 140.639 131.082C141.299 130.42 142.141 129.968 143.059 129.784C143.976 129.601 144.927 129.694 145.791 130.051C146.656 130.408 147.395 131.014 147.915 131.791C148.435 132.569 148.712 133.483 148.712 134.418C148.708 135.668 148.211 136.865 147.329 137.75C146.447 138.635 145.251 139.136 144.001 139.144ZM144.001 133.172C143.751 133.169 143.505 133.241 143.295 133.379C143.085 133.516 142.921 133.713 142.824 133.944C142.727 134.175 142.7 134.43 142.749 134.676C142.797 134.922 142.917 135.148 143.094 135.325C143.272 135.503 143.498 135.623 143.744 135.671C143.99 135.719 144.245 135.693 144.476 135.596C144.707 135.498 144.904 135.334 145.041 135.125C145.179 134.915 145.25 134.669 145.247 134.418C145.243 134.089 145.111 133.774 144.878 133.542C144.645 133.309 144.331 133.176 144.001 133.172Z" fill="#EAAD4E"/>
<path d="M112.257 133.172C110.809 133.169 109.395 132.737 108.192 131.93C106.99 131.124 106.054 129.979 105.501 128.64C104.949 127.302 104.807 125.829 105.091 124.41C105.375 122.99 106.074 121.686 107.099 120.663C108.124 119.641 109.429 118.945 110.849 118.663C112.27 118.382 113.742 118.528 115.079 119.082C116.416 119.637 117.559 120.576 118.364 121.78C119.168 122.984 119.597 124.4 119.597 125.848C119.593 127.792 118.818 129.655 117.442 131.028C116.066 132.401 114.201 133.172 112.257 133.172ZM112.257 121.988C111.495 121.991 110.75 122.22 110.117 122.646C109.485 123.072 108.992 123.676 108.702 124.381C108.413 125.087 108.338 125.862 108.489 126.61C108.64 127.358 109.008 128.044 109.549 128.582C110.089 129.121 110.777 129.487 111.525 129.634C112.273 129.782 113.049 129.705 113.753 129.412C114.458 129.12 115.059 128.625 115.483 127.991C115.906 127.356 116.132 126.611 116.132 125.848C116.132 125.34 116.032 124.837 115.837 124.367C115.642 123.898 115.357 123.472 114.996 123.113C114.636 122.755 114.209 122.471 113.739 122.278C113.269 122.084 112.766 121.986 112.257 121.988Z" fill="#EAAD4E"/>
<path d="M251.754 192.466C250.453 192.466 249.181 192.08 248.098 191.357C247.016 190.634 246.173 189.606 245.675 188.404C245.177 187.202 245.047 185.879 245.301 184.603C245.555 183.326 246.181 182.154 247.101 181.234C248.022 180.313 249.194 179.687 250.47 179.433C251.747 179.179 253.07 179.309 254.272 179.807C255.474 180.305 256.502 181.149 257.225 182.231C257.948 183.313 258.334 184.585 258.334 185.886C258.334 186.75 258.164 187.606 257.833 188.404C257.502 189.202 257.018 189.928 256.407 190.539C255.796 191.15 255.07 191.634 254.272 191.965C253.474 192.296 252.618 192.466 251.754 192.466ZM251.754 182.771C251.137 182.78 250.536 182.971 250.027 183.321C249.519 183.67 249.125 184.162 248.895 184.735C248.665 185.307 248.609 185.935 248.735 186.539C248.861 187.144 249.163 187.697 249.602 188.13C250.042 188.564 250.599 188.857 251.205 188.974C251.811 189.092 252.438 189.027 253.008 188.789C253.577 188.551 254.063 188.149 254.405 187.636C254.747 187.122 254.93 186.519 254.93 185.901C254.932 185.486 254.851 185.074 254.692 184.69C254.532 184.307 254.298 183.959 254.002 183.667C253.706 183.375 253.354 183.146 252.968 182.992C252.582 182.838 252.169 182.763 251.754 182.771Z" fill="#EAAD4E"/>
<path d="M155.899 225.289C154.745 225.289 153.617 224.946 152.658 224.305C151.698 223.664 150.95 222.753 150.508 221.687C150.067 220.62 149.951 219.447 150.176 218.315C150.402 217.183 150.957 216.144 151.773 215.327C152.589 214.511 153.629 213.956 154.761 213.73C155.893 213.505 157.066 213.621 158.132 214.063C159.199 214.504 160.11 215.252 160.751 216.212C161.392 217.171 161.735 218.299 161.735 219.453C161.735 221.001 161.12 222.485 160.026 223.58C158.931 224.674 157.447 225.289 155.899 225.289ZM155.899 217.083C155.431 217.083 154.972 217.222 154.582 217.482C154.193 217.743 153.889 218.113 153.709 218.546C153.53 218.979 153.483 219.456 153.574 219.916C153.666 220.376 153.892 220.798 154.223 221.13C154.555 221.461 154.977 221.687 155.437 221.778C155.897 221.87 156.373 221.823 156.807 221.644C157.24 221.464 157.61 221.16 157.87 220.77C158.131 220.381 158.27 219.922 158.27 219.453C158.27 218.825 158.02 218.222 157.576 217.777C157.131 217.333 156.528 217.083 155.899 217.083Z" fill="#EAAD4E"/>
<path d="M184.239 36.9837C182.863 36.9837 181.517 36.5755 180.373 35.8107C179.228 35.046 178.336 33.9591 177.809 32.6874C177.283 31.4157 177.145 30.0163 177.413 28.6663C177.682 27.3162 178.345 26.0762 179.318 25.1028C180.291 24.1295 181.532 23.4667 182.882 23.1981C184.232 22.9296 185.631 23.0674 186.903 23.5942C188.174 24.1209 189.261 25.013 190.026 26.1575C190.791 27.302 191.199 28.6476 191.199 30.024C191.199 31.8699 190.466 33.64 189.161 34.9452C187.855 36.2504 186.085 36.9837 184.239 36.9837ZM184.239 26.5442C183.547 26.5442 182.871 26.7496 182.296 27.1343C181.721 27.519 181.273 28.0658 181.009 28.7053C180.745 29.3448 180.677 30.0483 180.813 30.7266C180.949 31.405 181.283 32.0278 181.773 32.5159C182.264 33.0041 182.888 33.3358 183.567 33.4689C184.246 33.602 184.949 33.5307 185.587 33.2638C186.226 32.9969 186.771 32.5466 187.153 31.9699C187.535 31.3931 187.737 30.7159 187.734 30.024C187.738 29.5632 187.651 29.1062 187.477 28.6795C187.303 28.2528 187.046 27.8649 186.721 27.5383C186.395 27.2118 186.009 26.9531 185.583 26.7772C185.157 26.6013 184.7 26.5118 184.239 26.5138V26.5442Z" fill="#EAAD4E"/>
<path d="M142.102 32.1057C140.28 32.1207 138.495 31.5944 136.973 30.5934C135.452 29.5924 134.261 28.1619 133.554 26.4834C132.846 24.8049 132.654 22.954 133 21.1657C133.346 19.3774 134.215 17.7322 135.498 16.4389C136.781 15.1456 138.419 14.2624 140.204 13.9015C141.989 13.5405 143.842 13.7181 145.526 14.4116C147.21 15.1052 148.651 16.2834 149.664 17.7969C150.678 19.3103 151.219 21.0907 151.219 22.9122C151.215 25.3362 150.256 27.6608 148.549 29.3819C146.842 31.103 144.525 32.0817 142.102 32.1057ZM142.102 17.1835C140.969 17.1835 139.861 17.5194 138.919 18.1489C137.977 18.7784 137.242 19.6731 136.809 20.7199C136.375 21.7667 136.262 22.9186 136.483 24.0299C136.704 25.1412 137.25 26.1619 138.051 26.9631C138.852 27.7643 139.873 28.3099 140.984 28.531C142.095 28.752 143.247 28.6386 144.294 28.205C145.341 27.7714 146.235 27.0371 146.865 26.095C147.494 25.1529 147.83 24.0453 147.83 22.9122C147.818 21.4008 147.209 19.9553 146.136 18.8908C145.063 17.8263 143.613 17.229 142.102 17.2291V17.1835Z" fill="#EAAD4E"/>
<path d="M224.903 201.933C224.903 201.196 225.121 200.477 225.531 199.864C225.94 199.252 226.521 198.775 227.201 198.493C227.882 198.211 228.63 198.138 229.352 198.281C230.075 198.425 230.738 198.78 231.259 199.3C231.779 199.821 232.134 200.484 232.277 201.206C232.421 201.929 232.347 202.677 232.066 203.357C231.784 204.038 231.307 204.619 230.694 205.028C230.082 205.437 229.362 205.656 228.626 205.656C227.639 205.656 226.692 205.263 225.994 204.565C225.295 203.867 224.903 202.92 224.903 201.933Z" fill="#EAAD4E"/>
<path d="M316.64 124.724C316.637 122.802 317.204 120.922 318.27 119.323C319.336 117.724 320.852 116.477 322.627 115.74C324.402 115.004 326.355 114.81 328.24 115.184C330.125 115.558 331.857 116.483 333.216 117.842C334.575 119.201 335.5 120.933 335.874 122.818C336.248 124.703 336.055 126.656 335.318 128.431C334.581 130.206 333.334 131.723 331.735 132.788C330.136 133.854 328.256 134.421 326.335 134.418C323.763 134.418 321.297 133.397 319.479 131.579C317.661 129.761 316.64 127.295 316.64 124.724Z" fill="#EAAD4E"/>
<path d="M214.449 269.478C214.449 268.444 214.755 267.434 215.33 266.574C215.904 265.715 216.72 265.045 217.676 264.649C218.631 264.253 219.682 264.15 220.696 264.351C221.71 264.553 222.641 265.051 223.372 265.782C224.103 266.513 224.601 267.445 224.803 268.459C225.005 269.473 224.901 270.524 224.505 271.479C224.11 272.434 223.44 273.25 222.58 273.825C221.721 274.399 220.71 274.706 219.676 274.706C218.989 274.708 218.308 274.574 217.673 274.312C217.038 274.05 216.461 273.665 215.975 273.179C215.49 272.693 215.104 272.116 214.842 271.481C214.581 270.846 214.447 270.165 214.449 269.478Z" fill="#EAAD4E"/>
<path d="M127.559 169.855C127.559 168.602 127.931 167.377 128.627 166.335C129.323 165.293 130.313 164.481 131.471 164.001C132.629 163.521 133.903 163.396 135.132 163.64C136.361 163.885 137.49 164.488 138.377 165.374C139.263 166.261 139.866 167.39 140.111 168.619C140.355 169.848 140.23 171.122 139.75 172.28C139.271 173.438 138.458 174.428 137.416 175.124C136.374 175.82 135.149 176.192 133.896 176.192C132.215 176.192 130.604 175.524 129.415 174.336C128.227 173.147 127.559 171.536 127.559 169.855Z" fill="#EAAD4E"/>
<path d="M122.332 90.412C122.332 89.306 122.66 88.2248 123.275 87.3052C123.889 86.3856 124.762 85.6689 125.784 85.2456C126.806 84.8224 127.93 84.7116 129.015 84.9274C130.1 85.1432 131.096 85.6758 131.878 86.4578C132.66 87.2399 133.193 88.2363 133.409 89.321C133.625 90.4058 133.514 91.5301 133.091 92.5519C132.667 93.5737 131.951 94.4471 131.031 95.0616C130.111 95.676 129.03 96.004 127.924 96.004C126.441 96.004 125.019 95.4148 123.97 94.3661C122.921 93.3174 122.332 91.8951 122.332 90.412Z" fill="#EAAD4E"/>
<path d="M55.8663 108.813C55.8813 107.93 56.1569 107.071 56.6584 106.344C57.16 105.617 57.8652 105.054 58.6855 104.726C59.5058 104.399 60.4047 104.321 61.2692 104.502C62.1337 104.684 62.9253 105.117 63.5446 105.746C64.164 106.376 64.5835 107.175 64.7504 108.042C64.9173 108.91 64.8242 109.807 64.4828 110.622C64.1414 111.437 63.5669 112.132 62.8314 112.622C62.096 113.111 61.2324 113.372 60.349 113.372C59.7533 113.374 59.1632 113.257 58.6134 113.028C58.0635 112.799 57.5651 112.462 57.1474 112.037C56.7297 111.612 56.4013 111.108 56.1813 110.555C55.9612 110.001 55.8541 109.409 55.8663 108.813Z" fill="#EAAD4E"/>
<path d="M246.271 29.3735C246.342 21.955 240.386 15.8834 232.967 15.8122C225.549 15.7409 219.477 21.6971 219.406 29.1156C219.335 36.5341 225.291 42.6057 232.709 42.6769C240.128 42.7481 246.2 36.792 246.271 29.3735Z" fill="#EAAD4E"/>
<path d="M229.75 84.8652C229.75 83.9636 230.018 83.0822 230.519 82.3325C231.02 81.5829 231.732 80.9986 232.565 80.6535C233.398 80.3085 234.314 80.2182 235.199 80.3941C236.083 80.57 236.895 81.0042 237.533 81.6417C238.17 82.2793 238.604 83.0916 238.78 83.9759C238.956 84.8602 238.866 85.7768 238.521 86.6098C238.176 87.4428 237.592 88.1547 236.842 88.6556C236.092 89.1565 235.211 89.4239 234.309 89.4239C233.1 89.4239 231.941 88.9436 231.086 88.0887C230.231 87.2338 229.75 86.0743 229.75 84.8652Z" fill="#EAAD4E"/>
<path d="M40.4882 65.8554C40.4852 64.6008 40.8547 63.3736 41.5498 62.3292C42.2449 61.2849 43.2344 60.4703 44.3929 59.9888C45.5514 59.5074 46.8267 59.3806 48.0573 59.6246C49.2879 59.8686 50.4183 60.4725 51.3054 61.3596C52.1925 62.2467 52.7964 63.3771 53.0404 64.6077C53.2844 65.8383 53.1576 67.1137 52.6762 68.2721C52.1947 69.4306 51.3801 70.4201 50.3358 71.1152C49.2914 71.8103 48.0642 72.1798 46.8096 72.1768C45.1343 72.1728 43.5288 71.5055 42.3442 70.3209C41.1596 69.1363 40.4923 67.5307 40.4882 65.8554Z" fill="#EAAD4E"/>
<path d="M299.484 244.83C304.427 244.83 308.434 240.823 308.434 235.88C308.434 230.937 304.427 226.93 299.484 226.93C294.541 226.93 290.533 230.937 290.533 235.88C290.533 240.823 294.541 244.83 299.484 244.83Z" fill="#EAAD4E"/>
<path d="M350.587 235.12C352.232 235.12 353.565 233.787 353.565 232.142C353.565 230.497 352.232 229.164 350.587 229.164C348.942 229.164 347.608 230.497 347.608 232.142C347.608 233.787 348.942 235.12 350.587 235.12Z" fill="#EAAD4E"/>
<path d="M241.254 179.048C238.035 179.048 234.888 178.094 232.212 176.305C229.536 174.517 227.45 171.975 226.218 169.002C224.986 166.028 224.664 162.756 225.292 159.599C225.92 156.442 227.47 153.542 229.746 151.266C232.022 148.99 234.922 147.44 238.079 146.812C241.236 146.184 244.508 146.506 247.482 147.738C250.456 148.97 252.997 151.056 254.786 153.732C256.574 156.408 257.528 159.555 257.528 162.774C257.52 167.087 255.803 171.222 252.753 174.273C249.702 177.323 245.568 179.04 241.254 179.048ZM241.254 149.948C238.717 149.945 236.235 150.695 234.124 152.103C232.013 153.51 230.367 155.512 229.394 157.855C228.421 160.198 228.165 162.778 228.658 165.266C229.151 167.755 230.371 170.042 232.164 171.837C233.957 173.632 236.243 174.855 238.731 175.351C241.219 175.847 243.799 175.594 246.143 174.624C248.487 173.654 250.491 172.01 251.901 169.901C253.311 167.791 254.064 165.311 254.064 162.774C254.06 159.376 252.709 156.119 250.308 153.715C247.907 151.311 244.651 149.956 241.254 149.948Z" fill="#EAAD4E"/>
<path d="M50.6236 82.5709C50.6307 82.6295 50.6526 82.6852 50.6872 82.7331C50.7217 82.7809 50.7678 82.8192 50.8211 82.8444C53.4348 83.7562 83.036 93.7701 104.584 88.7859C127.164 83.5586 127.377 58.5617 138.728 45.4022C166.977 12.4579 198.447 12.8074 223.824 31.1334C249.201 49.4595 264.503 72.8456 238.093 101.657C210.649 131.562 166.886 117.703 138.166 161.513C125.645 180.598 142.998 202.632 166.46 205.352C187.734 207.829 197.399 205.595 227.532 181.814C253.152 161.589 258.911 112.522 308.069 118.934C387.087 129.252 399.046 239.922 341.393 256.167C298.253 268.323 190.758 233.981 225.009 292.636C249.551 334.698 245.66 330.337 245.949 336.096C245.953 336.159 245.939 336.223 245.907 336.277C245.875 336.332 245.827 336.376 245.77 336.404C245.713 336.432 245.649 336.442 245.586 336.433C245.523 336.424 245.464 336.397 245.417 336.354C241.846 333.194 222.548 315.612 209.039 292.925C194.101 267.837 194.39 246.502 226.134 238.874C257.376 231.367 309.118 248.721 336.895 227.401C361.664 208.407 351.97 144.858 307.218 153.125C286.628 156.923 281.158 183.516 259.61 200.687C233.124 221.84 214.616 229.073 186.671 237.157C154.243 246.593 96.621 235.88 98.1558 179.413C98.87 153.58 112.257 135.239 126.541 122.991C139.661 111.876 155.371 104.245 172.22 100.806C186.412 97.7666 209.403 90.2751 205.893 72.952C205.284 70.1193 204.095 67.4435 202.4 65.0934C200.705 62.7434 198.541 60.7702 196.045 59.2981C193.549 57.8261 190.776 56.8872 187.899 56.5408C185.022 56.1944 182.105 56.4478 179.331 57.2852C169.971 60.1572 157.905 68.7884 144.624 90.4271C139.248 99.2198 131.519 106.332 122.31 110.959C113.102 115.587 102.782 117.544 92.5181 116.609C80.1184 115.454 64.6948 111.64 45.7002 103.359C45.6522 103.329 45.597 103.313 45.5406 103.313C45.4843 103.313 45.429 103.329 45.381 103.359C44.1806 104.362 38.9837 117.323 17.4362 96.9309C-0.236413 80.2156 4.97568 72.6177 13.0294 71.5084C29.7599 69.1835 49.7878 68.1502 50.6236 82.5709Z" fill="#EAAD4E"/>
<path d="M241.77 321.417C241.272 321.413 240.792 321.23 240.418 320.9C236.695 317.588 217.29 299.869 203.69 277.076C194.284 261.272 191.625 248.204 195.773 238.388C199.405 229.787 208.188 223.754 221.864 220.457C234.249 217.418 249.414 218.314 265.461 219.195C290.062 220.548 315.5 221.946 331.987 209.303C344.661 199.563 348.49 175.872 340.345 157.546C333.492 142.138 320.135 135.057 303.678 138.081C292.463 140.163 285.853 149.63 278.195 160.586C272.527 168.7 266.114 177.894 256.829 185.309C230.997 205.945 212.549 213.619 183.358 222.113C164.044 227.735 133.987 226.672 113.61 210.883C99.3259 199.851 92.0776 183.197 92.6246 162.683C93.2324 140.36 102.988 120.955 121.618 104.939C134.966 93.6514 150.933 85.8927 168.056 82.3733C181.504 79.5469 203.599 72.4353 200.377 56.5406C199.842 53.9622 198.774 51.5242 197.24 49.3834C195.707 47.2427 193.742 45.4466 191.473 44.1106C189.17 42.7372 186.607 41.8577 183.947 41.5281C181.286 41.1985 178.587 41.4259 176.019 42.1959C164.698 45.6605 153.347 56.5558 142.284 74.5931C137.161 82.89 130.007 89.7442 121.499 94.5087C112.991 99.2732 103.409 101.791 93.6579 101.824C91.9408 101.824 90.2389 101.824 88.5217 101.581C74.7088 100.304 59.1333 95.9431 42.1748 88.6339C41.3101 89.9324 40.1704 91.0248 38.8363 91.8336C37.5023 92.6425 36.0066 93.1479 34.4554 93.3143C28.6962 93.8613 21.2656 89.88 12.4065 81.4768C2.68127 72.2682 -1.36082 64.7615 0.401877 59.2455C1.43518 55.9632 4.5503 53.7294 8.94185 53.0912C21.2504 51.3133 36.3701 50.0521 43.892 56.1304C45.1805 57.1702 46.2477 58.4575 47.0306 59.9164C47.8136 61.3753 48.2964 62.9762 48.4507 64.6248C54.2858 66.5698 80.7263 74.7603 100.39 70.2168C114.354 66.9801 119.384 55.4465 124.247 44.2929C126.861 38.3058 129.55 32.1363 133.592 27.3953C159.744 -3.10249 191.609 -8.40582 221.028 12.8378C238.914 25.7693 248.274 38.5185 249.627 51.8452C250.766 63.0444 246.025 74.5019 235.555 85.9291C223.186 99.4229 207.96 104.164 191.837 109.103C172.083 115.181 151.553 121.533 135.796 145.572C133.587 148.783 132.267 152.521 131.971 156.407C131.675 160.293 132.412 164.189 134.109 167.697C138.835 177.802 150.125 185.279 162.844 186.753C184.118 189.214 193.235 186.753 222.639 163.579C230.799 157.136 236.847 147.76 243.244 137.838C256.541 117.217 270.308 95.8823 304.422 100.335C324.392 102.69 342.682 112.663 355.48 128.173C366.934 142.239 373.769 159.496 375.052 177.59C377.346 209.09 362.804 233.966 338.005 240.956C323.28 245.104 301.353 243.995 280.155 242.825C252.802 241.305 224.508 239.877 217.852 250.863C214.737 255.969 216.333 264.068 222.685 274.903C244.232 311.828 244.141 313.363 243.959 317.451C243.92 318.018 243.92 318.586 243.959 319.153C243.975 319.556 243.872 319.955 243.665 320.3C243.457 320.646 243.152 320.923 242.789 321.098C242.484 321.293 242.132 321.403 241.77 321.417ZM243.579 221.824C236.557 221.699 229.545 222.393 222.685 223.891C210.118 226.93 202.14 232.264 198.964 239.786C195.256 248.584 197.855 260.558 206.668 275.374C218.187 294.718 234.021 310.324 240.403 316.296C240.251 313.515 238.002 308.288 219.646 276.787C212.534 264.631 210.969 255.513 214.844 249.192C222.624 236.443 250.66 237.932 280.337 239.497C301.262 240.606 322.885 241.746 337.078 237.749C360.206 231.23 373.76 207.768 371.603 177.985C369.217 145.192 347.381 109.604 303.982 103.906C272.071 99.742 258.866 120.135 246.147 139.859C239.886 149.584 233.398 159.613 224.782 166.436C194.679 190.187 184.437 192.876 162.479 190.324C148.59 188.713 136.236 180.462 131.009 169.308C129.044 165.268 128.186 160.78 128.522 156.3C128.859 151.821 130.378 147.51 132.924 143.81C149.381 118.721 170.457 112.218 190.85 105.927C206.501 101.094 221.241 96.5206 233.033 83.7258C242.819 73.0888 247.256 62.4517 246.208 52.3466C244.962 40.0533 236.072 28.0335 219.022 15.7857C191.26 -4.27258 161.081 0.833209 136.251 29.781C132.544 34.1118 130.067 39.795 127.453 45.8125C122.484 57.1941 116.816 70.1256 101.195 73.727C79.298 78.7871 49.7727 68.8795 46.4905 67.6487C46.11 67.5151 45.7774 67.2723 45.5342 66.9507C45.2909 66.6291 45.1478 66.2429 45.1228 65.8404C45.1068 64.5052 44.7978 63.1898 44.2175 61.9872C43.6372 60.7846 42.7998 59.7241 41.7645 58.8808C35.2304 53.5471 20.2171 54.9907 9.50409 56.5254C7.72619 56.7837 4.62628 57.6195 3.77533 60.3092C3.03074 62.6645 3.47142 68.211 14.853 78.9847C24.9581 88.558 30.9604 90.1839 34.2123 89.88C35.3407 89.7436 36.4225 89.3492 37.3738 88.7273C38.3251 88.1054 39.1204 87.2727 39.6979 86.2938C39.9189 85.942 40.1846 85.6202 40.4881 85.3365C40.7774 85.0893 41.131 84.9294 41.5077 84.8756C41.8844 84.8218 42.2687 84.8762 42.6156 85.0326C59.6348 92.4633 75.2103 96.87 88.9168 98.1465C98.8524 99.0095 108.832 97.095 117.743 92.6167C126.654 88.1385 134.146 81.2725 139.382 72.7848C150.9 54.0333 162.905 42.6214 175.046 38.8984C178.075 37.9875 181.261 37.7171 184.4 38.1043C187.54 38.4914 190.564 39.5278 193.281 41.1474C195.963 42.7353 198.285 44.8649 200.098 47.4001C201.911 49.9354 203.176 52.8207 203.812 55.872C206.638 69.8217 194.193 80.4283 168.861 85.762C152.306 89.163 136.868 96.6601 123.958 107.568C106.118 122.855 96.7579 141.424 96.1804 162.728C95.6486 182.346 102.259 197.678 115.813 208.072C135.233 223.07 163.984 224.104 182.477 218.709C211.227 210.352 229.371 202.799 254.763 182.528C263.652 175.417 269.655 166.831 275.444 158.534C283.543 146.94 290.533 136.926 303.131 134.601C321.365 131.258 336.045 139.16 343.612 156.072C352.501 176.085 348.277 201.158 334.176 211.962C316.685 225.395 290.594 223.967 265.369 222.599C257.771 222.219 250.462 221.824 243.579 221.824Z" fill="#EAAD4E"/>
<path d="M323.189 319.699H323.052C320.013 319.699 317.065 319.608 314.117 319.441L314.315 315.976C317.202 316.159 320.134 316.235 323.052 316.235H323.189V319.699ZM332.306 319.426L332.094 315.961C335.041 315.794 338.02 315.521 340.922 315.171L341.348 318.605C338.339 318.97 335.285 319.244 332.276 319.426H332.306ZM305.106 318.636C302.067 318.286 299.028 317.83 296.11 317.283L296.733 313.879C299.62 314.411 302.583 314.852 305.516 315.202L305.106 318.636ZM350.328 317.238L349.705 313.834C352.592 313.302 355.51 312.679 358.382 311.965L359.203 315.338C356.239 316.052 353.261 316.691 350.298 317.238H350.328ZM287.236 315.399C284.303 314.685 281.355 313.879 278.483 312.983L279.501 309.67C282.312 310.536 285.2 311.342 288.056 312.041L287.236 315.399ZM367.955 312.892L366.922 309.579C369.733 308.713 372.56 307.725 375.31 306.677L376.541 309.929C373.684 310.992 370.797 312.026 367.925 312.892H367.955ZM269.867 310.02C267.041 308.941 264.214 307.786 261.464 306.54L262.877 303.379C265.567 304.595 268.332 305.735 271.098 306.783L269.867 310.02ZM384.914 306.434L383.485 303.288C386.16 302.072 388.849 300.766 391.448 299.398L393.059 302.437C390.369 303.865 387.619 305.203 384.883 306.434H384.914ZM253.289 302.559C250.614 301.161 247.955 299.656 245.372 298.091L247.165 295.052C249.687 296.572 252.286 298.091 254.899 299.413L253.289 302.559ZM400.96 298L399.167 294.961C401.69 293.441 404.182 291.815 406.598 290.144L408.573 292.985C406.066 294.763 403.513 296.42 400.93 297.985L400.96 298ZM237.728 293.168C235.251 291.451 232.79 289.642 230.419 287.788L232.546 285.053C234.871 286.877 237.272 288.639 239.704 290.326L237.728 293.168ZM415.852 287.712L413.71 284.992C416.035 283.184 418.268 281.269 420.517 279.309L422.827 281.892C420.563 283.838 418.223 285.798 415.852 287.712ZM223.399 282.014C221.15 280.008 218.84 277.926 216.789 275.784L219.235 273.337C221.317 275.419 223.49 277.471 225.693 279.416L223.399 282.014ZM429.437 275.556L426.975 273.094C429.072 271.012 431.109 268.839 433.054 266.636L435.637 268.931C433.662 271.256 431.565 273.474 429.437 275.556ZM210.619 269.067C208.613 266.803 206.653 264.509 204.784 262.093L207.519 259.95C209.343 262.275 211.257 264.509 213.202 266.758L210.619 269.067ZM441.594 261.956L438.798 259.874C440.621 257.549 442.384 255.148 444.055 252.732L446.912 254.692C445.15 257.169 443.356 259.631 441.472 262.017L441.594 261.956ZM199.465 254.783C197.748 252.306 196.077 249.754 194.512 247.186L197.551 245.392C199.07 247.915 200.711 250.407 202.383 252.838L199.465 254.783ZM451.927 247.003L448.964 245.21C450.483 242.688 452.003 240.089 453.325 237.475L456.364 239.086C454.875 241.821 453.37 244.481 451.805 247.064L451.927 247.003ZM190.044 239.284C188.646 236.625 187.309 233.874 186.063 231.124L189.223 229.71C190.424 232.385 191.746 235.059 193.114 237.658L190.044 239.284ZM460.376 230.911L457.215 229.483C458.431 226.793 459.57 224.027 460.619 221.277L463.855 222.508C462.67 225.41 461.5 228.206 460.254 230.972L460.376 230.911ZM182.583 222.751C181.504 219.94 180.501 217.052 179.544 214.18L182.856 213.147C183.723 215.943 184.71 218.77 185.759 221.52L182.583 222.751ZM466.819 213.892L463.506 212.874C464.387 210.047 465.177 207.175 465.876 204.318L469.25 205.139C468.414 208.133 467.67 211.065 466.697 213.952L466.819 213.892ZM177.158 205.428C176.444 202.495 175.79 199.517 175.243 196.538L178.662 195.915C179.194 198.818 179.817 201.735 180.516 204.592L177.158 205.428ZM471.134 196.31L467.73 195.687C468.262 192.785 468.703 189.837 469.052 186.919L472.487 187.33C472.015 190.338 471.56 193.347 471.013 196.325L471.134 196.31ZM173.891 187.618C173.526 184.579 173.238 181.54 173.055 178.501L176.52 178.288C176.702 181.251 176.976 184.215 177.325 187.132L173.891 187.618ZM473.246 178.273L469.797 178.075C469.964 175.173 470.055 172.225 470.055 169.292L473.505 169.201V169.292C473.429 172.301 473.353 175.264 473.17 178.303L473.246 178.273ZM176.201 169.49H172.736V169.308C172.736 166.268 172.827 163.229 173.01 160.19L176.459 160.403C176.292 163.32 176.201 166.314 176.201 169.262V169.49ZM469.782 160.372C469.599 157.425 469.326 154.446 468.976 151.544L472.426 151.118C472.775 154.157 473.049 157.197 473.231 160.236L469.782 160.372ZM177.249 151.635L173.815 151.225C174.18 148.185 174.636 145.146 175.167 142.244L178.571 142.867C177.979 145.724 177.523 148.687 177.173 151.605L177.249 151.635ZM467.654 142.761C467.122 139.873 466.499 136.956 465.785 134.084L469.159 133.263C469.873 136.196 470.511 139.174 471.058 142.138L467.654 142.761ZM180.456 134.19L177.097 133.355C177.812 130.422 178.617 127.489 179.529 124.602L182.841 125.635C181.854 128.416 181.063 131.288 180.349 134.236L180.456 134.19ZM463.445 125.544C462.564 122.733 461.591 119.906 460.543 117.156L463.779 115.925C464.858 118.751 465.846 121.639 466.819 124.511L463.445 125.544ZM185.637 117.201L182.401 115.971C183.464 113.144 184.634 110.318 185.88 107.567L189.041 108.996C187.825 111.685 186.671 114.481 185.637 117.201ZM457.033 108.95C455.832 106.261 454.525 103.586 453.158 100.988L456.197 99.3617C457.61 102.036 458.947 104.771 460.178 107.522L457.033 108.95ZM192.931 101.003L189.892 99.3921C191.305 96.7177 192.81 94.0584 194.451 91.4751L197.49 93.2682C195.773 95.7907 194.299 98.4044 192.931 101.003ZM448.781 93.2075C447.262 90.685 445.636 88.1929 443.964 85.7616L446.806 83.7861C448.523 86.2782 450.195 88.8311 451.744 91.3839L448.781 93.2075ZM202.14 85.7616L199.283 83.7861C201 81.3092 202.824 78.8475 204.677 76.477L207.397 78.6044C205.589 81.0509 203.811 83.391 202.14 85.8224V85.7616ZM438.707 78.6196C436.883 76.3098 434.968 74.0609 433.008 71.8119L435.607 69.5174C437.612 71.7663 439.557 74.0761 441.427 76.4922L438.707 78.6196ZM213.096 71.9335L210.497 69.6389C212.503 67.3747 214.6 65.1562 216.728 63.0288L219.174 65.4753C217.092 67.4811 215.056 69.6541 213.096 71.9335ZM426.93 65.4905C424.848 63.3935 422.675 61.3573 420.472 59.4122L422.766 56.8289C425.015 58.8196 427.249 60.9166 429.376 63.0592L426.93 65.4905ZM225.648 59.4122L223.338 56.7378C225.602 54.7319 227.897 52.7717 230.313 50.9178L232.455 53.653C230.146 55.4461 227.851 57.3608 225.648 59.321V59.4122ZM413.649 53.6986C411.324 51.8751 408.923 50.1124 406.507 48.4257L408.467 45.5841C410.959 47.3012 413.421 49.1095 415.791 50.9786L413.649 53.6986ZM239.597 48.4257L237.622 45.5841C240.114 43.867 242.667 42.2107 245.22 40.6455L247.013 43.6087C244.521 45.0674 242.013 46.6934 239.597 48.3649V48.4257ZM399.046 43.6087C396.523 42.0891 393.925 40.5695 391.311 39.2323L392.922 36.1932C395.596 37.6064 398.256 39.1107 400.839 40.6759L399.046 43.6087ZM254.687 39.2475L253.076 36.2083C255.735 34.8103 258.486 33.4731 261.221 32.2423L262.649 35.3878C260.051 36.5123 257.361 37.8191 254.763 39.1867L254.687 39.2475ZM383.257 35.3422C380.553 34.1266 377.802 32.9869 375.036 31.9384L376.267 28.7017C379.094 29.7654 381.92 30.9506 384.671 32.1815L383.257 35.3422ZM270.809 31.9688L269.578 28.7321C272.405 27.6532 275.292 26.6655 278.164 25.7689L279.197 29.0664C276.477 29.887 273.666 30.9051 270.9 31.908L270.809 31.9688ZM366.542 29.036C363.731 28.1698 360.844 27.3645 358.002 26.6655L358.823 23.3072C361.74 24.0214 364.688 24.8268 367.575 25.7385L366.542 29.036ZM287.676 26.6959L286.841 23.3224C289.773 22.6082 292.767 21.97 295.73 21.423L296.353 24.842C293.618 25.2979 290.7 25.9209 287.844 26.6351L287.676 26.6959ZM349.477 24.8268C346.59 24.3101 343.627 23.8695 340.709 23.52L341.12 20.0705C344.159 20.4352 347.198 20.8911 350.1 21.423L349.477 24.8268ZM305.288 23.52L304.878 20.0857C307.917 19.721 310.956 19.4475 313.995 19.2651L314.208 22.7298C311.154 22.8361 308.206 23.0945 305.288 23.444V23.52ZM331.866 22.7298C328.948 22.5474 325.985 22.4563 323.052 22.4563V18.9916C326.091 18.9916 329.13 19.0828 332.078 19.2651L331.866 22.7298Z" fill="#EAAD4E"/>
<path d="M323.052 333.3C290.61 333.303 258.895 323.685 231.919 305.662C204.943 287.64 183.917 262.022 171.501 232.049C159.085 202.077 155.837 169.095 162.166 137.276C168.496 105.457 184.119 76.2297 207.061 53.2904C230.002 30.3511 259.231 14.7304 291.051 8.40376C322.87 2.07712 355.852 5.32876 385.823 17.7474C415.795 30.1661 441.41 51.194 459.43 78.1717C477.45 105.149 487.065 136.865 487.059 169.308C487.003 212.786 469.705 254.468 438.96 285.211C408.214 315.953 366.531 333.247 323.052 333.3ZM323.052 8.73455C291.297 8.73154 260.254 18.1452 233.848 35.785C207.443 53.4248 186.862 78.4986 174.707 107.836C162.552 137.172 159.369 169.455 165.561 200.601C171.753 231.746 187.042 260.357 209.495 282.813C231.947 305.27 260.554 320.564 291.699 326.762C322.843 332.96 355.126 329.784 384.466 317.634C413.805 305.485 438.883 284.908 456.527 258.506C474.172 232.104 483.592 201.063 483.595 169.308C483.546 126.744 466.617 85.9372 436.52 55.8401C406.422 25.7429 365.616 8.81318 323.052 8.76492V8.73455Z" fill="#EAAD4E"/>
</g>
</svg>
