<svg width="16" height="17" viewBox="0 0 16 17" fill="none" xmlns="http://www.w3.org/2000/svg">
<rect y="1" width="16" height="16" rx="3" fill="#0C0C0C"/>
<path fill-rule="evenodd" clip-rule="evenodd" d="M9.19776 4.10877L9.27226 4.32148L9.05047 4.28321C8.82491 4.24428 8.34818 4.20539 7.91159 4.21013C7.45679 4.21507 7.03134 4.25373 6.89587 4.2823L6.65898 4.33225L6.74495 4.10558C7.0168 3.38888 7.43299 2.75502 7.93641 2.29281L8.03649 2.20093L8.1256 2.30351C8.58745 2.83515 8.96618 3.44761 9.19776 4.10877ZM7.90873 3.94514C8.24556 3.94148 8.60761 3.96286 8.87075 3.99163C8.66603 3.48607 8.37039 3.01055 8.0157 2.5831C7.63768 2.95784 7.31355 3.44198 7.07727 3.98986C7.29222 3.96741 7.59771 3.94852 7.90873 3.94514ZM6.6811 5.15042C7.10783 5.03867 7.55577 4.97914 8.01779 4.97914C8.45954 4.97914 8.88841 5.03356 9.29817 5.13601C9.52841 6.3507 9.51402 7.53035 9.36505 8.61858C9.08439 8.53674 8.70484 8.46676 8.04154 8.46676C7.38651 8.46676 6.90893 8.54455 6.62044 8.6202C6.47229 7.53476 6.45193 6.36035 6.6811 5.15042ZM6.53717 4.9148C7.00859 4.78399 7.50515 4.71413 8.01779 4.71413C8.50722 4.71413 8.982 4.77781 9.43424 4.89741L9.52577 4.92173L9.54185 5.00279C9.80692 6.33917 9.78099 7.63279 9.6047 8.81149L9.58131 8.96793L9.43164 8.91743C9.16279 8.82671 8.80392 8.73176 8.04154 8.73176C7.27679 8.73176 6.77525 8.84125 6.5534 8.91624L6.4035 8.96691L6.38025 8.81017C6.20609 7.63631 6.17319 6.34929 6.43721 5.01821L6.45308 4.93818L6.53717 4.9148ZM10.3118 5.20528L10.5378 5.32092C12.3266 6.23898 13.5513 8.10442 13.5513 10.2566C13.5513 10.3285 13.55 10.4002 13.5473 10.4714L13.5362 10.7507L13.3314 10.5853C12.7353 10.1038 11.8163 9.39743 10.3154 9.01967L10.1944 8.98921L10.2177 8.86642C10.4568 7.60577 10.4572 6.7516 10.3344 5.44546L10.3118 5.20528ZM5.72206 5.20659L5.70315 5.44272C5.57153 7.08626 5.62833 7.9378 5.821 8.86413L5.8469 8.98866L5.72373 9.01967C4.22246 9.39752 3.29961 10.0993 2.70399 10.5804L2.4993 10.7458L2.48876 10.4826L2.48792 10.4607C2.48547 10.393 2.48424 10.3249 2.48424 10.2566C2.48424 8.09903 3.71511 6.22964 5.51128 5.31404L5.72206 5.20659ZM2.74905 10.2062C3.3426 9.74306 4.21882 9.14816 5.53697 8.79444C5.36749 7.93017 5.31733 7.10101 5.42098 5.66352C3.83873 6.56293 2.76726 8.25855 2.74905 10.2062ZM10.6199 5.66651C12.2005 6.56743 13.2701 8.2635 13.2866 10.211C12.6937 9.74702 11.8196 9.14788 10.5002 8.79394C10.7079 7.64801 10.7179 6.81669 10.6199 5.66651ZM5.96121 9.55166L6.00061 9.66081C6.18858 10.1816 6.74814 11.4057 7.47576 12.1485L7.56158 12.2361L7.48092 12.3285C7.08181 12.7857 5.89611 13.793 4.29806 14.2699L4.22386 14.292L4.16824 14.2381L4.15839 14.2285C3.43153 13.5198 2.89836 12.6125 2.64638 11.5938L2.64354 11.5822L2.62584 11.51L2.67819 11.4572C2.93301 11.2004 3.39366 10.8039 3.95394 10.4355C4.51332 10.0678 5.18072 9.72222 5.848 9.5764L5.96121 9.55166ZM2.91882 11.5916C3.15902 12.5146 3.64257 13.3395 4.29695 13.9932C5.70349 13.5549 6.76849 12.6955 7.2004 12.2429C6.52458 11.508 6.0094 10.4204 5.79323 9.86156C5.20624 10.0104 4.61271 10.3194 4.09913 10.6571C3.59164 10.9907 3.16973 11.3474 2.91882 11.5916ZM10.0295 9.60228L10.1427 9.62702C10.8084 9.77249 11.4857 10.1061 12.0558 10.4629C12.6263 10.8199 13.099 11.2059 13.3556 11.4645L13.4081 11.5174L13.3871 11.6021L13.3871 11.6023C13.1344 12.617 12.6026 13.5209 11.8783 14.2274L11.878 14.2277L11.7984 14.3049L11.7243 14.2827C10.1274 13.8062 8.95935 12.8334 8.55933 12.3751L8.47868 12.2827L8.5645 12.1951C9.29044 11.454 9.80059 10.2366 9.99014 9.71143L10.0295 9.60228ZM10.1981 9.91219C9.9883 10.4677 9.51347 11.5535 8.83984 12.2893C9.26928 12.7376 10.3188 13.5686 11.7256 14.0062C12.3849 13.3521 12.8724 12.5252 13.1148 11.599C12.8641 11.3577 12.4334 11.0116 11.9156 10.6876C11.392 10.36 10.7876 10.0602 10.1981 9.91219ZM8.02362 12.6747L8.11958 12.7857C8.89741 13.6856 9.5195 14.0223 10.9218 14.7388L11.1313 14.8459L10.9076 14.9841L10.9073 14.9843C10.0662 15.5011 9.07653 15.7991 8.01779 15.7991C6.92774 15.7991 5.91094 15.4832 5.05408 14.9379L5.05389 14.9378L4.83685 14.7991L5.05151 14.6961C6.45721 14.0217 7.06465 13.6962 7.92318 12.7817L8.02362 12.6747ZM5.38552 14.8294C6.15993 15.2776 7.05878 15.5341 8.01779 15.5341C8.95099 15.5341 9.8272 15.2912 10.5872 14.8651C9.38062 14.2458 8.74576 13.8833 8.01572 13.0685C7.2196 13.8928 6.59749 14.2434 5.38552 14.8294ZM6.97404 9.61584C7.06972 9.97043 7.2643 10.3513 7.48051 10.6934C7.67358 10.9989 7.87929 11.2663 8.03603 11.4473C8.59622 10.6848 8.86097 9.97949 8.94929 9.62575C8.73173 9.58899 8.32302 9.53786 7.97896 9.53675C7.75562 9.53602 7.50587 9.5498 7.2944 9.57126C7.18869 9.58198 7.09387 9.59449 7.01757 9.60778C7.00191 9.6105 6.98741 9.6132 6.97404 9.61584ZM7.26773 9.3076C7.48738 9.28531 7.74636 9.27099 7.97982 9.27175C8.4322 9.27321 8.98827 9.35599 9.13819 9.39287L9.25729 9.42217L9.23712 9.54333C9.17956 9.88926 8.88243 10.7877 8.1499 11.7361L8.05563 11.8582L7.94943 11.7464C7.77585 11.5636 7.50563 11.2286 7.25696 10.8351C7.0092 10.4431 6.77565 9.98189 6.686 9.54842L6.66385 9.44131L6.76466 9.39923C6.81603 9.37779 6.89128 9.36079 6.97226 9.34669C7.05653 9.33202 7.15788 9.31875 7.26773 9.3076ZM3.23413 14.4611L3.45506 14.4181L3.3101 14.2457C3.16202 14.0695 2.87174 13.6625 2.656 13.2837C2.43063 12.888 2.24915 12.5006 2.20538 12.3691L2.13188 12.1482L1.97983 12.3243C1.44216 12.9468 1.17602 13.4919 0.875245 14.2839L0.8125 14.4491L0.98844 14.4631L1.08575 14.4709C1.83436 14.5306 2.57339 14.5896 3.23413 14.4611ZM2.42619 13.415C2.59359 13.7089 2.8041 14.0193 2.96606 14.2359C2.424 14.306 1.82573 14.2637 1.18622 14.213C1.42787 13.597 1.65531 13.1461 2.04091 12.6646C2.12993 12.8624 2.26973 13.1403 2.42619 13.415ZM12.545 14.4253L12.7659 14.4683C13.4266 14.5968 14.1657 14.5378 14.9143 14.4781L15.0116 14.4703L15.1875 14.4564L15.1248 14.2911C14.824 13.4991 14.5579 12.954 14.0202 12.3315L13.8681 12.1555L13.7947 12.3763C13.7509 12.5078 13.5694 12.8952 13.344 13.2909C13.1283 13.6697 12.838 14.0768 12.6899 14.2529L12.545 14.4253ZM13.034 14.2431C13.1959 14.0265 13.4064 13.7161 13.5738 13.4222C13.7303 13.1475 13.8701 12.8696 13.9591 12.6719C14.3447 13.1533 14.5722 13.6042 14.8138 14.2202C14.1743 14.2709 13.576 14.3132 13.034 14.2431Z" fill="#EAAD4E"/>
</svg>
