<svg width="32" height="32" viewBox="0 0 32 32" fill="none" xmlns="http://www.w3.org/2000/svg">
<path fill-rule="evenodd" clip-rule="evenodd" d="M0 16C0 7.16344 7.16344 0 16 0C24.8366 0 32 7.16344 32 16C32 24.8366 24.8366 32 16 32C7.16344 32 0 24.8366 0 16Z" fill="url(#paint0_linear_2333_3806)"/>
<rect width="32" height="32" rx="5" fill="url(#paint1_linear_2333_3806)"/>
<path fill-rule="evenodd" clip-rule="evenodd" d="M11.6186 16C11.6186 13.5799 13.5808 11.6177 16.0009 11.6177C18.4209 11.6178 20.3825 13.5799 20.3825 16C20.3825 18.4201 18.421 20.3814 16.0009 20.3814C13.5808 20.3814 11.6186 18.4201 11.6186 16ZM18.8453 16.0002C18.8453 14.4292 17.5717 13.1557 16.0009 13.1557C14.4298 13.1557 13.1564 14.4292 13.1564 16.0002C13.1564 17.5711 14.4298 18.8447 16.0009 18.8447C17.5717 18.8447 18.8453 17.5711 18.8453 16.0002Z" fill="white"/>
<path d="M19.5319 11.4451C19.5319 10.8796 19.9906 10.4215 20.5559 10.4215C21.1213 10.4215 21.5799 10.8798 21.5799 11.4451C21.5799 12.0105 21.1213 12.4691 20.5559 12.4691C19.9906 12.4691 19.5319 12.0105 19.5319 11.4451Z" fill="white"/>
<path fill-rule="evenodd" clip-rule="evenodd" d="M12.4822 7.51823C13.3924 7.47681 13.6833 7.46667 16.0008 7.46667H15.9981C18.3164 7.46667 18.6062 7.47681 19.5164 7.51823C20.4249 7.55983 21.0453 7.70366 21.5893 7.91468C22.1511 8.13246 22.6258 8.42402 23.1004 8.89869C23.5751 9.37301 23.8667 9.8491 24.0853 10.4103C24.2951 10.9529 24.4391 11.573 24.4818 12.4815C24.5227 13.3917 24.5333 13.6826 24.5333 16.0001C24.5333 18.3176 24.5227 18.6078 24.4818 19.518C24.4391 20.4261 24.2951 21.0464 24.0853 21.5891C23.8667 22.1502 23.5751 22.6263 23.1004 23.1006C22.6263 23.5753 22.1509 23.8676 21.5898 24.0855C21.0469 24.2965 20.4261 24.4404 19.5176 24.482C18.6074 24.5234 18.3175 24.5335 15.9997 24.5335C13.6824 24.5335 13.3917 24.5234 12.4815 24.482C11.5732 24.4404 10.9529 24.2965 10.41 24.0855C9.8491 23.8676 9.37301 23.5753 8.89887 23.1006C8.42437 22.6263 8.13282 22.1502 7.91468 21.589C7.70383 21.0464 7.56001 20.4263 7.51823 19.5178C7.47699 18.6076 7.46667 18.3176 7.46667 16.0001C7.46667 13.6826 7.47734 13.3915 7.51805 12.4813C7.55894 11.5732 7.70294 10.9529 7.9145 10.4102C8.13317 9.8491 8.42473 9.37301 8.8994 8.89869C9.37372 8.4242 9.84981 8.13264 10.4111 7.91468C10.9536 7.70366 11.5737 7.55983 12.4822 7.51823ZM15.7164 9.0044C15.5439 9.00432 15.384 9.00425 15.2353 9.00449V9.00235C13.6449 9.00413 13.3398 9.0148 12.5526 9.05035C11.7206 9.08857 11.2689 9.22724 10.9681 9.34458C10.5699 9.4996 10.2854 9.68449 9.98674 9.98316C9.68807 10.2818 9.50282 10.5663 9.34815 10.9645C9.23135 11.2653 9.09233 11.7169 9.05428 12.5489C9.01339 13.4484 9.00522 13.7172 9.00522 15.996C9.00522 18.2748 9.01339 18.545 9.05428 19.4446C9.09215 20.2766 9.23135 20.7282 9.34815 21.0286C9.50318 21.427 9.68807 21.7108 9.98674 22.0094C10.2854 22.3081 10.5699 22.493 10.9681 22.6476C11.2691 22.7644 11.7206 22.9035 12.5526 22.9419C13.4522 22.9828 13.7222 22.9917 16.0008 22.9917C18.2793 22.9917 18.5495 22.9828 19.4491 22.9419C20.2811 22.9038 20.733 22.7652 21.0334 22.6478C21.4318 22.4932 21.7154 22.3083 22.0141 22.0096C22.3127 21.7111 22.498 21.4275 22.6526 21.0293C22.7694 20.7289 22.9085 20.2773 22.9465 19.4453C22.9874 18.5457 22.9963 18.2755 22.9963 15.9982C22.9963 13.7208 22.9874 13.4506 22.9465 12.551C22.9086 11.719 22.7694 11.2674 22.6526 10.967C22.4976 10.5688 22.3127 10.2843 22.0141 9.98565C21.7156 9.68698 21.4317 9.50209 21.0334 9.34742C20.7326 9.23062 20.2811 9.0916 19.4491 9.05355C18.5493 9.01266 18.2793 9.00449 16.0008 9.00449L15.7164 9.0044Z" fill="white"/>
<defs>
<linearGradient id="paint0_linear_2333_3806" x1="26.8813" y1="32" x2="5.97472" y2="5.74463e-07" gradientUnits="userSpaceOnUse">
<stop stop-color="#E09B3D"/>
<stop offset="0.3" stop-color="#C74C4D"/>
<stop offset="0.6" stop-color="#C21975"/>
<stop offset="1" stop-color="#7024C4"/>
</linearGradient>
<linearGradient id="paint1_linear_2333_3806" x1="26.8813" y1="32" x2="5.97472" y2="5.74463e-07" gradientUnits="userSpaceOnUse">
<stop stop-color="#E09B3D"/>
<stop offset="0.3" stop-color="#C74C4D"/>
<stop offset="0.6" stop-color="#C21975"/>
<stop offset="1" stop-color="#7024C4"/>
</linearGradient>
</defs>
</svg>
