<svg width="20" height="20" viewBox="0 0 20 20" fill="none" xmlns="http://www.w3.org/2000/svg">
<path d="M14.6625 17.5049H14.6392C11.4378 17.4261 8.38273 16.1478 6.07917 13.9232C3.85377 11.6218 2.57474 8.56787 2.49574 5.3674C2.49102 4.91907 2.66705 4.4877 2.98417 4.17074L5.24583 1.91074C5.57125 1.58542 6.09875 1.58542 6.42417 1.91074L9.7575 5.24407C10.0828 5.56949 10.0828 6.09699 9.7575 6.4224L8.4275 7.7499C8.67417 8.6715 9.12856 9.5244 9.75583 10.2432C10.4734 10.8707 11.3252 11.3254 12.2458 11.5724L13.5792 10.2441C13.9046 9.91875 14.4321 9.91875 14.7575 10.2441L18.0908 13.5774C18.4162 13.9028 18.4162 14.4303 18.0908 14.7557L15.8292 17.0166C15.5208 17.3282 15.1009 17.5039 14.6625 17.5049ZM5.83333 3.67907H5.82917L4.1625 5.34907C4.23045 8.11462 5.33443 10.7538 7.25583 12.7441C9.24619 14.6648 11.8849 15.7687 14.65 15.8374L16.3225 14.1666L14.1625 12.0124L13.085 13.0891C12.9309 13.2449 12.7209 13.3328 12.5017 13.3332C12.4431 13.3333 12.3847 13.3271 12.3275 13.3149C10.9389 13.0077 9.64949 12.357 8.5775 11.4224C7.64288 10.3504 6.99218 9.06104 6.685 7.6724C6.62705 7.39638 6.71266 7.10977 6.9125 6.91074L7.98917 5.83324L5.83333 3.67907Z" fill="#EAAD4E"/>
</svg>
