<svg width="175" height="180" viewBox="0 0 175 180" fill="none" xmlns="http://www.w3.org/2000/svg">
<g opacity="0.15">
<path d="M96.1297 184.986C92.9821 184.984 89.9642 183.732 87.7392 181.506C85.5142 179.279 84.2644 176.261 84.2644 173.113V60.881H85.9129V173.113C85.912 174.455 86.1755 175.785 86.6886 177.025C87.2016 178.265 87.954 179.393 88.9028 180.342C89.8516 181.292 90.9782 182.045 92.2182 182.559C93.4582 183.073 94.7874 183.337 96.1297 183.337L122.608 183.279C124.614 183.277 126.538 182.479 127.956 181.059C129.374 179.64 130.171 177.715 130.171 175.709L130.229 60.7798H131.877L131.812 175.745C131.807 178.179 130.839 180.511 129.12 182.234C127.401 183.957 125.07 184.931 122.637 184.942L96.1586 185L96.1297 184.986Z" fill="#EAAD4E"/>
<path d="M108.067 67.2657C120.758 67.2657 131.046 64.3908 131.046 60.8447C131.046 57.2987 120.758 54.4241 108.067 54.4241C95.3766 54.4241 85.0887 57.2987 85.0887 60.8447C85.0887 64.3908 95.3766 67.2657 108.067 67.2657Z" fill="#EAAD4E"/>
<path d="M106.751 61.5463L105.638 60.3388C105.725 60.252 107.756 58.0901 106.52 53.8313C105.67 50.5585 106.024 47.0894 107.518 44.0557L109.991 39.4426L109.058 44.5908C108.544 47.4034 108.263 52.3925 109.68 53.8097C109.957 54.0807 110.173 54.4082 110.313 54.77C110.453 55.1318 110.513 55.5194 110.489 55.9065C110.41 58.4589 107.12 61.2426 106.751 61.5463ZM108.443 54.8942C108.544 55.5399 108.582 56.1935 108.559 56.8465C108.718 56.5302 108.816 56.1868 108.848 55.8342C108.859 55.6751 108.835 55.5156 108.778 55.3669C108.72 55.2181 108.631 55.0839 108.516 54.9738L108.443 54.8942Z" fill="#EAAD4E"/>
<path d="M39.9269 160.691L34.4896 136.498C33.9484 134.071 32.6491 131.88 30.7799 130.241C28.9107 128.602 26.5685 127.6 24.0921 127.38L0 125.211L28.9871 116.238C29.0273 116.225 29.0632 116.201 29.0912 116.169C29.1191 116.137 29.1381 116.099 29.1462 116.057L35.9863 85.754L44.0194 114.553L75.3854 120.873L47.9817 127.987C47.3675 128.146 46.8113 128.477 46.3784 128.94C45.9455 129.404 45.6539 129.981 45.5378 130.605L39.9269 160.691ZM8.4597 124.3L24.2656 125.746C27.0892 125.998 29.7596 127.141 31.891 129.01C34.0225 130.879 35.5048 133.377 36.1237 136.144L39.8112 152.521L43.8892 130.287C44.0655 129.355 44.5021 128.493 45.1483 127.799C45.7945 127.106 46.624 126.609 47.5406 126.368L68.003 121.053L42.6962 115.949L36.1887 92.4712L30.7442 116.419C30.6634 116.742 30.4995 117.039 30.2687 117.28C30.0379 117.521 29.7482 117.698 29.4282 117.792L8.4597 124.3Z" fill="#EAAD4E"/>
<path d="M147.192 183.988L143.489 167.553C143.169 166.118 142.401 164.823 141.296 163.854C140.192 162.884 138.807 162.291 137.344 162.159L120.872 160.662L140.207 154.675L144.69 134.828L149.932 153.627L170.467 157.763L152.217 162.499C151.895 162.583 151.604 162.757 151.378 163C151.151 163.244 150.998 163.546 150.937 163.873L147.192 183.988ZM129.31 159.802L137.495 160.525C139.308 160.682 141.024 161.412 142.394 162.609C143.764 163.806 144.718 165.409 145.116 167.184L147.061 175.81L149.339 163.583C149.458 162.949 149.755 162.361 150.195 161.888C150.636 161.416 151.201 161.078 151.826 160.915L163.142 157.98L148.638 155.087L144.878 141.595L141.819 155.16C141.76 155.414 141.635 155.648 141.458 155.84C141.28 156.031 141.056 156.173 140.807 156.252L129.31 159.802Z" fill="#EAAD4E"/>
<path d="M113.772 175.528C111.278 175.528 108.769 175.427 106.252 175.21C83.3851 173.257 62.1923 162.425 47.2159 145.035C32.2395 127.644 24.6712 105.079 26.1328 82.1748C27.5944 59.2709 37.9697 37.8507 55.0352 22.5048C72.1006 7.15893 94.4984 -0.891598 117.428 0.0785179C140.358 1.04863 161.996 10.9622 177.704 27.6947C193.413 44.4271 201.942 66.6471 201.464 89.5926C200.985 112.538 191.538 134.384 175.146 150.447C158.755 166.511 136.723 175.514 113.772 175.528ZM113.555 1.10632C93.8876 1.13265 74.8179 7.87081 59.4998 20.2065C44.1816 32.5422 33.5324 49.7367 29.3131 68.9464C25.0939 88.1562 27.5574 108.231 36.2961 125.85C45.0349 143.47 59.5256 157.579 77.3719 165.845C95.2182 174.111 115.351 176.038 134.442 171.308C153.532 166.579 170.436 155.475 182.359 139.833C194.282 124.192 200.51 104.949 200.012 85.2877C199.514 65.6263 192.32 46.7238 179.62 31.7059C171.517 22.0839 161.401 14.3569 149.986 9.06988C138.571 3.78282 126.135 1.0644 113.555 1.10632Z" fill="#EAAD4E"/>
<path d="M143.873 177.003C141.985 177.004 140.157 176.34 138.71 175.128C137.263 173.916 136.289 172.233 135.959 170.374C135.629 168.515 135.964 166.6 136.906 164.963C137.847 163.327 139.335 162.075 141.108 161.426C142.881 160.777 144.825 160.774 146.601 161.416C148.376 162.058 149.868 163.305 150.816 164.937C151.764 166.57 152.106 168.484 151.783 170.344C151.46 172.204 150.492 173.891 149.05 175.109C147.601 176.33 145.768 177.001 143.873 177.003ZM143.873 162.593C142.418 162.587 141.005 163.079 139.868 163.986C138.731 164.894 137.937 166.162 137.619 167.582C137.301 169.001 137.478 170.487 138.119 171.792C138.761 173.098 139.829 174.146 141.147 174.761C142.465 175.377 143.953 175.525 145.367 175.179C146.78 174.833 148.032 174.015 148.917 172.861C149.802 171.706 150.266 170.284 150.232 168.829C150.198 167.375 149.669 165.976 148.732 164.863C148.135 164.152 147.389 163.58 146.547 163.187C145.705 162.795 144.787 162.592 143.858 162.593H143.873Z" fill="#EAAD4E"/>
<path d="M25.878 108.06C23.7 108.054 21.5938 107.28 19.929 105.876C18.2642 104.471 17.1471 102.526 16.7736 100.38C16.4002 98.234 16.7943 96.0253 17.8868 94.141C18.9793 92.2568 20.7005 90.8174 22.7483 90.0755C24.796 89.3335 27.0397 89.3364 29.0856 90.0835C31.1315 90.8306 32.849 92.2743 33.9367 94.1613C35.0245 96.0483 35.413 98.2581 35.0341 100.403C34.6553 102.548 33.5332 104.491 31.8649 105.891C30.188 107.298 28.0672 108.067 25.878 108.06ZM25.878 91.1407C24.6502 91.1429 23.441 91.4412 22.353 92.0102C21.2651 92.5793 20.3304 93.4023 19.6282 94.4096C18.926 95.4168 18.4771 96.5785 18.3195 97.7961C18.162 99.0138 18.3004 100.251 18.723 101.404C19.1456 102.557 19.84 103.591 20.7473 104.418C21.6546 105.245 22.748 105.842 23.9348 106.156C25.1216 106.471 26.3668 106.495 27.5647 106.226C28.7627 105.957 29.8782 105.403 30.8165 104.611C32.3599 103.301 33.3216 101.432 33.491 99.4146C33.6603 97.397 33.0237 95.3943 31.7203 93.8449C31.0023 92.9899 30.1061 92.3023 29.0944 91.8301C28.0827 91.358 26.98 91.1128 25.8636 91.1118L25.878 91.1407Z" fill="#EAAD4E"/>
<path d="M39.7172 45.7185C38.3482 45.7164 37.0236 45.2324 35.9756 44.3514C34.9277 43.4704 34.2234 42.2485 33.9863 40.9001C33.7492 39.5518 33.9943 38.163 34.6787 36.9772C35.3631 35.7915 36.4431 34.8846 37.7293 34.4156C39.0155 33.9465 40.4258 33.9453 41.7129 34.412C42.9999 34.8788 44.0815 35.7837 44.7681 36.9682C45.4546 38.1527 45.7022 39.5411 45.4675 40.8899C45.2328 42.2387 44.5307 43.4617 43.4843 44.3447C42.4307 45.2338 41.0959 45.7205 39.7172 45.7185ZM39.7172 35.6897C39.0433 35.6928 38.3799 35.8583 37.7835 36.1721C37.187 36.486 36.675 36.9389 36.2908 37.4927C35.9066 38.0465 35.6615 38.6847 35.5763 39.3532C35.4911 40.0218 35.5683 40.7011 35.8013 41.3335C36.0344 41.9659 36.4164 42.5329 36.9151 42.9863C37.4138 43.4397 38.0144 43.7662 38.6661 43.9382C39.3178 44.1102 40.0013 44.1226 40.6588 43.9744C41.3163 43.8261 41.9284 43.5216 42.4432 43.0865C43.0743 42.5506 43.5327 41.8397 43.7605 41.0437C43.9884 40.2476 43.9754 39.4019 43.7233 38.6132C43.4712 37.8244 42.9913 37.128 42.344 36.6116C41.6967 36.0952 40.911 35.782 40.086 35.7114C39.9613 35.696 39.8357 35.6888 39.71 35.6897H39.7172Z" fill="#EAAD4E"/>
<path d="M56.2823 24.7284C56.1522 24.7356 56.0219 24.7356 55.8919 24.7284C55.2912 24.6806 54.7062 24.5133 54.1711 24.2364C53.6359 23.9596 53.1615 23.5786 52.7755 23.116C52.3824 22.6575 52.0838 22.126 51.8968 21.5517C51.7098 20.9775 51.6381 20.3721 51.6858 19.77C51.7335 19.168 51.8997 18.5814 52.1748 18.0438C52.4499 17.5062 52.8285 17.0283 53.2889 16.6375C53.7488 16.2483 54.2809 15.9536 54.8547 15.7702C55.4286 15.5868 56.033 15.5184 56.6333 15.5687C57.2337 15.6191 57.8182 15.7873 58.3535 16.0637C58.8888 16.3402 59.3643 16.7194 59.7529 17.1797C60.5362 18.1102 60.9183 19.3135 60.8152 20.5254C60.7122 21.7374 60.1325 22.8589 59.2034 23.6438C58.3878 24.338 57.3533 24.7221 56.2823 24.7284ZM56.2823 17.2087C55.5868 17.2149 54.9168 17.4716 54.3951 17.9317C53.9509 18.3063 53.6278 18.8042 53.4668 19.3625C53.3057 19.9208 53.314 20.5143 53.4905 21.0679C53.6671 21.6215 54.0039 22.1103 54.4584 22.4723C54.9129 22.8343 55.4646 23.0533 56.0437 23.1015C56.4329 23.1396 56.8258 23.0984 57.1987 22.9804C57.5715 22.8623 57.9165 22.6698 58.2128 22.4146C58.6571 22.0401 58.9802 21.5421 59.1412 20.9838C59.3023 20.4255 59.294 19.832 59.1175 19.2784C58.9409 18.7248 58.6041 18.2361 58.1496 17.8741C57.6951 17.5121 57.1433 17.293 56.5643 17.2448L56.2823 17.2087Z" fill="#EAAD4E"/>
<path d="M77.2869 169.83C76.5289 170.471 75.598 170.873 74.6118 170.984C73.6257 171.096 72.6285 170.913 71.7465 170.458C70.8645 170.003 70.1373 169.296 69.6568 168.428C69.1762 167.559 68.964 166.568 69.047 165.579C69.1299 164.59 69.5042 163.648 70.1226 162.872C70.741 162.095 71.5758 161.52 72.5212 161.218C73.4667 160.916 74.4804 160.901 75.4342 161.176C76.3881 161.45 77.2391 162.001 77.8798 162.759C78.7279 163.78 79.1411 165.093 79.0302 166.416C78.9193 167.739 78.2932 168.965 77.2869 169.83Z" fill="#EAAD4E"/>
<path d="M52.3055 149.491C50.7906 150.771 48.93 151.573 46.9593 151.796C44.9885 152.019 42.9959 151.652 41.2334 150.742C39.471 149.833 38.0179 148.421 37.0578 146.685C36.0977 144.95 35.6737 142.969 35.8395 140.992C36.0053 139.016 36.7534 137.133 37.9892 135.582C39.2251 134.03 40.8931 132.88 42.7824 132.277C44.6718 131.674 46.6976 131.644 48.6037 132.192C50.5099 132.74 52.2108 133.841 53.4914 135.355C54.3419 136.361 54.9859 137.525 55.3866 138.78C55.7873 140.035 55.9369 141.356 55.8268 142.669C55.7167 143.982 55.349 145.26 54.7448 146.43C54.1406 147.601 53.3118 148.641 52.3055 149.491Z" fill="#EAAD4E"/>
<path d="M181.117 151.848C180.312 152.528 179.324 152.954 178.277 153.073C177.229 153.191 176.171 152.996 175.234 152.513C174.298 152.03 173.526 151.28 173.015 150.358C172.505 149.436 172.28 148.383 172.368 147.333C172.456 146.283 172.853 145.282 173.509 144.458C174.166 143.634 175.052 143.022 176.056 142.702C177.06 142.381 178.136 142.365 179.149 142.656C180.162 142.946 181.066 143.531 181.746 144.336C182.198 144.87 182.541 145.488 182.754 146.155C182.967 146.822 183.047 147.524 182.988 148.222C182.93 148.92 182.735 149.599 182.414 150.221C182.092 150.843 181.652 151.396 181.117 151.848Z" fill="#EAAD4E"/>
<path d="M131.227 106.578L131.169 104.929C132.564 104.879 133.974 104.763 135.348 104.575L135.565 106.209C134.133 106.405 132.673 106.52 131.227 106.578ZM126.888 106.527C125.442 106.448 123.996 106.289 122.55 106.072L122.796 104.445C124.177 104.655 125.58 104.799 126.968 104.886L126.888 106.527ZM139.853 105.443L139.484 103.838C140.843 103.52 142.202 103.115 143.526 102.702L144.046 104.264C142.665 104.72 141.255 105.117 139.845 105.443H139.853ZM118.298 105.211C116.896 104.857 115.493 104.431 114.134 103.946L114.69 102.392C115.999 102.862 117.351 103.274 118.703 103.614L118.298 105.211ZM148.095 102.681L147.43 101.17C148.703 100.606 149.961 99.9766 151.176 99.2897L151.985 100.736C150.727 101.452 149.455 102.11 148.095 102.681ZM110.106 102.283C108.798 101.669 107.503 100.989 106.252 100.251L107.091 98.8053C108.291 99.5283 109.542 100.172 110.8 100.757L110.106 102.283ZM155.658 98.4148L154.711 97.0627C155.854 96.2673 156.974 95.4069 158.045 94.5031L158.659 93.9753L159.744 95.2189L159.107 95.7684C158.016 96.7156 156.852 97.6194 155.673 98.4292L155.658 98.4148ZM102.601 97.8725C101.437 97.0193 100.294 96.1082 99.2099 95.1466L100.302 93.9174C101.35 94.8357 102.471 95.7178 103.57 96.5349L102.601 97.8725ZM162.875 92.2038L161.689 91.112C162.65 90.0997 163.569 89.0296 164.422 87.9305L165.723 88.9428C164.841 90.0563 163.916 91.1626 162.889 92.2182L162.875 92.2038ZM96.0935 92.117C95.5512 91.5386 95.0162 90.9384 94.5028 90.3383C93.9894 89.7382 93.664 89.326 93.2664 88.8127L94.5679 87.8004C94.9583 88.2921 95.356 88.791 95.7609 89.2465C96.1658 89.702 96.7732 90.4034 97.2938 90.9601L96.0935 92.117ZM168.254 85.3637L166.866 84.4744C167.589 83.303 168.312 82.0738 168.941 80.8591L170.387 81.5822C169.736 82.8692 168.977 84.1417 168.254 85.3637ZM90.8008 85.2625C90.0271 84.0405 89.3041 82.768 88.6316 81.4809L90.0777 80.7579C90.7068 82.0015 91.4081 83.2235 92.1529 84.3731L90.8008 85.2625ZM172.195 77.6198L170.662 77.0125C171.175 75.7182 171.631 74.3806 172.014 73.0429L173.597 73.4984C173.178 74.8867 172.701 76.2749 172.173 77.6198H172.195ZM86.8746 77.5114C86.3468 76.1665 85.8768 74.7782 85.4863 73.39L87.0698 72.9344C87.453 74.2793 87.9013 75.6097 88.4147 76.9112L86.8746 77.5114ZM174.61 69.2686L172.99 68.9649C173.25 67.5911 173.446 66.1956 173.568 64.8073L175.21 64.9592C175.051 66.3981 174.848 67.8514 174.581 69.2686H174.61ZM84.4885 69.1529C84.2282 67.7068 84.0258 66.2607 83.9029 64.8146L85.5442 64.67C85.6671 66.0582 85.8551 67.4537 86.1082 68.8275L84.4885 69.1529ZM173.756 60.6209C173.756 59.2254 173.684 57.8154 173.547 56.4272L175.188 56.2681C175.325 57.7142 175.398 59.1603 175.405 60.6064L173.756 60.6209ZM85.3706 60.5052H83.7221C83.7221 59.0591 83.8089 57.613 83.9535 56.1669L85.5948 56.3332C85.4285 57.707 85.349 59.1169 85.3417 60.5052H85.3706ZM172.939 52.2769C172.679 50.9103 172.339 49.5365 171.949 48.2061L173.525 47.7361C173.937 49.1171 174.284 50.5415 174.559 51.9659L172.939 52.2769ZM86.2094 52.1684L84.597 51.8503C84.879 50.4042 85.226 49.0087 85.6382 47.6276L87.2217 48.0976C86.7951 49.4281 86.4552 50.8019 86.1805 52.1684H86.2094ZM170.568 44.2149C170.047 42.9206 169.454 41.6408 168.811 40.4044L170.257 39.6452C170.922 40.9322 171.529 42.2554 172.072 43.6003L170.568 44.2149ZM88.5738 44.1136L87.0481 43.4918C87.5904 42.1542 88.205 40.8237 88.8702 39.5439L90.3163 40.267C89.6945 41.5685 89.1016 42.8483 88.5738 44.1136ZM166.663 36.7746C165.904 35.6105 165.087 34.4609 164.219 33.3691L165.514 32.3496C166.41 33.4848 167.263 34.6706 168.044 35.8853L166.663 36.7746ZM92.4276 36.6806L91.0466 35.7841C91.8347 34.5766 92.6879 33.3835 93.5918 32.2556L94.8788 33.2823C94.0256 34.3958 93.2013 35.5455 92.4421 36.7096L92.4276 36.6806ZM161.472 30.1732C160.503 29.1609 159.483 28.1848 158.435 27.281L159.512 26.0373C160.604 26.9845 161.682 27.9896 162.658 29.038L161.472 30.1732ZM97.6408 30.0936L96.455 28.9512C97.4528 27.9173 98.5157 26.9122 99.6148 25.965L100.692 27.2159C99.6437 28.2065 98.617 29.1537 97.6553 30.1515L97.6408 30.0936ZM155.138 24.6852C154.003 23.8754 152.817 23.1162 151.617 22.4148L152.441 20.9687C153.692 21.6918 154.921 22.4799 156.1 23.3186L155.138 24.6852ZM103.996 24.6274L103.042 23.2825C104.221 22.4438 105.457 21.6556 106.708 20.9398L107.525 22.3859C106.332 23.1451 105.146 23.8682 104.011 24.6852L103.996 24.6274ZM147.886 20.4987C146.62 19.9203 145.312 19.3997 143.996 18.9442L144.531 17.3824C145.897 17.8596 147.257 18.4019 148.573 19.002L147.886 20.4987ZM111.256 20.4481L110.576 18.9514C111.892 18.3513 113.252 17.809 114.618 17.339L115.153 18.9008C113.852 19.4142 112.536 19.9348 111.27 20.506L111.256 20.4481ZM139.968 17.7656C138.609 17.4317 137.233 17.1663 135.847 16.9703L136.085 15.3362C137.532 15.5459 138.978 15.8206 140.359 16.1604L139.968 17.7656ZM119.181 17.7295L118.797 16.1243C120.2 15.7917 121.639 15.5169 123.071 15.3145L123.302 16.9486C121.935 17.2016 120.533 17.4619 119.195 17.7873L119.181 17.7295ZM131.689 16.6377C130.294 16.5726 128.891 16.5653 127.496 16.6377L127.416 14.9891C128.862 14.924 130.308 14.9313 131.754 14.9891L131.689 16.6377Z" fill="#EAAD4E"/>
</g>
</svg>
