<svg width="169" height="188" viewBox="0 0 169 188" fill="none" xmlns="http://www.w3.org/2000/svg">
<g opacity="0.15">
<path d="M92.2282 185.163C74.4339 185.179 57.0143 180.051 42.067 170.396L41.8465 170.252C21.2864 156.757 6.92938 135.647 1.93366 111.566C-3.06206 87.4856 1.71284 62.4067 15.2079 41.8466C28.703 21.2865 49.8128 6.92938 73.8934 1.93366C97.9741 -3.06206 123.053 1.71284 143.613 15.2079L142.656 16.6443C132.679 9.83285 121.446 5.07578 109.612 2.65051C97.7779 0.225251 85.5793 0.180356 73.7276 2.51842C61.876 4.85649 50.6084 9.53074 40.582 16.2686C30.5556 23.0065 21.9709 31.6731 15.3286 41.7631C8.68636 51.8531 4.11945 63.1646 1.89414 75.038C-0.331183 86.9113 -0.170338 99.1089 2.36729 110.919C4.90492 122.73 9.76851 133.917 16.6745 143.828C23.5805 153.74 32.3907 162.177 42.5913 168.648L42.789 168.77C56.5223 177.663 72.3998 182.689 88.7492 183.317C105.099 183.946 121.315 180.154 135.691 172.34C150.066 164.527 162.068 152.982 170.434 138.921C178.799 124.859 183.218 108.803 183.225 92.4411C183.225 89.9102 183.119 87.3337 182.906 84.7801C181.623 69.4113 176.441 54.6239 167.85 41.8162L169.294 40.851C178.048 53.9063 183.327 68.9789 184.631 84.6433C184.844 87.2349 184.958 89.8646 184.958 92.4411C184.958 117.033 175.189 140.617 157.8 158.006C140.412 175.394 116.827 185.163 92.2358 185.163H92.2282Z" fill="#EAAD4E"/>
<path d="M172.129 44.5599L155.789 34.4288L138.871 43.5491L149.032 28.1511L139.251 10.9442L154.025 21.0753C154.264 21.2401 154.544 21.3334 154.833 21.3441C155.123 21.3549 155.41 21.2827 155.659 21.1361L172.425 11.2558L162.91 24.2445C162.118 25.326 161.691 26.6318 161.691 27.9724C161.691 29.3131 162.118 30.6188 162.91 31.7003L172.129 44.5599ZM144.472 16.6064L151.061 28.2043L144.107 38.7533L155.097 32.8404C155.331 32.7127 155.595 32.649 155.862 32.6556C156.129 32.6623 156.389 32.7391 156.617 32.8784L165.639 38.4797L161.489 32.7188C160.487 31.3372 159.951 29.6728 159.957 27.9662C159.964 26.2597 160.514 24.5996 161.527 23.2261L166.087 17.0244L156.571 22.6105C156.035 22.9392 155.416 23.1056 154.787 23.0894C154.159 23.0732 153.548 22.8752 153.03 22.5193L144.472 16.6064Z" fill="#EAAD4E"/>
<path d="M150.833 192.148H31.7232V175.724C31.7207 174.685 31.9381 173.657 32.3613 172.709C32.7845 171.76 33.4039 170.911 34.1786 170.219C34.9533 169.527 35.8658 169.007 36.856 168.693C37.8463 168.379 38.8918 168.278 39.9238 168.397L42.3787 168.671L42.1887 170.388C41.3679 170.307 40.5471 170.216 39.7262 170.115C38.9368 170.025 38.1372 170.103 37.38 170.344C36.6229 170.585 35.9252 170.983 35.333 171.513C34.7408 172.043 34.2674 172.692 33.9439 173.417C33.6204 174.143 33.4542 174.929 33.4561 175.724V190.415H149.101V175.701C149.098 174.906 148.928 174.12 148.601 173.395C148.275 172.67 147.8 172.021 147.206 171.492C146.612 170.963 145.914 170.565 145.156 170.324C144.398 170.082 143.598 170.003 142.808 170.092H142.739L142.542 168.374H142.602C143.636 168.256 144.683 168.356 145.675 168.67C146.666 168.984 147.581 169.504 148.358 170.195C149.135 170.887 149.757 171.735 150.184 172.684C150.61 173.633 150.832 174.661 150.833 175.701V192.148Z" fill="#EAAD4E"/>
<path d="M32.2704 185.3H150.286C151.794 185.3 153.287 185.597 154.681 186.174C156.074 186.751 157.34 187.597 158.406 188.664C159.473 189.73 160.319 190.996 160.896 192.389C161.473 193.782 161.77 195.276 161.77 196.784V206.824H20.7864V196.784C20.7864 193.738 21.9963 190.817 24.1499 188.664C26.3035 186.51 29.2247 185.3 32.2704 185.3Z" fill="#EAAD4E"/>
<path d="M161.876 206.938H20.6725V196.784C20.6705 193.705 21.891 190.752 24.0659 188.573C26.2407 186.394 29.1917 185.167 32.2704 185.163H150.286C153.36 185.167 156.307 186.391 158.48 188.565C160.653 190.74 161.874 193.687 161.876 196.761V206.938ZM20.9005 206.71H161.656V196.784C161.656 193.761 160.455 190.861 158.317 188.723C156.179 186.585 153.279 185.384 150.256 185.384H32.2704C29.2468 185.384 26.3472 186.585 24.2092 188.723C22.0712 190.861 20.8701 193.761 20.8701 196.784L20.9005 206.71Z" fill="#EAAD4E"/>
<path d="M97.0848 164.346L63.8568 122.082V53.2468L64.0316 53.0112L97.0848 9.12766V164.346ZM65.6276 121.474L95.352 159.323V14.311L65.5896 53.832L65.6276 121.474Z" fill="#EAAD4E"/>
<path d="M95.5344 162.385L63.8566 122.074V51.97L96.5148 72.5436L127.189 52.7605L128.124 54.2197L96.5299 74.6032L65.5895 55.1088V121.474L96.8948 161.314L95.5344 162.385Z" fill="#EAAD4E"/>
<path d="M95.4811 164.354L95.2227 9.13507L128.519 53.2162L128.633 122.051L128.451 122.287L95.4811 164.354ZM97.0012 14.3108L97.2367 159.338L126.938 121.428L126.832 53.7862L97.0012 14.3108Z" fill="#EAAD4E"/>
<path d="M97.024 162.385L95.6559 161.314L126.9 121.428L126.786 53.4901H128.519L128.633 122.028L128.451 122.264L97.024 162.385Z" fill="#EAAD4E"/>
<path d="M95.2683 164.574L88.0101 133.999L104.966 97.8674L134.242 81.5573L95.2683 164.574ZM89.8341 134.173L95.8003 159.323L130.381 85.6539L106.296 99.0758L89.8341 134.173Z" fill="#EAAD4E"/>
<path d="M94.6907 162.173L87.9949 134.006L105.491 96.7273L117.719 115.021L138.339 111.51L138.627 113.22L116.906 116.913L105.757 100.246L89.8266 134.189L96.3703 161.77L94.6907 162.173Z" fill="#EAAD4E"/>
<path d="M93.7483 163.981L132.585 80.9038L139.425 112.467L122.523 148.629L122.272 148.766L93.7483 163.981ZM131.977 86.2847L97.5179 160.007L121.2 147.367L137.609 112.262L131.977 86.2847Z" fill="#EAAD4E"/>
<path d="M96.0055 162.758L95.1848 161.23L121.162 147.375L137.693 111.996L139.266 112.733L122.485 148.629L122.234 148.766L96.0055 162.758Z" fill="#EAAD4E"/>
<path d="M97.5484 164.255L57.6702 139.934L36.1616 85.3954L48.8159 40.6911L97.5484 164.255ZM59.0686 138.741L94.0295 160.09L49.0667 46.0872L37.9704 85.2966L59.0686 138.741Z" fill="#EAAD4E"/>
<path d="M95.3672 162.918L57.693 139.919L35.6905 84.1339L68.1509 91.2706L86.1861 67.0561L87.577 68.0974L68.8728 93.201L38.4949 86.5204L59.0913 138.741L96.2716 161.435L95.3672 162.918Z" fill="#EAAD4E"/>
<path d="M96.0284 164.757L47.0831 41.2385L87.5846 66.9955L109.184 121.504L96.0284 164.757ZM50.6629 45.5706L95.8156 159.513L107.353 121.58L86.1862 68.1583L50.6629 45.5706Z" fill="#EAAD4E"/>
<path d="M96.7503 162.393L95.0935 161.892L107.353 121.587L86.0796 67.9L87.6909 67.2613L109.184 121.512L96.7503 162.393Z" fill="#EAAD4E"/>
<path d="M136.94 130.814L135.815 116.488L123.115 110.446L136.636 109.769L142.579 96.4842L143.013 109.921C143.017 110.067 143.063 110.208 143.145 110.327C143.228 110.447 143.342 110.541 143.476 110.598L156.921 116.389H144.563C143.705 116.385 142.868 116.655 142.174 117.16C141.479 117.664 140.964 118.376 140.702 119.194L136.94 130.814ZM130.1 111.814L136.834 115.013C137.042 115.107 137.222 115.254 137.355 115.44C137.489 115.625 137.571 115.843 137.594 116.07L138.05 121.937L139.121 118.631C139.497 117.466 140.233 116.45 141.223 115.73C142.213 115.01 143.407 114.623 144.631 114.626H148.47L142.754 112.171C142.317 111.982 141.943 111.674 141.674 111.281C141.405 110.888 141.252 110.427 141.234 109.952L141.044 104.031L137.731 111.426L130.1 111.814Z" fill="#EAAD4E"/>
<path d="M70.7654 71.989V60.9231C70.765 60.853 70.7448 60.7844 70.7071 60.7252C70.6695 60.6661 70.6159 60.6187 70.5526 60.5887L59.6235 55.4585L69.9749 55.8006C70.5774 55.8212 71.1709 55.6497 71.6696 55.3109C72.1682 54.9721 72.5463 54.4835 72.749 53.9157L76.2299 44.2255L76.7696 56.0058L86.8474 61.2043L75.9183 61.3943L70.7654 71.989ZM67.9761 57.4802L71.2897 59.0002C71.651 59.1693 71.9565 59.4378 72.1706 59.7744C72.3846 60.1109 72.4983 60.5015 72.4982 60.9003V64.4496L74.8315 59.6615L79.9464 59.5703L75.6979 57.3738C75.5137 57.2801 75.3577 57.1393 75.2455 56.9658C75.1334 56.7923 75.0692 56.5922 75.0595 56.3858L74.8998 53.0189L74.3755 54.4781C74.0524 55.3938 73.4455 56.1825 72.6431 56.7293C71.8406 57.2761 70.8846 57.5525 69.9142 57.5182L67.9761 57.4802Z" fill="#EAAD4E"/>
<path d="M92.3878 170.168V168.443C93.8622 168.443 95.3519 168.39 96.8112 168.306L96.91 170.031C95.4127 170.115 93.8926 170.16 92.3878 170.168ZM87.8277 170.046C86.3076 169.963 84.7877 169.834 83.3284 169.666L83.5184 167.941C84.9777 168.108 86.4596 168.23 87.9265 168.314L87.8277 170.046ZM101.371 169.628L101.166 167.911C102.625 167.736 104.1 167.523 105.536 167.265L105.84 168.975C104.388 169.203 102.869 169.454 101.409 169.628H101.371ZM78.8519 169.028C77.3319 168.77 75.8802 168.466 74.4209 168.124L74.8162 166.436C76.245 166.771 77.6967 167.067 79.1483 167.318L78.8519 169.028ZM110.263 168.055L109.868 166.368C111.289 166.026 112.726 165.646 114.132 165.22L114.634 166.877C113.235 167.31 111.761 167.683 110.301 168.055H110.263ZM70.0508 166.968C68.6144 166.543 67.1704 166.064 65.7568 165.555L66.3419 163.921C67.7252 164.422 69.1388 164.886 70.5448 165.304L70.0508 166.968ZM118.92 165.448L118.327 163.822C119.695 163.32 121.079 162.765 122.424 162.188L123.108 163.776C121.77 164.369 120.349 164.931 118.958 165.448H118.92ZM61.5462 163.928C60.1706 163.335 58.7874 162.697 57.4421 162.021L58.2021 160.501C59.517 161.162 60.8698 161.785 62.2151 162.363L61.5462 163.928ZM127.197 161.891L126.437 160.371C127.744 159.71 129.051 159.003 130.32 158.266L131.187 159.786C129.91 160.455 128.572 161.185 127.235 161.853L127.197 161.891ZM53.4748 159.877C52.1752 159.117 50.8755 158.357 49.6215 157.506L50.5715 156.054C51.8028 156.86 53.072 157.643 54.3716 158.372L53.4748 159.877ZM135.025 157.362L134.075 155.918C135.299 155.112 136.515 154.253 137.685 153.379L138.726 154.762C137.541 155.621 136.309 156.495 135.04 157.324L135.025 157.362ZM45.9127 154.914C44.7119 154.018 43.5186 153.075 42.3634 152.11L43.473 150.787C44.6054 151.73 45.7531 152.65 46.9463 153.524L45.9127 154.914ZM142.26 151.95L141.151 150.628C142.268 149.685 143.377 148.69 144.441 147.687L145.635 148.941C144.563 149.936 143.423 150.962 142.276 151.912L142.26 151.95ZM39.0269 149.077C37.9325 148.044 36.8533 146.972 35.8272 145.885L37.0812 144.692C38.092 145.756 39.1409 146.805 40.2126 147.808L39.0269 149.077ZM148.872 145.703L147.611 144.517C148.622 143.446 149.61 142.336 150.544 141.211L151.874 142.321C150.886 143.476 149.876 144.609 148.842 145.703H148.872ZM32.8099 142.511C31.8447 141.371 30.9023 140.178 29.9978 138.977L31.3886 137.936C32.2703 139.114 33.19 140.276 34.1324 141.394L32.8099 142.511ZM154.648 138.802L153.258 137.761C154.132 136.59 154.983 135.367 155.796 134.143L157.24 135.093C156.412 136.324 155.545 137.571 154.648 138.802ZM27.3682 135.306C26.5398 134.052 25.7342 132.767 24.9817 131.506L26.5018 130.639C27.2618 131.901 28.0218 133.163 28.835 134.386L27.3682 135.306ZM159.611 131.24L158.091 130.373C158.851 129.097 159.535 127.789 160.189 126.482L161.709 127.242C161.086 128.572 160.364 129.91 159.619 131.202L159.611 131.24ZM22.8081 127.5C22.1317 126.163 21.4856 124.787 20.8852 123.412L22.4736 122.728C23.0589 124.073 23.6896 125.41 24.3509 126.718L22.8081 127.5ZM163.67 123.13L162.082 122.446C162.659 121.094 163.206 119.71 163.708 118.327L165.342 118.92C164.825 120.334 164.263 121.755 163.67 123.13ZM19.2664 119.201C18.7496 117.795 18.2631 116.351 17.8299 114.915L19.4868 114.413C19.9124 115.819 20.3836 117.233 20.8852 118.608L19.2664 119.201ZM166.786 114.641L165.122 114.147C165.54 112.733 165.927 111.297 166.262 109.876L167.949 110.271C167.576 111.715 167.181 113.182 166.756 114.626L166.786 114.641ZM16.652 110.567C16.3024 109.108 15.9983 107.618 15.7323 106.144L17.4347 105.84C17.6931 107.284 17.9972 108.743 18.3392 110.164L16.652 110.567ZM168.846 105.84L167.143 105.544C167.394 104.099 167.607 102.625 167.774 101.166L169.492 101.363C169.294 102.838 169.074 104.343 168.815 105.825L168.846 105.84ZM15.0711 101.667C14.8963 100.147 14.7594 98.6654 14.6682 97.1681L16.4011 97.0617C16.4847 98.5285 16.6215 100.011 16.7887 101.462L15.0711 101.667ZM169.872 96.8641L168.146 96.7653C168.222 95.3365 168.268 93.8773 168.268 92.4484V92.3496H170.001V92.4408C169.971 93.9 169.925 95.3821 169.841 96.8489L169.872 96.8641ZM16.2263 92.6308H14.4934V92.4408C14.4934 90.9208 14.4935 89.4007 14.6227 87.8807L16.3479 87.9795C16.2643 89.4463 16.2263 90.936 16.2263 92.4028V92.6308ZM168.101 87.8807C168.017 86.4139 167.888 84.9394 167.721 83.4802L169.439 83.275C169.613 84.795 169.743 86.315 169.834 87.7819L168.101 87.8807ZM16.7356 83.579L15.0179 83.3814C15.1927 81.8613 15.4055 80.3869 15.6639 78.9049L17.3739 79.2089C17.1155 80.6833 16.9028 82.1502 16.7356 83.6094V83.579ZM167.075 79.1101C166.824 77.6584 166.52 76.2068 166.186 74.778L167.865 74.3752C168.215 75.8344 168.519 77.324 168.785 78.8061L167.075 79.1101ZM18.2632 74.8768L16.5759 74.4816C16.9179 73.0223 17.3359 71.5479 17.7387 70.1114L19.4032 70.6055C18.9852 72.0419 18.5976 73.4783 18.2632 74.9072V74.8768ZM165.038 70.5143C164.612 69.1006 164.141 67.6946 163.64 66.319L165.266 65.7261C165.783 67.1322 166.262 68.5762 166.695 70.0126L165.038 70.5143ZM20.7864 66.4406L19.1524 65.8477C19.6692 64.4341 20.2316 63.0205 20.8245 61.6448L22.4205 62.3289C21.8429 63.6741 21.2956 65.0801 20.7864 66.4406ZM161.998 62.2528C161.42 60.9076 160.79 59.5624 160.128 58.2551L161.648 57.4951C162.317 58.8404 162.963 60.216 163.556 61.584L161.998 62.2528ZM24.2901 58.316L22.7701 57.5559C23.4465 56.2107 24.1761 54.8731 24.9285 53.5734L26.4485 54.4399C25.6657 55.6939 24.9589 57.0011 24.2977 58.316H24.2901ZM158.054 54.3715C157.294 53.1022 156.534 51.8406 155.773 50.617L157.217 49.6593C158.046 50.9134 158.844 52.2054 159.596 53.505L158.054 54.3715ZM28.7286 50.6398L27.2846 49.6821C28.1054 48.4357 28.9794 47.1893 29.8762 45.9808L31.2671 47.0145C30.3855 48.2229 29.5342 49.4389 28.7286 50.6398ZM153.167 46.9765C152.292 45.806 151.365 44.6356 150.423 43.5184L151.753 42.4012C152.718 43.5488 153.661 44.742 154.557 45.9428L153.167 46.9765ZM34.0108 43.5716L32.6883 42.4619C33.6536 41.3143 34.6644 40.1819 35.7284 39.0799L36.9825 40.2731C35.9868 41.3447 34.9532 42.4544 34.0108 43.5716ZM147.482 40.2427C146.478 39.1787 145.422 38.1222 144.358 37.119L145.543 35.8574C146.638 36.891 147.717 37.9626 148.743 39.0495L147.482 40.2427ZM40.0833 37.1494L38.89 35.8878C39.9845 34.8542 41.1169 33.8433 42.2646 32.8477L43.3818 34.1777C42.2569 35.1506 41.1473 36.1386 40.0833 37.1494ZM141.052 34.1777C139.927 33.2353 138.772 32.3081 137.586 31.4341L138.62 30.0432C139.821 30.9401 141.014 31.8825 142.169 32.8553L141.052 34.1777ZM46.8475 31.4645L45.8063 30.0736C47.0147 29.1768 48.2535 28.3028 49.5076 27.482L50.4576 28.926C49.2416 29.7316 48.0179 30.5904 46.8475 31.4645ZM133.961 28.8956C132.737 28.09 131.468 27.3072 130.199 26.5775L131.065 25.0575C132.365 25.8175 133.657 26.5776 134.911 27.4364L133.961 28.8956ZM54.2197 26.6156L53.3456 25.0955C54.6452 24.3355 55.9829 23.6287 57.3205 22.9523L58.0805 24.4723C56.7885 25.1639 55.4889 25.8707 54.2273 26.608L54.2197 26.6156ZM126.3 24.4799C124.985 23.8187 123.64 23.1955 122.295 22.6102L122.979 21.0218C124.354 21.6146 125.738 22.2607 127.083 22.9295L126.3 24.4799ZM62.101 22.6483L61.4094 21.0522C62.785 20.4594 64.1987 19.897 65.6047 19.3878L66.1976 21.0142C64.8219 21.5082 63.4387 22.0554 62.101 22.6407V22.6483ZM118.175 20.9762C116.8 20.4822 115.386 20.011 113.98 19.593L114.474 17.9361C115.91 18.3617 117.354 18.8405 118.768 19.3498L118.175 20.9762ZM70.3929 19.6234L69.8912 17.9589C71.3277 17.5333 72.7945 17.1381 74.2614 16.7885L74.6566 18.4757C73.2277 18.8102 71.7913 19.1902 70.3929 19.6158V19.6234ZM109.709 18.4529C108.28 18.1185 106.828 17.8221 105.377 17.5713L105.681 15.8613C107.155 16.1197 108.645 16.4237 110.104 16.7657L109.709 18.4529ZM78.9886 17.5865L78.6847 15.8765C80.1592 15.6181 81.6639 15.4053 83.1611 15.2305L83.3588 16.9481C81.8995 17.1077 80.4327 17.3281 78.9886 17.5789V17.5865ZM101.029 16.9405C99.5701 16.7733 98.0956 16.6441 96.6211 16.5605L96.72 14.8277C98.24 14.9189 99.7601 15.0481 101.227 15.2153L101.029 16.9405ZM87.7897 16.5681L87.6833 14.8353C89.2034 14.7517 90.7234 14.7061 92.2434 14.7061V16.4389C90.7082 16.4389 89.2261 16.4769 87.7669 16.5605L87.7897 16.5681Z" fill="#EAAD4E"/>
<path d="M141.037 59.2586C141.037 58.3744 141.299 57.5101 141.79 56.775C142.282 56.0399 142.98 55.4671 143.797 55.1291C144.614 54.7911 145.513 54.7031 146.38 54.8761C147.247 55.0492 148.043 55.4755 148.668 56.1013C149.293 56.727 149.718 57.524 149.889 58.3914C150.061 59.2588 149.972 60.1576 149.632 60.974C149.293 61.7905 148.719 62.4879 147.983 62.978C147.247 63.4682 146.382 63.729 145.498 63.7275C144.912 63.7275 144.331 63.6118 143.789 63.3872C143.247 63.1625 142.755 62.8332 142.341 62.4181C141.926 62.003 141.598 61.5103 141.374 60.9682C141.15 60.426 141.036 59.8451 141.037 59.2586Z" fill="#EAAD4E"/>
<path d="M34.1856 34.3831C34.1856 33.1805 34.5423 32.005 35.2103 31.0051C35.8784 30.0052 36.828 29.2259 37.939 28.7657C39.05 28.3055 40.2725 28.1851 41.4519 28.4198C42.6314 28.6544 43.7148 29.2334 44.5651 30.0838C45.4154 30.9341 45.9945 32.0175 46.2291 33.1969C46.4637 34.3763 46.3433 35.5988 45.8831 36.7098C45.4229 37.8208 44.6436 38.7704 43.6438 39.4385C42.6439 40.1066 41.4683 40.4632 40.2658 40.4632C38.6532 40.4632 37.1067 39.8226 35.9665 38.6824C34.8262 37.5421 34.1856 35.9956 34.1856 34.3831Z" fill="#EAAD4E"/>
<path d="M37.0509 136.446C37.0509 135.941 37.2007 135.447 37.4813 135.027C37.7619 134.607 38.1608 134.28 38.6274 134.087C39.094 133.894 39.6074 133.843 40.1028 133.942C40.5982 134.04 41.0531 134.283 41.4103 134.64C41.7674 134.998 42.0106 135.453 42.1092 135.948C42.2077 136.443 42.1572 136.957 41.9639 137.423C41.7706 137.89 41.4433 138.289 41.0233 138.569C40.6034 138.85 40.1097 139 39.6046 139C38.9279 138.998 38.2796 138.728 37.8011 138.25C37.3226 137.771 37.0529 137.123 37.0509 136.446Z" fill="#EAAD4E"/>
<path d="M128.914 148.888C128.913 148.256 129.099 147.638 129.449 147.112C129.798 146.586 130.296 146.176 130.88 145.933C131.463 145.69 132.105 145.626 132.724 145.748C133.344 145.871 133.914 146.174 134.361 146.62C134.808 147.066 135.113 147.635 135.237 148.255C135.36 148.874 135.298 149.516 135.056 150.1C134.815 150.684 134.406 151.183 133.881 151.534C133.356 151.885 132.738 152.072 132.106 152.072C131.261 152.072 130.45 151.737 129.852 151.14C129.254 150.543 128.916 149.733 128.914 148.888Z" fill="#EAAD4E"/>
<path d="M125.403 76.7997C125.403 76.1053 125.609 75.4264 125.995 74.849C126.381 74.2715 126.929 73.8215 127.571 73.5557C128.212 73.2899 128.918 73.2204 129.599 73.3559C130.281 73.4914 130.906 73.8258 131.397 74.3169C131.888 74.8079 132.223 75.4336 132.358 76.1147C132.494 76.7958 132.424 77.5018 132.158 78.1434C131.893 78.785 131.443 79.3334 130.865 79.7192C130.288 80.1051 129.609 80.311 128.914 80.311C128.453 80.312 127.996 80.2219 127.569 80.0458C127.143 79.8697 126.756 79.611 126.429 79.2848C126.103 78.9585 125.844 78.5711 125.668 78.1446C125.492 77.7181 125.402 77.2611 125.403 76.7997Z" fill="#EAAD4E"/>
<path d="M26.5322 81.9069C26.5322 81.5278 26.6447 81.1571 26.8554 80.842C27.0662 80.5269 27.3658 80.2814 27.7162 80.1367C28.0666 79.992 28.4521 79.9545 28.8239 80.029C29.1956 80.1035 29.5369 80.2867 29.8044 80.5553C30.072 80.8239 30.2537 81.1659 30.3267 81.5379C30.3998 81.9099 30.3608 82.2952 30.2147 82.6451C30.0685 82.9949 29.8219 83.2935 29.506 83.503C29.19 83.7126 28.8189 83.8236 28.4398 83.8221C28.1886 83.8221 27.94 83.7725 27.7081 83.6762C27.4761 83.5798 27.2655 83.4386 27.0882 83.2607C26.911 83.0827 26.7706 82.8716 26.6752 82.6392C26.5798 82.4069 26.5312 82.158 26.5322 81.9069Z" fill="#EAAD4E"/>
<path d="M39.2854 120.82C44.57 120.82 48.8539 116.536 48.8539 111.252C48.8539 105.967 44.57 101.683 39.2854 101.683C34.0007 101.683 29.7166 105.967 29.7166 111.252C29.7166 116.536 34.0007 120.82 39.2854 120.82Z" fill="#EAAD4E"/>
<path d="M128.116 29.6635C127.376 29.6635 126.653 29.444 126.038 29.0328C125.423 28.6216 124.944 28.0371 124.661 27.3534C124.378 26.6697 124.305 25.9175 124.449 25.1919C124.594 24.4664 124.951 23.8001 125.475 23.2775C125.999 22.7548 126.666 22.3993 127.392 22.2559C128.117 22.1124 128.87 22.1876 129.553 22.4718C130.236 22.7559 130.819 23.2364 131.229 23.8523C131.639 24.4683 131.857 25.1919 131.856 25.9318C131.854 26.9222 131.459 27.8714 130.758 28.571C130.057 29.2706 129.107 29.6635 128.116 29.6635ZM128.116 23.9254C127.72 23.9254 127.332 24.0431 127.002 24.2635C126.672 24.484 126.415 24.7974 126.263 25.164C126.111 25.5306 126.071 25.9341 126.148 26.3233C126.226 26.7125 126.417 27.07 126.698 27.3506C126.978 27.6312 127.336 27.8223 127.725 27.8997C128.114 27.9772 128.518 27.9374 128.884 27.7856C129.251 27.6337 129.564 27.3765 129.785 27.0466C130.005 26.7166 130.123 26.3287 130.123 25.9318C130.123 25.3997 129.911 24.8893 129.535 24.5131C129.159 24.1368 128.648 23.9254 128.116 23.9254Z" fill="#EAAD4E"/>
<path d="M78.3579 160.759C77.2395 160.759 76.1463 160.427 75.2164 159.806C74.2865 159.185 73.5618 158.302 73.1338 157.268C72.7058 156.235 72.5938 155.098 72.812 154.001C73.0302 152.904 73.5687 151.897 74.3595 151.106C75.1503 150.315 76.1579 149.777 77.2548 149.559C78.3517 149.34 79.4886 149.452 80.5218 149.88C81.555 150.308 82.4382 151.033 83.0595 151.963C83.6808 152.893 84.0124 153.986 84.0124 155.104C84.0124 155.847 83.8662 156.582 83.582 157.268C83.2978 157.954 82.8813 158.578 82.3562 159.103C81.8312 159.628 81.2078 160.044 80.5218 160.329C79.8357 160.613 79.1005 160.759 78.3579 160.759ZM78.3579 151.19C77.5819 151.19 76.8234 151.421 76.1783 151.852C75.5332 152.283 75.0306 152.896 74.734 153.613C74.4374 154.33 74.3602 155.119 74.5121 155.88C74.6641 156.641 75.0383 157.34 75.5875 157.888C76.1367 158.436 76.8363 158.809 77.5975 158.959C78.3587 159.11 79.1475 159.031 79.8639 158.733C80.5804 158.435 81.1924 157.931 81.6224 157.285C82.0524 156.639 82.2811 155.88 82.2796 155.104C82.2776 154.066 81.8635 153.07 81.1283 152.336C80.393 151.602 79.3967 151.19 78.3579 151.19Z" fill="#EAAD4E"/>
<path d="M49.1732 167.934C47.8651 167.934 46.5865 167.546 45.4989 166.819C44.4114 166.092 43.5639 165.059 43.0637 163.85C42.5634 162.641 42.4329 161.311 42.6887 160.029C42.9444 158.746 43.5749 157.568 44.5004 156.643C45.4259 155.719 46.6048 155.09 47.8879 154.835C49.1711 154.581 50.5008 154.713 51.7089 155.215C52.917 155.716 53.9491 156.565 54.6747 157.653C55.4004 158.742 55.787 160.021 55.7855 161.329C55.7834 163.081 55.0859 164.761 53.8461 166C52.6063 167.238 50.9256 167.934 49.1732 167.934ZM49.1732 156.45C48.2082 156.45 47.2648 156.736 46.4624 157.272C45.66 157.808 45.0347 158.57 44.6654 159.462C44.296 160.353 44.1994 161.334 44.3877 162.281C44.5759 163.227 45.0407 164.097 45.7231 164.779C46.4055 165.462 47.2749 165.926 48.2214 166.115C49.1679 166.303 50.149 166.206 51.0405 165.837C51.9321 165.468 52.6941 164.842 53.2302 164.04C53.7664 163.237 54.0526 162.294 54.0526 161.329C54.0526 160.035 53.5385 158.794 52.6235 157.879C51.7084 156.964 50.4673 156.45 49.1732 156.45Z" fill="#EAAD4E"/>
<path d="M165.433 134.439C164.222 134.439 163.037 134.08 162.03 133.407C161.023 132.734 160.237 131.777 159.774 130.658C159.31 129.539 159.189 128.307 159.425 127.119C159.662 125.93 160.245 124.839 161.102 123.982C161.958 123.125 163.05 122.542 164.238 122.306C165.426 122.069 166.658 122.191 167.778 122.654C168.897 123.118 169.854 123.903 170.527 124.91C171.2 125.918 171.559 127.102 171.559 128.314C171.559 129.938 170.914 131.496 169.765 132.645C168.616 133.794 167.058 134.439 165.433 134.439ZM165.433 123.913C164.563 123.913 163.712 124.171 162.989 124.655C162.265 125.138 161.701 125.826 161.368 126.63C161.035 127.434 160.948 128.319 161.117 129.172C161.287 130.026 161.706 130.81 162.322 131.425C162.937 132.041 163.721 132.46 164.575 132.63C165.428 132.799 166.313 132.712 167.117 132.379C167.921 132.046 168.609 131.482 169.092 130.758C169.576 130.035 169.834 129.184 169.834 128.314C169.834 127.147 169.37 126.027 168.545 125.202C167.72 124.377 166.6 123.913 165.433 123.913Z" fill="#EAAD4E"/>
<path d="M166.87 68.4167C165.94 68.4182 165.031 68.1438 164.257 67.6283C163.484 67.1127 162.881 66.3793 162.524 65.5207C162.168 64.6621 162.074 63.7171 162.255 62.8053C162.436 61.8935 162.884 61.0559 163.541 60.3985C164.198 59.7412 165.036 59.2937 165.948 59.1127C166.86 58.9317 167.805 59.0254 168.663 59.3818C169.522 59.7383 170.255 60.3414 170.771 61.115C171.286 61.8886 171.56 62.7977 171.559 63.7273C171.557 64.9704 171.062 66.162 170.183 67.041C169.304 67.92 168.113 68.4147 166.87 68.4167ZM166.87 60.7633C166.283 60.7633 165.71 60.9371 165.223 61.2628C164.735 61.5885 164.356 62.0514 164.131 62.5931C163.907 63.1347 163.848 63.7306 163.963 64.3056C164.077 64.8806 164.359 65.4087 164.774 65.8233C165.188 66.2378 165.717 66.5201 166.292 66.6345C166.867 66.7488 167.462 66.6901 168.004 66.4658C168.546 66.2414 169.009 65.8615 169.334 65.3741C169.66 64.8867 169.834 64.3136 169.834 63.7273C169.832 62.9418 169.519 62.1891 168.963 61.6337C168.408 61.0782 167.655 60.7653 166.87 60.7633Z" fill="#EAAD4E"/>
<path d="M75.0063 52.1601C73.1321 52.1586 71.3005 51.6014 69.743 50.5591C68.1854 49.5168 66.9718 48.0361 66.2556 46.3042C65.5395 44.5723 65.3529 42.667 65.7195 40.829C66.086 38.9911 66.9892 37.3031 68.315 35.9784C69.6407 34.6537 71.3295 33.7518 73.1677 33.3868C75.006 33.0217 76.9112 33.2098 78.6425 33.9274C80.3738 34.6449 81.8535 35.8597 82.8946 37.418C83.9357 38.9764 84.4913 40.8085 84.4913 42.6826C84.4873 45.1963 83.4864 47.6057 81.7083 49.3824C79.9301 51.1591 77.5199 52.1581 75.0063 52.1601ZM75.0063 34.938C73.4748 34.9395 71.9783 35.395 70.7057 36.2469C69.4331 37.0988 68.4417 38.3089 67.8567 39.7242C67.2717 41.1394 67.1194 42.6964 67.4191 44.1982C67.7187 45.7 68.4569 47.0792 69.5403 48.1616C70.6237 49.2439 72.0037 49.9808 73.5058 50.279C75.0079 50.5772 76.5647 50.4234 77.9793 49.837C79.394 49.2506 80.6031 48.2579 81.4538 46.9845C82.3045 45.7111 82.7585 44.214 82.7585 42.6826C82.7585 40.6266 81.9417 38.6548 80.4879 37.201C79.0341 35.7472 77.0623 34.9304 75.0063 34.9304V34.938Z" fill="#EAAD4E"/>
</g>
</svg>
