<svg width="177" height="194" viewBox="0 0 177 194" fill="none" xmlns="http://www.w3.org/2000/svg">
<g opacity="0.15">
<path d="M83.8391 178.925C81.9265 178.925 80.0328 178.548 78.2658 177.816C76.4989 177.084 74.8934 176.011 73.541 174.659C72.1886 173.307 71.1159 171.701 70.384 169.934C69.6521 168.167 69.2752 166.273 69.2752 164.361V25.8668H71.12V164.369C71.12 167.74 72.4592 170.973 74.843 173.357C77.2267 175.741 80.4598 177.08 83.831 177.08L116.503 177.007C118.995 176.999 121.383 176.004 123.144 174.241C124.906 172.478 125.898 170.09 125.904 167.597L125.977 25.7617H127.822L127.749 167.589C127.73 170.565 126.54 173.415 124.437 175.521C122.334 177.627 119.487 178.82 116.511 178.844L83.831 178.917L83.8391 178.925Z" fill="#EAAD4E"/>
<path d="M98.573 33.7476C114.235 33.7476 126.932 30.1974 126.932 25.8182C126.932 21.439 114.235 17.8892 98.573 17.8892C82.9107 17.8892 70.2139 21.439 70.2139 25.8182C70.2139 30.1974 82.9107 33.7476 98.573 33.7476Z" fill="#EAAD4E"/>
<path d="M122.069 191.377C120.016 191.378 117.982 190.974 116.085 190.189C114.187 189.404 112.463 188.253 111.011 186.801C109.558 185.35 108.406 183.626 107.62 181.729C106.834 179.832 106.429 177.798 106.429 175.745V135.702H108.274V175.745C108.285 179.39 109.737 182.882 112.315 185.459C114.892 188.036 118.384 189.489 122.029 189.5H169.45C172.022 189.51 174.494 188.5 176.322 186.69C178.15 184.88 179.185 182.419 179.2 179.847L179.289 135.67H181.134L181.045 179.855C181.032 182.91 179.809 185.836 177.643 187.991C175.477 190.146 172.546 191.355 169.491 191.352H122.069V191.377Z" fill="#EAAD4E"/>
<path d="M143.761 141.034C163.87 141.034 180.171 138.694 180.171 135.808C180.171 132.921 163.87 130.581 143.761 130.581C123.653 130.581 107.352 132.921 107.352 135.808C107.352 138.694 123.653 141.034 143.761 141.034Z" fill="#EAAD4E"/>
<path d="M96.89 26.6195L95.644 25.2602C95.7491 25.1469 98.2979 22.4526 96.7525 17.1692C95.7076 13.1489 96.1441 8.88697 97.9824 5.16208L100.741 0L99.6976 5.7608C99.0665 9.24803 98.7266 15.47 100.507 17.2177C100.841 17.5435 101.101 17.9379 101.269 18.3736C101.436 18.8093 101.507 19.2762 101.478 19.7421C101.332 22.8248 97.3431 26.2392 96.89 26.6195ZM98.8885 18.1563C99.0816 19.2072 99.1359 20.279 99.0502 21.3441C99.3704 20.8261 99.5695 20.2426 99.6328 19.6369C99.6474 19.4276 99.6158 19.2177 99.5403 19.022C99.4648 18.8262 99.3474 18.6494 99.196 18.5042C99.0851 18.3959 98.9822 18.2796 98.8885 18.1563Z" fill="#EAAD4E"/>
<path d="M141.658 137.846L140.363 136.503C140.468 136.39 143.017 133.688 141.472 128.412C140.427 124.389 140.863 120.125 142.701 116.397L145.056 112.004L144.425 116.955C144.425 117.028 143.51 124.383 145.412 128.744C147.257 132.862 141.884 137.644 141.658 137.846ZM143.551 128.946C143.732 129.779 143.83 130.627 143.842 131.479C144.041 130.808 144.01 130.091 143.753 129.44C143.68 129.302 143.599 129.141 143.551 128.971V128.946Z" fill="#EAAD4E"/>
<path d="M113.347 104.147L102.805 97.0275L96.4449 75.4488L117.749 50.1482L91.2749 39.6942L91.9463 37.9792L120.815 49.3715L98.5001 75.8775L104.382 95.8704L113.501 102.028L126.204 95.9513L126.997 97.6098L113.347 104.147Z" fill="#EAAD4E"/>
<path d="M96.8171 129.569L78.1432 121.252L78.8956 119.569L95.5227 126.972L102.715 96.1291L104.512 96.5498L96.8171 129.569Z" fill="#EAAD4E"/>
<path d="M108.258 105.927L103.403 98.8882L94.1551 100.409L101.211 95.8945C101.466 95.7335 101.662 95.4949 101.771 95.2138C101.881 94.9326 101.897 94.6239 101.817 94.3329L99.6895 86.2014L105.199 93.4833L113.574 92.4315L106.923 97.1729L108.258 105.927ZM103.492 97.0272C103.768 97.0281 104.04 97.0964 104.284 97.2262C104.528 97.3559 104.737 97.5431 104.892 97.7716L105.248 98.2813L104.957 96.3314L106.575 95.1744L105.038 95.3686C104.843 95.394 104.645 95.3669 104.464 95.2901C104.284 95.2133 104.127 95.0895 104.01 94.9316L103.735 94.5756C103.755 95.0601 103.665 95.5429 103.474 95.9883C103.282 96.4336 102.992 96.8301 102.627 97.1486L103.217 97.0515C103.308 97.035 103.4 97.0269 103.492 97.0272Z" fill="#EAAD4E"/>
<path d="M81.1611 128.065L77.4634 122.668L70.319 123.841L76.0961 120.152C76.1875 120.092 76.2578 120.006 76.297 119.904C76.3362 119.802 76.3424 119.691 76.3146 119.585L74.5506 112.87L78.8875 118.598L85.2066 117.789L80.1659 121.381L81.1611 128.065ZM77.9166 120.783C78.0235 120.799 78.1271 120.832 78.2239 120.88L78.1754 120.524L78.2887 120.443C78.2163 120.426 78.1458 120.402 78.0784 120.37C78.0393 120.521 77.9851 120.667 77.9166 120.807V120.783Z" fill="#EAAD4E"/>
<path d="M93.9287 45.6978L90.1987 40.3011L83.0624 41.4743L88.8314 37.7848C88.9252 37.7274 88.9978 37.6413 89.0386 37.5392C89.0794 37.4372 89.0863 37.3246 89.0579 37.2184L87.294 30.5029L91.6227 36.2313L97.9419 35.4222L92.9012 39.0146L93.9287 45.6978ZM90.6923 38.4159C90.8015 38.4333 90.9077 38.466 91.0078 38.513L90.9511 38.1651L91.0726 38.0761C90.9998 38.0604 90.9291 38.0359 90.8622 38.0033C90.8113 38.1534 90.7491 38.2994 90.6761 38.4402L90.6923 38.4159Z" fill="#EAAD4E"/>
<path d="M112.344 59.2341L115.823 51.6205C115.942 51.3489 115.973 51.0471 115.912 50.757C115.851 50.4669 115.701 50.2031 115.483 50.0023L109.277 44.3385L117.862 47.4698L124.335 42.0326L121.317 49.6301L127.175 56.2647L119.294 52.9797L112.344 59.2341ZM117.199 49.1446C117.476 49.5425 117.662 49.9971 117.744 50.4755C117.825 50.954 117.799 51.4445 117.668 51.9117L118.105 51.5072C118.347 51.2925 118.644 51.1499 118.963 51.0956C119.282 51.0412 119.609 51.0773 119.909 51.1997L120.475 51.4425L119.173 49.9537L119.909 48.109L118.728 49.1042C118.576 49.231 118.394 49.3158 118.199 49.3499C118.005 49.384 117.805 49.3662 117.619 49.2983L117.199 49.1446Z" fill="#EAAD4E"/>
<path d="M99.6084 85.255C99.9874 85.1401 100.392 85.1409 100.771 85.2573C101.149 85.3737 101.485 85.6004 101.734 85.9085C101.983 86.2165 102.134 86.5918 102.169 86.9864C102.203 87.381 102.119 87.7769 101.927 88.1235C101.736 88.4701 101.445 88.7515 101.092 88.9319C100.74 89.1123 100.341 89.1833 99.9479 89.1359C99.5547 89.0886 99.1845 88.9249 98.8848 88.666C98.5851 88.407 98.3693 88.0646 98.2653 87.6824C98.1272 87.1825 98.1905 86.6484 98.4415 86.1946C98.6926 85.7408 99.1115 85.4035 99.6084 85.255Z" fill="#EAAD4E"/>
<path d="M100.167 89.26C99.7134 89.2609 99.2718 89.1147 98.9085 88.8434C98.5453 88.572 98.28 88.1901 98.1522 87.7551C98.074 87.49 98.0487 87.2121 98.0779 86.9373C98.1072 86.6624 98.1904 86.396 98.3227 86.1533C98.4549 85.9106 98.6336 85.6963 98.8487 85.5228C99.0638 85.3492 99.311 85.2197 99.5762 85.1417C100.113 84.984 100.69 85.0458 101.181 85.3137C101.671 85.5815 102.036 86.0333 102.194 86.5698C102.351 87.1062 102.29 87.6834 102.022 88.1743C101.754 88.6651 101.302 89.0295 100.766 89.1872C100.57 89.2392 100.369 89.2637 100.167 89.26ZM100.167 85.2793C99.986 85.2823 99.8063 85.3095 99.6327 85.3602C99.1553 85.5008 98.7535 85.8253 98.5152 86.2623C98.277 86.6993 98.2221 87.2129 98.3626 87.6904C98.449 87.9873 98.6074 88.2582 98.8238 88.4791C99.0402 88.7 99.3078 88.864 99.6029 88.9566C99.8979 89.0491 100.211 89.0673 100.515 89.0096C100.819 88.9519 101.104 88.82 101.344 88.6257C101.585 88.4314 101.774 88.1806 101.894 87.8958C102.014 87.6109 102.062 87.3007 102.034 86.9928C102.005 86.6849 101.901 86.3888 101.731 86.1308C101.56 85.8727 101.329 85.6609 101.057 85.5139C100.787 85.3624 100.484 85.2817 100.175 85.2793H100.167Z" fill="#EAAD4E"/>
<path d="M109.342 63.9026C108.77 63.9023 108.217 63.696 107.785 63.3215C107.353 62.9469 107.07 62.4292 106.989 61.8631C106.907 61.297 107.032 60.7205 107.341 60.2392C107.65 59.7578 108.122 59.4039 108.671 59.2422C108.998 59.1457 109.342 59.1207 109.68 59.169C110.017 59.2172 110.341 59.3375 110.628 59.5218C110.915 59.706 111.159 59.9499 111.344 60.2368C111.528 60.5237 111.649 60.8469 111.698 61.1846C111.746 61.5222 111.722 61.8664 111.626 62.1937C111.53 62.5211 111.364 62.8239 111.141 63.0817C110.917 63.3395 110.641 63.5463 110.331 63.6879C110.021 63.8295 109.683 63.9027 109.342 63.9026ZM109.188 61.006C109.121 61.0263 109.058 61.0599 109.003 61.1048C108.948 61.1496 108.903 61.2049 108.87 61.2674C108.837 61.3298 108.817 61.3983 108.81 61.4687C108.804 61.5391 108.811 61.6101 108.832 61.6776C108.852 61.745 108.884 61.8078 108.929 61.8624C108.973 61.917 109.027 61.9622 109.089 61.9954C109.151 62.0286 109.219 62.049 109.288 62.0556C109.358 62.0621 109.429 62.0547 109.496 62.0336C109.563 62.014 109.626 61.9814 109.681 61.9374C109.736 61.8935 109.782 61.8391 109.816 61.7775C109.85 61.7158 109.871 61.6481 109.879 61.5782C109.886 61.5083 109.88 61.4376 109.86 61.3701C109.819 61.2331 109.725 61.1179 109.599 61.0497C109.473 60.9815 109.326 60.9658 109.188 61.006Z" fill="#EAAD4E"/>
<path d="M84.3003 125.168C83.755 125.177 83.2252 124.986 82.8103 124.632C82.3954 124.278 82.1238 123.785 82.0464 123.245C81.969 122.705 82.0912 122.156 82.3899 121.699C82.6887 121.243 83.1434 120.911 83.6692 120.766C83.9523 120.682 84.2494 120.655 84.5433 120.686C84.8371 120.716 85.1218 120.805 85.3812 120.946C85.6406 121.088 85.8696 121.279 86.0548 121.509C86.24 121.739 86.3779 122.004 86.4605 122.288C86.5551 122.623 86.5712 122.975 86.5073 123.318C86.4435 123.66 86.3015 123.983 86.0925 124.262C85.8835 124.54 85.6132 124.767 85.3024 124.924C84.9915 125.081 84.6486 125.165 84.3003 125.168ZM84.3003 122.514H84.1871C84.084 122.545 83.9968 122.614 83.9443 122.708C83.9071 122.807 83.9071 122.917 83.9443 123.016C83.9762 123.118 84.0462 123.203 84.1397 123.254C84.2332 123.306 84.3429 123.319 84.4459 123.291C84.4975 123.277 84.5457 123.253 84.5875 123.219C84.6293 123.186 84.6637 123.144 84.6886 123.097C84.7091 123.048 84.7197 122.996 84.7197 122.943C84.7197 122.89 84.7091 122.838 84.6886 122.789C84.658 122.686 84.5884 122.599 84.4945 122.546C84.4327 122.522 84.3666 122.511 84.3003 122.514Z" fill="#EAAD4E"/>
<path d="M93.9288 41.7819C93.5616 41.7841 93.2001 41.6902 92.8805 41.5094C92.5608 41.3287 92.2941 41.0674 92.1067 40.7516C91.9194 40.4358 91.818 40.0765 91.8126 39.7093C91.8072 39.3421 91.8979 38.98 92.0759 38.6588C92.2059 38.4134 92.3839 38.1968 92.5994 38.0217C92.8148 37.8465 93.0634 37.7165 93.3301 37.6393C93.8467 37.5405 94.3815 37.6373 94.8307 37.9109C95.28 38.1845 95.6116 38.6153 95.7609 39.1197C95.9102 39.6241 95.8666 40.166 95.6386 40.64C95.4107 41.1141 95.0147 41.4865 94.5275 41.6848C94.3334 41.7449 94.1319 41.7776 93.9288 41.7819ZM93.9288 39.395H93.8559C93.8213 39.4038 93.7888 39.4199 93.7609 39.4423C93.733 39.4646 93.7103 39.4926 93.6941 39.5245C93.6805 39.5565 93.6736 39.5909 93.6736 39.6256C93.6736 39.6604 93.6805 39.6948 93.6941 39.7268C93.7148 39.7963 93.762 39.8549 93.8257 39.8898C93.8893 39.9246 93.9641 39.9329 94.0339 39.9129C94.094 39.8914 94.1449 39.8498 94.1777 39.7949C94.2105 39.7401 94.2232 39.6756 94.2136 39.6125C94.2041 39.5494 94.1727 39.4915 94.1251 39.4489C94.0776 39.4063 94.0167 39.3815 93.9529 39.3788L93.9288 39.395Z" fill="#EAAD4E"/>
<path d="M162.63 186.376L150.679 164.782L136.253 163.641L130.104 167.945L130.897 177.703L129.052 177.848L128.178 167.047L135.735 161.747L151.812 163.026L163.002 183.245L176.311 168.706L177.679 169.952L162.63 186.376Z" fill="#EAAD4E"/>
<path d="M135.646 163.552L113.056 152.168L123.793 141.536L125.095 142.847L116.171 151.674L136.479 161.909L135.646 163.552Z" fill="#EAAD4E"/>
<path d="M136.123 171.408L134.448 164.935L127.361 163.374L134.198 161.756L135.759 154.15L137.216 161.23C137.25 161.383 137.33 161.522 137.446 161.628C137.562 161.733 137.707 161.801 137.863 161.82L145.145 162.63L137.79 164.757L136.123 171.408ZM135.355 163.253L135.953 163.39L136.075 163.859C136.133 163.6 136.29 163.374 136.512 163.228C136.26 163.068 136.041 162.862 135.864 162.621C135.759 162.877 135.582 163.096 135.355 163.253Z" fill="#EAAD4E"/>
<path d="M124.359 149.263L123.032 144.158L117.368 142.912L122.838 141.601L124.092 135.476L125.338 141.504C125.343 141.523 125.353 141.54 125.367 141.553C125.382 141.566 125.4 141.574 125.419 141.577L131.649 142.256L125.613 144.004L124.359 149.263Z" fill="#EAAD4E"/>
<path d="M177.638 175.478L176.311 170.373L170.648 169.127L176.109 167.816L177.371 161.691L178.609 167.719C178.613 167.738 178.623 167.756 178.637 167.769C178.652 167.782 178.671 167.79 178.69 167.791L184.928 168.471L178.893 170.219L177.638 175.478Z" fill="#EAAD4E"/>
<path d="M144.408 162.888C144.375 163.258 144.198 163.601 143.915 163.841C143.632 164.082 143.266 164.202 142.895 164.175C142.617 164.153 142.352 164.049 142.133 163.877C141.915 163.704 141.752 163.47 141.666 163.205C141.58 162.94 141.575 162.655 141.651 162.387C141.727 162.119 141.881 161.879 142.094 161.699C142.306 161.518 142.567 161.405 142.844 161.373C143.121 161.341 143.401 161.392 143.649 161.519C143.897 161.646 144.101 161.845 144.237 162.088C144.372 162.332 144.432 162.611 144.408 162.888Z" fill="#EAAD4E"/>
<path d="M142.985 164.288H142.863C142.465 164.255 142.096 164.067 141.836 163.764C141.576 163.461 141.445 163.068 141.472 162.67C141.503 162.271 141.69 161.901 141.994 161.64C142.297 161.379 142.691 161.249 143.09 161.278C143.489 161.309 143.859 161.497 144.12 161.8C144.38 162.103 144.511 162.497 144.482 162.896C144.467 163.094 144.412 163.287 144.322 163.463C144.232 163.64 144.107 163.796 143.956 163.924C143.687 164.159 143.342 164.288 142.985 164.288ZM142.985 161.48C142.66 161.48 142.348 161.602 142.111 161.823C141.873 162.044 141.729 162.346 141.706 162.67C141.692 162.839 141.711 163.009 141.763 163.171C141.814 163.332 141.897 163.482 142.007 163.611C142.117 163.741 142.251 163.847 142.402 163.924C142.554 164.001 142.718 164.048 142.888 164.061C143.228 164.086 143.565 163.976 143.825 163.755C144.085 163.534 144.248 163.22 144.279 162.88C144.306 162.536 144.195 162.196 143.972 161.933C143.862 161.804 143.727 161.699 143.575 161.622C143.424 161.546 143.259 161.5 143.09 161.488L142.985 161.48Z" fill="#EAAD4E"/>
<path d="M119.868 148.891H119.723C119.231 148.852 118.774 148.619 118.453 148.244C118.133 147.868 117.976 147.381 118.015 146.889C118.055 146.398 118.288 145.942 118.663 145.622C118.848 145.464 119.063 145.344 119.295 145.27C119.526 145.195 119.771 145.166 120.013 145.186C120.256 145.205 120.492 145.272 120.709 145.383C120.926 145.494 121.119 145.647 121.276 145.833C121.436 146.017 121.557 146.231 121.633 146.463C121.709 146.694 121.739 146.938 121.72 147.181C121.701 147.424 121.635 147.661 121.524 147.878C121.413 148.095 121.26 148.288 121.074 148.446C120.739 148.735 120.311 148.893 119.868 148.891ZM119.868 147.022C119.868 147.022 119.877 147.022 119.868 147.022V147.022Z" fill="#EAAD4E"/>
<path d="M175.858 172.403H175.721C175.432 172.38 175.153 172.286 174.909 172.13C174.665 171.973 174.463 171.759 174.321 171.506C174.18 171.253 174.103 170.969 174.097 170.679C174.092 170.389 174.158 170.102 174.29 169.844C174.421 169.586 174.614 169.364 174.852 169.198C175.09 169.032 175.365 168.928 175.653 168.893C175.941 168.859 176.233 168.897 176.503 169.002C176.773 169.108 177.013 169.278 177.201 169.499C177.353 169.673 177.467 169.876 177.538 170.096C177.609 170.315 177.635 170.547 177.614 170.777C177.599 171.008 177.537 171.234 177.433 171.441C177.329 171.648 177.184 171.832 177.007 171.982C176.687 172.255 176.279 172.405 175.858 172.403ZM175.777 170.631C175.777 170.672 175.818 170.72 175.85 170.72C175.861 170.723 175.872 170.723 175.883 170.72C175.894 170.718 175.904 170.713 175.913 170.706C175.921 170.699 175.928 170.69 175.933 170.68C175.937 170.67 175.939 170.659 175.939 170.647C175.938 170.627 175.931 170.607 175.917 170.591C175.904 170.575 175.886 170.564 175.866 170.558C175.802 170.55 175.785 170.599 175.777 170.631Z" fill="#EAAD4E"/>
<path d="M89.0094 151.634C89.0078 151.177 89.1415 150.731 89.394 150.35C89.6464 149.97 90.006 149.673 90.4273 149.497C90.8485 149.322 91.3124 149.275 91.7602 149.363C92.2081 149.451 92.6196 149.67 92.9429 149.992C93.2662 150.314 93.4867 150.725 93.5764 151.173C93.666 151.62 93.6207 152.084 93.4464 152.506C93.2721 152.928 92.9766 153.289 92.5972 153.542C92.2178 153.796 91.7716 153.932 91.3152 153.932C91.0127 153.933 90.7131 153.874 90.4334 153.759C90.1537 153.644 89.8994 153.475 89.6851 153.261C89.4709 153.048 89.3009 152.794 89.185 152.515C89.069 152.236 89.0094 151.936 89.0094 151.634Z" fill="#EAAD4E"/>
<path d="M91.3152 154.045C90.8351 154.045 90.366 153.902 89.9668 153.636C89.5677 153.369 89.2565 152.99 89.0728 152.546C88.8891 152.103 88.8411 151.615 88.9347 151.144C89.0284 150.673 89.2596 150.24 89.599 149.901C89.9385 149.561 90.3709 149.33 90.8417 149.237C91.3126 149.143 91.8007 149.191 92.2442 149.375C92.6877 149.559 93.0669 149.87 93.3336 150.269C93.6003 150.668 93.7425 151.137 93.7425 151.617C93.7425 152.261 93.4868 152.879 93.0316 153.334C92.5764 153.789 91.959 154.045 91.3152 154.045ZM91.3152 149.441C90.8812 149.439 90.4565 149.566 90.0948 149.806C89.7332 150.046 89.451 150.388 89.2838 150.789C89.1166 151.189 89.0721 151.63 89.1558 152.056C89.2394 152.482 89.4476 152.874 89.7539 153.181C90.0602 153.489 90.4509 153.698 90.8765 153.783C91.302 153.869 91.7433 153.826 92.1445 153.66C92.5456 153.494 92.8885 153.213 93.1298 152.853C93.3711 152.492 93.4999 152.068 93.4999 151.634C93.4999 151.053 93.27 150.497 92.8605 150.086C92.4511 149.675 91.8953 149.443 91.3152 149.441Z" fill="#EAAD4E"/>
<path d="M158.568 156.488C158.568 156.083 158.688 155.688 158.913 155.351C159.138 155.014 159.457 154.752 159.831 154.597C160.206 154.442 160.617 154.402 161.014 154.481C161.411 154.56 161.776 154.755 162.062 155.041C162.349 155.327 162.544 155.692 162.623 156.089C162.702 156.486 162.661 156.898 162.506 157.272C162.351 157.646 162.089 157.965 161.752 158.19C161.415 158.415 161.02 158.535 160.615 158.535C160.072 158.535 159.551 158.32 159.167 157.936C158.783 157.552 158.568 157.031 158.568 156.488Z" fill="#EAAD4E"/>
<path d="M160.591 158.649C160.163 158.649 159.746 158.522 159.39 158.284C159.035 158.047 158.758 157.71 158.595 157.315C158.431 156.92 158.389 156.486 158.472 156.067C158.555 155.648 158.761 155.263 159.063 154.961C159.365 154.659 159.75 154.453 160.169 154.369C160.588 154.286 161.023 154.329 161.417 154.492C161.812 154.656 162.149 154.933 162.387 155.288C162.624 155.643 162.751 156.061 162.751 156.488C162.749 157.061 162.52 157.609 162.116 158.013C161.711 158.418 161.163 158.646 160.591 158.649ZM160.591 154.554C160.208 154.554 159.834 154.668 159.516 154.88C159.198 155.093 158.951 155.395 158.804 155.748C158.658 156.102 158.619 156.49 158.694 156.866C158.769 157.241 158.953 157.585 159.223 157.856C159.494 158.126 159.838 158.31 160.213 158.385C160.588 158.459 160.977 158.421 161.331 158.275C161.684 158.128 161.986 157.881 162.199 157.563C162.411 157.245 162.524 156.871 162.524 156.488C162.524 155.975 162.321 155.484 161.958 155.121C161.595 154.758 161.104 154.554 160.591 154.554Z" fill="#EAAD4E"/>
<path d="M93.1924 128.267C93.1924 127.678 93.3671 127.102 93.6943 126.612C94.0215 126.123 94.4863 125.741 95.0304 125.516C95.5745 125.29 96.1732 125.232 96.7507 125.346C97.3283 125.461 97.8589 125.745 98.2753 126.161C98.6917 126.578 98.9753 127.108 99.0901 127.686C99.205 128.263 99.146 128.862 98.9207 129.406C98.6953 129.95 98.3138 130.415 97.8241 130.742C97.3345 131.07 96.7587 131.244 96.1698 131.244C95.3801 131.244 94.6229 130.931 94.0645 130.372C93.5061 129.814 93.1924 129.056 93.1924 128.267Z" fill="#EAAD4E"/>
<path d="M96.1699 131.358C95.5586 131.358 94.9612 131.176 94.4529 130.837C93.9446 130.497 93.5485 130.014 93.3145 129.45C93.0806 128.885 93.0193 128.263 93.1385 127.664C93.2578 127.064 93.5523 126.514 93.9846 126.081C94.4168 125.649 94.9675 125.355 95.567 125.236C96.1666 125.116 96.788 125.177 97.3527 125.411C97.9175 125.645 98.4002 126.041 98.7398 126.55C99.0794 127.058 99.2607 127.656 99.2607 128.267C99.2607 128.673 99.1808 129.075 99.0255 129.45C98.8701 129.825 98.6424 130.165 98.3554 130.452C98.0684 130.739 97.7277 130.967 97.3527 131.122C96.9777 131.278 96.5758 131.358 96.1699 131.358ZM96.1699 125.403C95.6034 125.403 95.0498 125.571 94.5787 125.885C94.1077 126.2 93.7405 126.647 93.5237 127.171C93.3069 127.694 93.2502 128.27 93.3607 128.826C93.4713 129.381 93.7442 129.892 94.1448 130.292C94.5453 130.693 95.0557 130.966 95.6113 131.076C96.1669 131.187 96.7426 131.13 97.266 130.913C97.7894 130.696 98.2368 130.329 98.5516 129.858C98.8663 129.387 99.0341 128.833 99.0341 128.267C99.032 127.508 98.7295 126.781 98.1928 126.244C97.6562 125.707 96.9289 125.405 96.1699 125.403Z" fill="#EAAD4E"/>
<path d="M79.292 55.1888C79.292 54.3791 79.5322 53.5875 79.982 52.9143C80.4319 52.241 81.0712 51.7163 81.8193 51.4064C82.5674 51.0965 83.3906 51.0155 84.1848 51.1734C84.9789 51.3314 85.7084 51.7213 86.281 52.2939C86.8536 52.8664 87.2434 53.5959 87.4014 54.3901C87.5594 55.1843 87.4784 56.0074 87.1685 56.7555C86.8587 57.5036 86.3338 58.143 85.6605 58.5929C84.9873 59.0428 84.1959 59.2829 83.3861 59.2829C82.301 59.2807 81.2608 58.8487 80.4934 58.0814C79.7261 57.3141 79.2942 56.274 79.292 55.1888Z" fill="#EAAD4E"/>
<path d="M83.3862 59.4284C82.5537 59.43 81.7393 59.1846 81.0464 58.7233C80.3534 58.2619 79.813 57.6054 79.4934 56.8367C79.1737 56.0681 79.0892 55.2219 79.2506 54.4052C79.412 53.5885 79.812 52.8381 80.4 52.2489C80.9881 51.6597 81.7378 51.2582 82.5542 51.0952C83.3705 50.9322 84.2169 51.015 84.9862 51.3332C85.7555 51.6514 86.413 52.1907 86.8756 52.8827C87.3383 53.5748 87.5854 54.3886 87.5854 55.2211C87.5854 56.3355 87.1432 57.4044 86.3559 58.1932C85.5686 58.982 84.5006 59.4262 83.3862 59.4284ZM83.3862 51.2403C82.5988 51.2403 81.8292 51.4737 81.1746 51.9111C80.5199 52.3486 80.0096 52.9703 79.7083 53.6977C79.407 54.4251 79.3283 55.2255 79.4819 55.9977C79.6355 56.7699 80.0146 57.4792 80.5713 58.0359C81.128 58.5926 81.8373 58.9718 82.6095 59.1254C83.3817 59.279 84.1822 59.2001 84.9096 58.8988C85.6369 58.5975 86.2586 58.0873 86.6961 57.4327C87.1335 56.778 87.3669 56.0084 87.3669 55.2211C87.3647 54.1659 86.9447 53.1547 86.1987 52.4086C85.4526 51.6625 84.4413 51.2424 83.3862 51.2403Z" fill="#EAAD4E"/>
<path d="M122.765 97.4158C122.765 97.1629 122.84 96.9158 122.981 96.7055C123.121 96.4953 123.321 96.3315 123.554 96.2347C123.788 96.1379 124.045 96.1126 124.293 96.162C124.541 96.2113 124.769 96.3331 124.947 96.5118C125.126 96.6906 125.248 96.9184 125.297 97.1664C125.347 97.4144 125.321 97.6714 125.225 97.905C125.128 98.1386 124.964 98.3382 124.754 98.4787C124.543 98.6192 124.296 98.6942 124.044 98.6942C123.704 98.6942 123.379 98.5595 123.14 98.3197C122.9 98.08 122.765 97.7548 122.765 97.4158Z" fill="#EAAD4E"/>
<path d="M124.044 98.8074C123.768 98.8074 123.499 98.7257 123.27 98.5728C123.042 98.4199 122.863 98.2026 122.758 97.9483C122.653 97.694 122.625 97.4141 122.679 97.1442C122.732 96.8742 122.865 96.6263 123.059 96.4317C123.254 96.237 123.502 96.1045 123.772 96.0508C124.042 95.9971 124.322 96.0246 124.576 96.13C124.83 96.2353 125.048 96.4137 125.201 96.6425C125.353 96.8714 125.435 97.1405 125.435 97.4157C125.435 97.5985 125.399 97.7794 125.329 97.9483C125.259 98.1171 125.157 98.2705 125.028 98.3997C124.898 98.529 124.745 98.6315 124.576 98.7014C124.407 98.7714 124.226 98.8074 124.044 98.8074ZM124.044 96.2506C123.813 96.2506 123.588 96.3189 123.396 96.4469C123.205 96.575 123.055 96.7569 122.967 96.9698C122.879 97.1827 122.856 97.417 122.901 97.643C122.946 97.869 123.057 98.0766 123.22 98.2395C123.383 98.4025 123.59 98.5135 123.816 98.5584C124.042 98.6034 124.277 98.5803 124.489 98.4921C124.702 98.4039 124.884 98.2546 125.012 98.063C125.14 97.8714 125.209 97.6461 125.209 97.4157C125.207 97.1074 125.083 96.8122 124.865 96.5942C124.647 96.3761 124.352 96.2527 124.044 96.2506Z" fill="#EAAD4E"/>
<path d="M185.132 43.3052C188.711 33.6041 183.748 22.8384 174.047 19.2595C164.346 15.6806 153.581 20.6437 150.002 30.3448C146.423 40.0459 151.386 50.8114 161.087 54.3903C170.788 57.9692 181.553 53.0063 185.132 43.3052Z" fill="#EAAD4E"/>
<path d="M0 77.3905C0 75.2973 0.62066 73.2512 1.78354 71.5108C2.94642 69.7704 4.59927 68.414 6.53307 67.613C8.46687 66.812 10.5948 66.6024 12.6478 67.0108C14.7007 67.4191 16.5863 68.427 18.0663 69.9071C19.5464 71.3872 20.5544 73.2729 20.9628 75.3258C21.3711 77.3787 21.1615 79.5066 20.3605 81.4404C19.5595 83.3742 18.2031 85.0271 16.4627 86.1899C14.7224 87.3528 12.6763 87.9735 10.5831 87.9735C7.77632 87.9735 5.08442 86.8585 3.09971 84.8738C1.11501 82.8891 0 80.1973 0 77.3905Z" fill="#EAAD4E"/>
<path d="M99.4062 189.953C98.3544 189.953 97.3107 189.953 96.267 189.904L96.3318 188.059C97.335 188.059 98.3626 188.108 99.3659 188.108H101.065V189.953H99.4062ZM105.879 189.726L105.75 187.881C107.319 187.776 108.905 187.622 110.467 187.428L110.685 189.265C109.14 189.5 107.522 189.613 105.92 189.726H105.879ZM91.4124 189.621C89.7942 189.483 88.176 189.305 86.6063 189.087L86.8572 187.258C88.4107 187.469 89.9964 187.647 91.566 187.784L91.4124 189.621ZM115.467 188.553L115.143 186.732C116.697 186.465 118.25 186.142 119.78 185.794L120.192 187.59C118.679 187.946 117.085 188.27 115.507 188.553H115.467ZM81.8406 188.302C80.271 188.003 78.6852 187.655 77.1237 187.275L77.5685 185.486C79.0896 185.859 80.6514 186.198 82.1887 186.49L81.8406 188.302ZM124.869 186.385L124.367 184.613C125.872 184.176 127.393 183.698 128.882 183.189L129.481 184.936C128 185.454 126.454 185.94 124.909 186.385H124.869ZM72.4713 185.996C70.9341 185.535 69.3885 185.017 67.8755 184.475L68.4985 182.735C69.9792 183.27 71.4923 183.779 73.0053 184.232L72.4713 185.996ZM134.003 183.245L133.308 181.53C134.764 180.947 136.22 180.308 137.644 179.645L138.453 181.32C137.013 181.991 135.508 182.638 134.044 183.245H134.003ZM63.3689 182.711C61.8883 182.088 60.4075 181.417 58.9592 180.713L59.7683 179.095C61.1842 179.782 62.6407 180.446 64.0809 181.053L63.3689 182.711ZM142.734 179.167L141.868 177.549C143.252 176.813 144.635 176.028 145.986 175.219L146.933 176.837C145.598 177.622 144.19 178.415 142.79 179.167H142.734ZM54.6711 178.488C53.2633 177.719 51.8634 176.87 50.496 176.06L51.4669 174.499C52.81 175.308 54.1855 176.117 55.561 176.926L54.6711 178.488ZM151.003 174.199L149.975 172.67C151.278 171.796 152.572 170.874 153.826 169.927L154.935 171.4C153.697 172.363 152.37 173.318 151.043 174.199H151.003ZM46.4586 173.39C45.1478 172.468 43.8371 171.505 42.5668 170.526L43.6996 169.07C44.9456 170.033 46.224 170.979 47.5105 171.877L46.4586 173.39ZM158.713 168.398L157.532 166.99C158.738 165.979 159.96 164.927 161.084 163.859L162.338 165.21C161.205 166.303 159.984 167.371 158.754 168.398H158.713ZM38.8288 167.46C37.6233 166.416 36.4016 165.324 35.2607 164.223L36.5309 162.896C37.6717 163.989 38.8531 165.057 40.0344 166.084L38.8288 167.46ZM165.785 161.796L164.466 160.509C165.559 159.385 166.635 158.212 167.703 157.022L169.094 158.244C168.042 159.49 166.942 160.687 165.825 161.836L165.785 161.796ZM31.9433 160.776C30.843 159.611 29.7588 158.398 28.7069 157.176L30.1148 155.987C31.1342 157.184 32.1941 158.373 33.2702 159.514L31.9433 160.776ZM172.225 154.563L170.777 153.422C171.748 152.184 172.703 150.905 173.609 149.627L175.114 150.687C174.151 151.998 173.18 153.3 172.185 154.563H172.225ZM25.7052 153.414C24.7343 152.143 23.7795 150.824 22.8814 149.506L24.4025 148.462C25.2844 149.757 26.215 151.051 27.1697 152.297L25.7052 153.414ZM177.816 146.666L176.255 145.687C177.064 144.36 177.873 142.984 178.682 141.641L180.3 142.547C179.443 143.915 178.609 145.314 177.76 146.666H177.816ZM20.2762 145.452C19.4671 144.077 18.658 142.669 17.8488 141.269L19.4671 140.387C20.2114 141.763 21.0043 143.146 21.8215 144.489L20.2762 145.452ZM182.534 138.235L180.915 137.426C181.611 136.018 182.275 134.562 182.898 133.121L184.588 133.85C183.868 135.29 183.189 136.795 182.477 138.235H182.534ZM15.6965 136.965C15.0169 135.516 14.3616 134.036 13.7466 132.555L15.4539 131.851C16.0527 133.307 16.6918 134.756 17.3633 136.172L15.6965 136.965ZM186.344 129.343L184.621 128.704C185.163 127.231 185.673 125.718 186.142 124.213L187.898 124.755C187.372 126.293 186.846 127.838 186.288 129.343H186.344ZM11.9748 128.008C11.4408 126.495 10.9471 124.949 10.494 123.412L12.2659 122.894C12.7028 124.399 13.1964 125.912 13.7142 127.401L11.9748 128.008ZM189.168 120.079L187.38 119.626C187.76 118.096 188.116 116.543 188.416 115.006L190.228 115.37C189.896 116.964 189.54 118.549 189.152 120.111L189.168 120.079ZM9.28848 118.776C8.9163 117.214 8.58459 115.62 8.3014 114.051L10.1138 113.719C10.397 115.264 10.7206 116.818 11.0847 118.355L9.28848 118.776ZM191.053 110.636L189.225 110.377C189.451 108.816 189.637 107.238 189.783 105.677L191.612 105.838C191.442 107.44 191.248 109.051 191.021 110.636H191.053ZM7.56519 109.277C7.35483 107.659 7.19292 106.041 7.07155 104.479L8.90823 104.333C9.0296 105.911 9.1913 107.489 9.39357 109.042L7.56519 109.277ZM191.927 101.024L190.082 100.951C190.131 99.762 190.155 98.5241 190.155 97.3509C190.155 96.9706 190.155 96.5985 190.155 96.2182H192C192 96.6065 192 97.0273 192 97.3752C191.968 98.5727 191.943 99.8106 191.895 101.024H191.927ZM6.79639 99.6892C6.79639 98.9206 6.79639 98.1519 6.79639 97.3833C6.79639 95.7651 6.84506 94.1469 6.92597 92.5287L8.76265 92.6177C8.68174 94.1873 8.64116 95.7813 8.64116 97.3509C8.64116 98.1034 8.64116 98.8559 8.64116 99.6083L6.79639 99.6892ZM189.937 91.5173C189.84 89.9476 189.694 88.3618 189.516 86.8083L191.345 86.598C191.531 88.2162 191.676 89.8344 191.773 91.404L189.937 91.5173ZM9.09431 87.933L7.26573 87.7469C7.42755 86.1287 7.63793 84.5105 7.88875 82.957L9.70923 83.2402C9.4665 84.7613 9.28849 86.339 9.09431 87.9006V87.933ZM188.844 82.1236C188.585 80.5702 188.278 79.0086 187.93 77.4794L189.734 77.0748C190.082 78.6364 190.398 80.2303 190.665 81.8162L188.844 82.1236ZM10.5588 78.5879L8.75455 78.2076C9.08628 76.5894 9.46647 75.0521 9.87911 73.5067L11.6591 73.9841C11.2545 75.4647 10.9067 77.0344 10.5588 78.5555V78.5879ZM186.781 72.9241C186.352 71.4111 185.891 69.89 185.381 68.4012L187.129 67.8106C187.647 69.3317 188.124 70.8852 188.553 72.4225L186.781 72.9241ZM12.9942 69.4774L11.2383 68.911C11.7319 67.3818 12.274 65.8445 12.8566 64.3477L14.58 65.003C14.0056 66.4109 13.4797 67.9158 12.9942 69.4126V69.4774ZM183.755 63.9593C183.173 62.4948 182.55 61.0384 181.902 59.6144L183.577 58.8457C184.241 60.294 184.88 61.7828 185.47 63.2796L183.755 63.9593ZM16.3843 60.6177L14.6932 59.8733C15.3486 58.4008 16.0445 56.9363 16.7727 55.5042L18.3909 56.3133C17.7031 57.6807 17.0235 59.1209 16.3843 60.553V60.6177ZM179.823 55.3747C179.095 53.9831 178.318 52.5914 177.525 51.2402L179.143 50.3016C179.952 51.6771 180.762 53.093 181.49 54.5171L179.823 55.3747ZM20.6807 52.1383L19.0625 51.224C19.8716 49.8324 20.6806 48.4407 21.5868 47.0976L23.1323 48.1009C22.2908 49.3873 21.4655 50.7466 20.6726 52.1059L20.6807 52.1383ZM175.009 47.2028C174.143 45.9001 173.229 44.5975 172.29 43.3353L173.771 42.2349C174.726 43.5214 175.656 44.8483 176.546 46.1833L175.009 47.2028ZM25.8346 44.1929L24.3379 43.1087C25.2845 41.8142 26.2715 40.5196 27.2748 39.2736L28.715 40.4306C27.7198 41.62 26.7489 42.8903 25.8265 44.1605L25.8346 44.1929ZM169.369 39.6134C168.374 38.3997 167.322 37.1861 166.262 36.0453L167.622 34.7992C168.706 35.9805 169.774 37.2265 170.793 38.4402L169.369 39.6134ZM31.7816 36.822L30.4061 35.5922C31.4822 34.3947 32.5987 33.2134 33.7233 32.0807L35.0342 33.3833C33.9176 34.4594 32.8253 35.6164 31.7735 36.7896L31.7816 36.822ZM162.977 32.6389C161.853 31.5386 160.688 30.4544 159.514 29.4025L160.736 28.027C161.934 29.087 163.123 30.1874 164.264 31.3201L162.977 32.6389ZM38.4162 30.1064L37.1782 28.7391C38.3595 27.663 39.6055 26.603 40.8354 25.5917L42.0004 27.0238C40.8434 27.9866 39.6055 29.0303 38.4162 30.1064ZM155.849 26.3603C154.619 25.3813 153.349 24.4185 152.071 23.5042L153.139 22.0073C154.45 22.9378 155.744 23.9168 156.998 24.9201L155.849 26.3603ZM45.7467 24.1272L44.6543 22.6384C45.9408 21.6918 47.2759 20.7694 48.619 19.8875L49.6304 21.4329C48.3439 22.2662 47.0413 23.1724 45.7791 24.1029L45.7467 24.1272ZM148.147 20.8503C146.82 20.0412 145.452 19.1755 144.101 18.423L145.015 16.8048C146.407 17.6139 147.799 18.423 149.15 19.3049L148.147 20.8503ZM53.6516 18.9408L52.721 17.3226C54.0965 16.5135 55.5205 15.7044 56.9445 15.0005L57.7536 16.6187C56.4267 17.3631 55.0352 18.1237 53.684 18.9166L53.6516 18.9408ZM139.902 16.1737C138.502 15.4698 137.054 14.7901 135.614 14.159L136.35 12.468C137.822 13.1153 139.295 13.803 140.727 14.5231L139.902 16.1737ZM62.0419 14.6121L61.2895 12.9292C62.7459 12.2738 64.2427 11.6427 65.7315 11.0602L66.4031 12.7836C64.971 13.3257 63.4983 13.9244 62.0743 14.5879L62.0419 14.6121ZM131.22 12.379C129.739 11.8288 128.235 11.3029 126.738 10.8336L127.296 9.06979C128.817 9.55525 130.363 10.0893 131.867 10.688L131.22 12.379ZM70.8531 11.1815L70.2706 9.4258C71.7998 8.92415 73.3533 8.45487 74.8987 8.03414L75.384 9.81417C73.9033 10.2025 72.3984 10.688 70.8853 11.1573L70.8531 11.1815ZM122.191 9.52288C120.67 9.12642 119.116 8.77041 117.579 8.45486L117.943 6.65058C119.561 6.96613 121.098 7.33831 122.652 7.73477L122.191 9.52288ZM79.9798 8.71378L79.5913 6.90947C81.1529 6.56965 82.755 6.2703 84.3327 6.01138L84.6322 7.83186C83.1111 8.03414 81.5493 8.3335 80.012 8.66524L79.9798 8.71378ZM112.918 7.65386C111.365 7.41922 109.779 7.22503 108.217 7.0713L108.395 5.24273C110.014 5.39646 111.632 5.59065 113.193 5.83338L112.918 7.65386ZM89.3167 7.19267L89.1144 5.35601C90.7326 5.1861 92.3508 5.04856 93.969 4.95956L94.0743 6.79621C92.4966 6.83667 90.9107 6.97421 89.3896 7.14412L89.3167 7.19267ZM103.5 6.73957C102.117 6.67484 100.717 6.64248 99.3335 6.64248H98.7672V4.79773H99.3497C100.758 4.79773 102.19 4.79773 103.597 4.89482L103.5 6.73957Z" fill="#EAAD4E"/>
<path d="M43.643 178.253H43.5541C41.9804 178.252 40.409 178.133 38.8531 177.897L39.1362 176.068C40.5978 176.295 42.075 176.409 43.5541 176.408H43.643V178.253ZM48.4409 177.865L48.1497 176.044C49.6367 175.805 51.1028 175.45 52.535 174.984L53.1094 176.732C51.5863 177.235 50.025 177.613 48.4409 177.865ZM34.1765 176.788C32.6465 176.299 31.1583 175.688 29.7264 174.96L30.5355 173.342C31.883 174.022 33.2816 174.595 34.7185 175.057L34.1765 176.788ZM57.5433 174.879L56.7342 173.261C58.0769 172.575 59.3621 171.782 60.5774 170.89L61.6698 172.379C60.3627 173.32 58.9828 174.156 57.5433 174.879ZM25.6242 172.452C24.3246 171.512 23.0992 170.473 21.959 169.345L23.2536 168.034C24.3245 169.096 25.4769 170.073 26.7004 170.955L25.6242 172.452ZM65.2702 169.215L63.9677 167.913C65.0301 166.843 66.0092 165.693 66.8965 164.474L68.3854 165.55C67.4479 166.854 66.4089 168.082 65.2783 169.223L65.2702 169.215ZM18.8117 165.696C17.8617 164.404 17.0174 163.037 16.2872 161.61L17.9054 160.801C18.5968 162.142 19.3923 163.427 20.2843 164.644L18.8117 165.696ZM70.8935 161.448L69.2753 160.639C69.9545 159.293 70.5307 157.897 70.9988 156.464L72.7463 157.03C72.2491 158.552 71.6323 160.032 70.9016 161.456L70.8935 161.448ZM14.4264 157.176C13.9247 155.652 13.5431 154.091 13.2854 152.507L15.1059 152.216C15.3479 153.703 15.7051 155.169 16.174 156.601L14.4264 157.176ZM73.8387 152.321L72.0101 152.038C72.2371 150.568 72.3506 149.083 72.3499 147.596V147.531H74.1947V147.572C74.198 149.164 74.0818 150.754 73.8468 152.329L73.8387 152.321ZM14.7742 147.717H12.9295V147.596C12.9274 145.992 13.0519 144.391 13.3016 142.806L15.1221 143.089C14.8885 144.58 14.7722 146.087 14.7742 147.596V147.717ZM72.0263 143.033C71.7909 141.542 71.4364 140.073 70.9664 138.639L72.722 138.065C73.2175 139.592 73.5937 141.156 73.8468 142.741L72.0263 143.033ZM16.1983 138.696L14.4426 138.13C14.9407 136.6 15.5573 135.113 16.2872 133.68L17.9054 134.489C17.2064 135.844 16.6193 137.253 16.1497 138.704L16.1983 138.696ZM69.2512 134.472C68.5655 133.13 67.7726 131.844 66.8803 130.629L68.3773 129.537C69.32 130.835 70.1612 132.204 70.8935 133.631L69.2512 134.472ZM20.2924 130.67L18.755 129.626C19.6979 128.329 20.7394 127.106 21.8701 125.969L23.1807 127.271C22.1148 128.329 21.1329 129.468 20.2438 130.678L20.2924 130.67ZM63.9434 127.199C62.8756 126.131 61.7259 125.149 60.5047 124.262L61.5888 122.773C62.886 123.716 64.1087 124.757 65.2459 125.888L63.9434 127.199ZM26.6599 124.294L25.5756 122.805C26.8736 121.862 28.2424 121.021 29.6697 120.289L30.4788 121.907C29.1286 122.602 27.8353 123.403 26.6113 124.302L26.6599 124.294ZM56.6534 121.907C55.3063 121.222 53.9077 120.643 52.4704 120.176L53.0448 118.428C54.573 118.918 56.0585 119.533 57.4868 120.265L56.6534 121.907ZM34.678 120.2L34.1036 118.444C35.631 117.949 37.1946 117.573 38.7802 117.319L39.0716 119.14C37.5646 119.375 36.079 119.733 34.6296 120.208L34.678 120.2ZM48.0768 119.132C46.5962 118.905 45.1004 118.791 43.6025 118.792V116.947C45.198 116.947 46.7913 117.069 48.3682 117.311L48.0768 119.132Z" fill="#EAAD4E"/>
</g>
</svg>
