<svg width="100" height="100" viewBox="0 0 100 100" fill="none" xmlns="http://www.w3.org/2000/svg">
<rect width="100" height="100" rx="50" fill="url(#paint0_linear_2365_4347)"/>
<path d="M68.0521 32.7439L31.1146 46.9876C28.5937 48.0001 28.6083 49.4064 30.6521 50.0334L40.1354 52.9918L62.0771 39.148C63.1146 38.5168 64.0625 38.8564 63.2833 39.548L45.5062 55.5918H45.5021L45.5062 55.5939L44.8521 65.3689C45.8104 65.3689 46.2333 64.9293 46.7708 64.4105L51.3771 59.9314L60.9583 67.0084C62.725 67.9814 63.9937 67.4814 64.4333 65.373L70.7229 35.7314C71.3667 33.1501 69.7375 31.9814 68.0521 32.7439V32.7439Z" fill="white"/>
<defs>
<linearGradient id="paint0_linear_2365_4347" x1="0" y1="0" x2="116.654" y2="26.3943" gradientUnits="userSpaceOnUse">
<stop stop-color="#E69E2F"/>
<stop offset="1" stop-color="#EAAD4E"/>
</linearGradient>
</defs>
</svg>
