<svg width="32" height="32" viewBox="0 0 32 32" fill="none" xmlns="http://www.w3.org/2000/svg">
<path fill-rule="evenodd" clip-rule="evenodd" d="M16 32C24.8366 32 32 24.8366 32 16C32 7.16344 24.8366 0 16 0C7.16344 0 0 7.16344 0 16C0 24.8366 7.16344 32 16 32Z" fill="#675DA9"/>
<rect width="32" height="32" rx="5" fill="#675DA9"/>
<path d="M24.9847 11.9772L24.9791 11.9545C24.5253 10.1045 22.4794 8.1194 20.6005 7.7064L20.5793 7.702C17.5403 7.1174 14.459 7.1174 11.4206 7.702L11.3988 7.7064C9.52054 8.1194 7.4746 10.1045 7.02016 11.9545L7.01517 11.9772C6.45413 14.5608 6.45413 17.1808 7.01517 19.7644L7.02016 19.787C7.45522 21.558 9.3488 23.452 11.1575 23.9728V26.0379C11.1575 26.7854 12.0608 27.1525 12.5745 26.6131L14.6494 24.4382C15.0994 24.4636 15.5497 24.4777 16 24.4777C17.5297 24.4777 19.0601 24.3319 20.5793 24.0396L20.6005 24.0352C22.4794 23.6222 24.5253 21.6371 24.9791 19.7871L24.9847 19.7644C25.5458 17.1808 25.5458 14.5608 24.9847 11.9772ZM23.3428 19.3897C23.0398 20.5966 21.4863 22.0971 20.252 22.3744C18.6362 22.6842 17.0075 22.8166 15.3805 22.7712C15.3481 22.7703 15.317 22.7829 15.2945 22.8063C15.0636 23.0453 13.7795 24.3746 13.7795 24.3746L12.168 26.0423C12.0502 26.1661 11.8433 26.0819 11.8433 25.9109V22.4899C11.8433 22.4334 11.8032 22.3854 11.7482 22.3745L11.7473 22.3743C10.513 22.0971 8.96012 20.5966 8.65653 19.3897C8.15159 17.0544 8.15159 14.687 8.65653 12.3518C8.96012 11.1448 10.513 9.64434 11.7473 9.36712C14.5693 8.82589 17.4306 8.82589 20.252 9.36712C21.4869 9.64434 23.0398 11.1448 23.3428 12.3518C23.8482 14.6871 23.8482 17.0544 23.3428 19.3897Z" fill="white"/>
<path d="M18.685 20.9687C18.4952 20.9106 18.3144 20.8716 18.1464 20.8013C16.4062 20.0733 14.8046 19.134 13.536 17.6942C12.8145 16.8754 12.2499 15.951 11.7726 14.9728C11.5462 14.5089 11.3555 14.0268 11.161 13.5479C10.9837 13.1111 11.2449 12.6599 11.5198 12.3308C11.7779 12.022 12.1099 11.7856 12.4694 11.6114C12.7501 11.4755 13.0269 11.5539 13.2319 11.7937C13.675 12.3123 14.082 12.8575 14.4116 13.4586C14.6142 13.8284 14.5586 14.2803 14.1913 14.532C14.1021 14.5931 14.0207 14.6649 13.9376 14.734C13.8646 14.7945 13.796 14.8557 13.746 14.9377C13.6546 15.0876 13.6503 15.2645 13.7091 15.4276C14.162 16.6828 14.9255 17.6588 16.1784 18.1845C16.3788 18.2687 16.5802 18.3666 16.8112 18.3394C17.198 18.2939 17.3232 17.866 17.5943 17.6425C17.8592 17.4241 18.1977 17.4212 18.4831 17.6033C18.7686 17.7854 19.0453 17.981 19.3203 18.1786C19.5903 18.3726 19.8591 18.5624 20.1082 18.7835C20.3476 18.9962 20.4301 19.2752 20.2952 19.5638C20.0484 20.0923 19.6892 20.532 19.171 20.8127C19.0247 20.8918 18.85 20.9175 18.685 20.9687C18.4952 20.9106 18.85 20.9175 18.685 20.9687ZM16.0048 11.0071C18.281 11.0714 20.1506 12.5947 20.5513 14.864C20.6195 15.2506 20.6438 15.646 20.6742 16.0384C20.687 16.2035 20.5943 16.3603 20.4176 16.3625C20.2351 16.3647 20.153 16.2107 20.1412 16.0457C20.1178 15.7191 20.1015 15.391 20.0569 15.0671C19.8212 13.3572 18.4691 11.9426 16.7813 11.639C16.5273 11.5933 16.2674 11.5813 16.0101 11.5541C15.8475 11.5369 15.6345 11.527 15.5984 11.3231C15.5682 11.1522 15.7113 11.0161 15.8727 11.0073C15.9165 11.0049 15.9607 11.0069 16.0048 11.0071C18.281 11.0714 15.9607 11.0069 16.0048 11.0071Z" fill="white"/>
<path d="M19.464 15.529C19.4603 15.5577 19.4583 15.6251 19.4416 15.6886C19.3812 15.919 19.0347 15.9479 18.9549 15.7153C18.9313 15.6463 18.9278 15.5677 18.9276 15.4934C18.9268 15.0073 18.822 14.5216 18.5789 14.0986C18.329 13.6639 17.9472 13.2984 17.4994 13.0773C17.2286 12.9436 16.9357 12.8605 16.6389 12.8109C16.5092 12.7893 16.3781 12.7762 16.2477 12.7579C16.0898 12.7357 16.0054 12.6342 16.0129 12.4773C16.0199 12.3302 16.1265 12.2244 16.2854 12.2334C16.8078 12.2633 17.3124 12.3772 17.7768 12.6252C18.7212 13.1295 19.2607 13.9256 19.4182 14.9885C19.4253 15.0367 19.4368 15.0844 19.4404 15.1328C19.4493 15.2521 19.4549 15.3716 19.464 15.529C19.4603 15.5577 19.4549 15.3716 19.464 15.529Z" fill="white"/>
<path d="M18.0481 15.4735C17.8577 15.477 17.7558 15.3707 17.7361 15.1946C17.7225 15.0718 17.7117 14.9474 17.6827 14.828C17.6254 14.5928 17.5014 14.3748 17.3052 14.2306C17.2126 14.1625 17.1076 14.113 16.9976 14.081C16.8579 14.0403 16.7129 14.0515 16.5735 14.017C16.4221 13.9796 16.3384 13.856 16.3622 13.7128C16.3838 13.5825 16.5096 13.4808 16.6508 13.4911C17.5333 13.5554 18.164 14.0155 18.254 15.0631C18.2604 15.137 18.2679 15.2152 18.2516 15.2859C18.2238 15.4069 18.1349 15.4676 18.0481 15.4735C17.8577 15.477 18.1349 15.4676 18.0481 15.4735Z" fill="white"/>
</svg>
