<svg width="32" height="32" viewBox="0 0 32 32" fill="none" xmlns="http://www.w3.org/2000/svg">
<path fill-rule="evenodd" clip-rule="evenodd" d="M16 32C24.8366 32 32 24.8366 32 16C32 7.16344 24.8366 0 16 0C7.16344 0 0 7.16344 0 16C0 24.8366 7.16344 32 16 32Z" fill="#25D366"/>
<rect width="32" height="32" rx="5" fill="#25D366"/>
<path d="M21.3206 17.6502C21.2728 17.5704 21.1608 17.5163 20.995 17.4361C20.9548 17.4167 20.9114 17.3957 20.865 17.3725C20.6273 17.2535 19.4585 16.6785 19.2406 16.5991C19.0227 16.5198 18.8642 16.4802 18.7057 16.7181C18.5472 16.956 18.0917 17.4915 17.953 17.6502C17.8143 17.8088 17.6756 17.8287 17.438 17.7097C17.3991 17.6902 17.3462 17.6673 17.2809 17.6389C16.9462 17.4938 16.2859 17.2074 15.5262 16.5298C14.8195 15.8994 14.3424 15.1209 14.2037 14.8829C14.0651 14.6449 14.189 14.5163 14.308 14.3978C14.3792 14.3269 14.4609 14.2273 14.5427 14.1277C14.5838 14.0777 14.6248 14.0277 14.6646 13.9813C14.7656 13.8633 14.8094 13.774 14.8689 13.6525C14.8794 13.631 14.8904 13.6085 14.9023 13.5847C14.9815 13.426 14.9419 13.2872 14.8825 13.1682C14.8427 13.0886 14.6167 12.5385 14.4122 12.0405C14.311 11.7942 14.2151 11.5606 14.1495 11.4031C13.9791 10.9939 13.8064 10.9949 13.6679 10.9957C13.6495 10.9958 13.6317 10.9959 13.6147 10.995C13.4761 10.9881 13.3175 10.9866 13.159 10.9866C13.0006 10.9866 12.743 11.0461 12.5251 11.2841C12.5111 11.2994 12.4955 11.316 12.4786 11.3341C12.231 11.5983 11.6931 12.1723 11.6931 13.2673C11.6931 14.4313 12.536 15.5561 12.6619 15.7239L12.6638 15.7265C12.6715 15.7369 12.6855 15.7569 12.7054 15.7855C12.9901 16.1937 14.4962 18.3537 16.7248 19.316C17.292 19.561 17.7347 19.7072 18.08 19.8168C18.6495 19.9978 19.1678 19.9722 19.5773 19.911C20.0341 19.8428 20.9838 19.336 21.182 18.7807C21.38 18.2253 21.38 17.7493 21.3206 17.6502Z" fill="white"/>
<path fill-rule="evenodd" clip-rule="evenodd" d="M16.5234 24.9017H16.5274C21.773 24.8996 26.0393 20.6322 26.0414 15.3877C26.0424 12.8456 25.0537 10.4552 23.2575 8.65697C21.4612 6.85861 19.0724 5.8678 16.5273 5.8667C11.2832 5.8667 7.01517 10.1345 7.01309 15.3802C7.01237 17.057 7.45047 18.6937 8.28306 20.1366L6.93332 25.0667L11.9769 23.7437C13.3665 24.5017 14.9311 24.9012 16.5234 24.9017ZM12.2106 22.0214L12.4994 22.1927C13.7135 22.9132 15.1053 23.2945 16.5242 23.295H16.5274C20.886 23.295 24.4333 19.7475 24.4351 15.3872C24.4359 13.2742 23.6142 11.2875 22.1212 9.79276C20.6282 8.29803 18.6427 7.47446 16.5306 7.47373C12.1687 7.47373 8.62125 11.0208 8.61952 15.3808C8.61891 16.875 9.03698 18.3302 9.82856 19.5892L10.0166 19.8884L9.21772 22.8065L12.2106 22.0214Z" fill="white"/>
</svg>
